<svg width="1423" height="334" viewBox="0 0 1423 334" fill="none" xmlns="http://www.w3.org/2000/svg">
<rect width="1423" height="334" fill="#011629"/>
<path d="M53.1699 103.353L41.303 15.9375H171.697L159.814 103.34L106.421 113.062L53.1699 103.353Z" fill="#E44F26"/>
<path d="M106.5 105.632L149.648 97.7757L159.798 23.0866H106.5V105.632Z" fill="#F1662A"/>
<path d="M106.5 55.5055H84.8997L83.4104 44.5269H106.5V33.805H106.442H65.5703L65.9611 36.6841L69.9696 66.2274H106.5V55.5055Z" fill="#EBEBEB"/>
<path d="M106.5 83.3492L106.426 83.3631L88.248 80.1406L87.0861 71.5901H78.2506H70.6984L72.9852 88.4205L106.426 94.5186L106.5 94.5047V83.3492Z" fill="#EBEBEB"/>
<path d="M106.442 55.5055V66.2274H126.542L124.652 80.1337L106.442 83.3596V94.5151L139.909 88.4205L140.152 86.6098L143.986 58.3846L144.388 55.5055H139.988H106.442Z" fill="white"/>
<path d="M106.442 33.805V40.465V44.5027V44.5269H145.819H145.872L146.199 42.1196L146.944 36.6841L147.335 33.805H106.442Z" fill="white"/>
<path d="M588.951 106.318L596.545 83.2557H602.701L610.389 106.318H605.467L604.185 101.928H595.123L593.795 106.318H588.951ZM596.217 98.3338H603.123L599.732 86.7244L596.217 98.3338ZM613.982 89.5369H618.232V91.0213C618.878 90.4692 619.592 90.0213 620.373 89.6776C621.154 89.3338 622.154 89.1619 623.373 89.1619C624.633 89.1619 625.654 89.3963 626.435 89.8651C627.217 90.3234 627.79 90.938 628.154 91.7088C628.519 92.4796 628.701 93.339 628.701 94.2869V106.318H624.451V94.5213C624.451 93.9276 624.295 93.4744 623.982 93.1619C623.68 92.8494 623.3 92.6359 622.842 92.5213C622.394 92.4067 621.946 92.3494 621.498 92.3494C620.988 92.3494 620.482 92.4432 619.982 92.6307C619.482 92.8182 619.066 93.0942 618.732 93.4588C618.399 93.8234 618.232 94.2817 618.232 94.8338V106.318H613.982V89.5369ZM632.764 105.365L633.623 102.474C634.519 102.86 635.456 103.167 636.435 103.396C637.425 103.615 638.331 103.724 639.154 103.724C639.925 103.724 640.498 103.542 640.873 103.178C641.248 102.803 641.435 102.292 641.435 101.646C641.435 101.157 641.326 100.777 641.107 100.506C640.899 100.224 640.534 100 640.014 99.8338L636.326 98.6776C635.003 98.2609 634.092 97.6463 633.592 96.8338C633.102 96.0213 632.857 95.0526 632.857 93.9276C632.857 92.3234 633.42 91.1307 634.545 90.3494C635.68 89.5682 637.128 89.1776 638.889 89.1776C640.326 89.1776 641.545 89.3286 642.545 89.6307C643.545 89.9328 644.347 90.2557 644.951 90.5994L643.951 93.2401C643.628 93.063 643.201 92.8911 642.67 92.7244C642.139 92.5578 641.571 92.4224 640.967 92.3182C640.373 92.2036 639.81 92.1463 639.279 92.1463C638.383 92.1463 637.769 92.3026 637.435 92.6151C637.102 92.9276 636.935 93.3599 636.935 93.9119C636.935 94.2661 637.019 94.5786 637.185 94.8494C637.352 95.1099 637.649 95.3078 638.076 95.4432L641.545 96.5369C642.961 96.9849 643.946 97.6099 644.498 98.4119C645.05 99.214 645.326 100.271 645.326 101.584C645.326 103 644.826 104.204 643.826 105.193C642.826 106.183 641.321 106.678 639.31 106.678C637.894 106.678 636.665 106.568 635.623 106.349C634.592 106.141 633.639 105.813 632.764 105.365ZM649.139 82.6463H653.389V91.1619C653.753 90.5786 654.425 90.1046 655.404 89.7401C656.394 89.3651 657.472 89.1776 658.639 89.1776C660.253 89.1776 661.519 89.6099 662.435 90.4744C663.363 91.339 663.826 92.4796 663.826 93.8963V106.318H659.576V94.5057C659.576 93.9119 659.43 93.464 659.139 93.1619C658.847 92.8494 658.482 92.6359 658.045 92.5213C657.607 92.4067 657.165 92.3494 656.717 92.3494C656.206 92.3494 655.696 92.4432 655.185 92.6307C654.675 92.8078 654.248 93.0786 653.904 93.4432C653.56 93.7974 653.389 94.2453 653.389 94.7869V106.318H649.139V82.6463ZM673.779 106.678C672.175 106.678 670.904 106.214 669.967 105.287C669.04 104.36 668.576 103.188 668.576 101.771V89.5369H672.826V101.084C672.826 101.667 672.972 102.136 673.264 102.49C673.555 102.834 673.92 103.084 674.357 103.24C674.795 103.396 675.232 103.474 675.67 103.474C676.191 103.474 676.706 103.386 677.217 103.209C677.727 103.032 678.149 102.75 678.482 102.365C678.826 101.98 678.998 101.474 678.998 100.849V89.5369H683.248V106.318H679.248L679.123 104.474C678.79 105.172 678.107 105.714 677.076 106.099C676.045 106.485 674.946 106.678 673.779 106.678ZM688.326 100.803V82.6463H692.576V100.74C692.576 101.657 692.79 102.323 693.217 102.74C693.654 103.146 694.441 103.349 695.576 103.349H696.107L695.779 106.506H693.998C692.133 106.506 690.722 106.084 689.764 105.24C688.805 104.386 688.326 102.907 688.326 100.803ZM707.857 106.318V83.2557H712.967L719.482 94.4901L725.998 83.2557H731.201V106.318H726.857V89.2713L721.092 99.6151H717.982L712.201 89.6619V106.318H707.857ZM743.389 106.678C740.743 106.678 738.868 106.188 737.764 105.209C736.659 104.23 736.107 102.907 736.107 101.24V94.6307C736.107 92.9224 736.743 91.589 738.014 90.6307C739.295 89.6619 741.086 89.1776 743.389 89.1776C745.68 89.1776 747.467 89.6619 748.748 90.6307C750.029 91.589 750.67 92.9224 750.67 94.6307V101.24C750.67 102.344 750.441 103.308 749.982 104.131C749.524 104.943 748.764 105.573 747.701 106.021C746.649 106.459 745.211 106.678 743.389 106.678ZM743.389 103.724C744.295 103.724 745.024 103.558 745.576 103.224C746.139 102.881 746.42 102.282 746.42 101.428V94.4432C746.42 93.589 746.154 92.9953 745.623 92.6619C745.092 92.3182 744.347 92.1463 743.389 92.1463C742.472 92.1463 741.738 92.3182 741.185 92.6619C740.633 92.9953 740.357 93.589 740.357 94.4432V101.428C740.357 102.282 740.618 102.881 741.139 103.224C741.659 103.558 742.409 103.724 743.389 103.724ZM755.139 82.6307H759.389V96.9119L766.029 89.5369H770.873L764.56 96.7713L771.154 106.318H766.514L761.264 98.5526L759.389 100.474V106.318H755.139V82.6307ZM773.889 82.6463H778.139V91.1619C778.503 90.5786 779.175 90.1046 780.154 89.7401C781.144 89.3651 782.222 89.1776 783.389 89.1776C785.003 89.1776 786.269 89.6099 787.185 90.4744C788.113 91.339 788.576 92.4796 788.576 93.8963V106.318H784.326V94.5057C784.326 93.9119 784.18 93.464 783.889 93.1619C783.597 92.8494 783.232 92.6359 782.795 92.5213C782.357 92.4067 781.915 92.3494 781.467 92.3494C780.956 92.3494 780.446 92.4432 779.935 92.6307C779.425 92.8078 778.998 93.0786 778.654 93.4432C778.31 93.7974 778.139 94.2453 778.139 94.7869V106.318H773.889V82.6463ZM797.56 106.678C796.123 106.678 794.951 106.261 794.045 105.428C793.149 104.594 792.701 103.485 792.701 102.099C792.701 101.308 792.863 100.605 793.185 99.9901C793.508 99.3755 794.097 98.8078 794.951 98.2869C795.805 97.7557 797.029 97.2401 798.623 96.7401C799.925 96.3234 800.883 95.938 801.498 95.5838C802.123 95.2296 802.435 94.7609 802.435 94.1776C802.435 93.5005 802.232 92.9953 801.826 92.6619C801.43 92.3182 800.753 92.1463 799.795 92.1463C798.732 92.1463 798.029 92.3546 797.685 92.7713C797.352 93.188 797.185 93.7192 797.185 94.3651V95.0213H793.201V94.5213C793.201 92.8963 793.743 91.5994 794.826 90.6307C795.909 89.6619 797.597 89.1776 799.889 89.1776C801.566 89.1776 802.894 89.4119 803.873 89.8807C804.852 90.3494 805.555 91.0109 805.982 91.8651C806.409 92.7088 806.623 93.7088 806.623 94.8651V101.506C806.623 102.266 806.717 102.766 806.904 103.006C807.102 103.235 807.461 103.349 807.982 103.349L807.81 106.443H806.92C805.753 106.443 804.847 106.282 804.201 105.959C803.555 105.636 803.081 105.136 802.779 104.459C802.331 105.053 801.654 105.573 800.748 106.021C799.852 106.459 798.79 106.678 797.56 106.678ZM798.982 103.849C799.503 103.849 800.113 103.704 800.81 103.412C801.508 103.12 802.05 102.672 802.435 102.068V97.8182C802.154 98.0474 801.706 98.3026 801.092 98.5838C800.477 98.8546 799.816 99.1203 799.107 99.3807C798.18 99.7244 797.571 100.105 797.279 100.521C796.988 100.938 796.842 101.386 796.842 101.865C796.842 102.542 797.04 103.042 797.435 103.365C797.831 103.688 798.347 103.849 798.982 103.849ZM811.857 100.803V82.6463H816.107V100.74C816.107 101.657 816.321 102.323 816.748 102.74C817.185 103.146 817.972 103.349 819.107 103.349H819.639L819.31 106.506H817.529C815.665 106.506 814.253 106.084 813.295 105.24C812.336 104.386 811.857 102.907 811.857 100.803ZM822.295 101.068V94.5213C822.295 92.813 822.941 91.4953 824.232 90.5682C825.534 89.6411 827.274 89.1776 829.451 89.1776C832.034 89.1776 833.868 89.6724 834.951 90.6619C836.045 91.6515 836.592 92.9901 836.592 94.6776V98.7401H826.545V101.474C826.545 102.464 826.8 103.089 827.31 103.349C827.821 103.599 828.581 103.724 829.592 103.724C830.8 103.724 831.607 103.558 832.014 103.224C832.43 102.881 832.639 102.193 832.639 101.162H836.576C836.576 103.235 835.993 104.672 834.826 105.474C833.659 106.277 831.889 106.678 829.514 106.678C828.149 106.678 826.92 106.511 825.826 106.178C824.732 105.834 823.868 105.256 823.232 104.443C822.607 103.631 822.295 102.506 822.295 101.068ZM832.576 96.1463V94.1776C832.576 93.5526 832.441 93.0994 832.17 92.8182C831.909 92.5265 831.55 92.3442 831.092 92.2713C830.644 92.188 830.133 92.1463 829.56 92.1463C828.706 92.1463 827.988 92.2765 827.404 92.5369C826.831 92.7869 826.545 93.3599 826.545 94.2557V96.1463H832.576Z" fill="white"/>
<path d="M614.371 191L619.635 176.879H621.363L626.637 191H624.635L623.688 188.246H617.369L616.412 191H614.371ZM617.877 186.801H623.189L620.553 179.135L617.877 186.801ZM635.279 182.035H633.551V180.648H635.279V179.076C635.279 178.106 635.543 177.403 636.07 176.967C636.604 176.524 637.402 176.303 638.463 176.303H639.625L639.742 177.602H638.609C638.049 177.602 637.659 177.725 637.438 177.973C637.223 178.22 637.115 178.529 637.115 178.9V180.648H639.625V182.035H637.115V191H635.279V182.035ZM645.475 191.215C644.628 191.215 643.941 191.075 643.414 190.795C642.893 190.515 642.512 190.144 642.271 189.682C642.031 189.219 641.91 188.715 641.91 188.168V180.648H643.746V188.178C643.746 188.692 643.935 189.092 644.312 189.379C644.69 189.665 645.198 189.809 645.836 189.809C646.734 189.809 647.402 189.613 647.838 189.223C648.274 188.832 648.492 188.419 648.492 187.982V180.648H650.328V191H648.688L648.492 189.701C648.232 190.163 647.851 190.531 647.35 190.805C646.855 191.078 646.23 191.215 645.475 191.215ZM654 187.504V176.303H655.836V187.523C655.836 188.083 655.888 188.51 655.992 188.803C656.096 189.089 656.285 189.285 656.559 189.389C656.832 189.486 657.226 189.535 657.74 189.535H658.062L657.848 191.078H657.32C656.565 191.078 655.94 190.99 655.445 190.814C654.957 190.639 654.592 190.294 654.352 189.779C654.117 189.265 654 188.507 654 187.504ZM660.797 187.504V176.303H662.633V187.523C662.633 188.083 662.685 188.51 662.789 188.803C662.893 189.089 663.082 189.285 663.355 189.389C663.629 189.486 664.023 189.535 664.537 189.535H664.859L664.645 191.078H664.117C663.362 191.078 662.737 190.99 662.242 190.814C661.754 190.639 661.389 190.294 661.148 189.779C660.914 189.265 660.797 188.507 660.797 187.504ZM672.125 190.375L672.574 189.027C672.802 189.151 673.196 189.314 673.756 189.516C674.316 189.711 674.947 189.809 675.65 189.809C676.464 189.809 677.014 189.659 677.301 189.359C677.587 189.06 677.73 188.692 677.73 188.256C677.73 187.852 677.675 187.533 677.564 187.299C677.46 187.064 677.164 186.856 676.676 186.674L674.215 185.775C673.466 185.502 672.942 185.18 672.643 184.809C672.343 184.438 672.193 183.93 672.193 183.285C672.193 182.413 672.434 181.723 672.916 181.215C673.398 180.707 674.277 180.453 675.553 180.453C676.282 180.453 676.949 180.512 677.555 180.629C678.167 180.74 678.661 180.87 679.039 181.02L678.619 182.426C678.424 182.341 678.167 182.257 677.848 182.172C677.529 182.087 677.197 182.016 676.852 181.957C676.507 181.892 676.188 181.859 675.895 181.859C675.055 181.859 674.511 181.967 674.264 182.182C674.023 182.39 673.902 182.729 673.902 183.197C673.902 183.516 673.961 183.754 674.078 183.91C674.202 184.06 674.439 184.203 674.791 184.34L677.223 185.287C677.802 185.508 678.238 185.746 678.531 186C678.831 186.247 679.033 186.547 679.137 186.898C679.241 187.25 679.293 187.696 679.293 188.236C679.293 188.777 679.179 189.275 678.951 189.73C678.73 190.18 678.368 190.541 677.867 190.814C677.372 191.081 676.715 191.215 675.895 191.215C674.931 191.215 674.12 191.107 673.463 190.893C672.805 190.678 672.359 190.505 672.125 190.375ZM682.936 188.041V182.035H681.207V180.648H683.004L683.229 177.445H684.771V180.648H687.369V182.035H684.771V187.924C684.771 188.607 684.973 189.047 685.377 189.242C685.781 189.438 686.419 189.535 687.291 189.535H687.496L687.301 191.078H687.027C685.615 191.078 684.579 190.857 683.922 190.414C683.264 189.971 682.936 189.18 682.936 188.041ZM693.092 191.215C692.33 191.215 691.708 191.085 691.227 190.824C690.751 190.557 690.4 190.209 690.172 189.779C689.951 189.343 689.84 188.878 689.84 188.383C689.84 187.862 689.941 187.426 690.143 187.074C690.351 186.716 690.738 186.394 691.305 186.107C691.878 185.814 692.714 185.508 693.814 185.189C694.387 185.02 694.846 184.87 695.191 184.74C695.536 184.61 695.787 184.444 695.943 184.242C696.1 184.04 696.178 183.751 696.178 183.373C696.178 183.093 696.132 182.839 696.041 182.611C695.956 182.383 695.777 182.201 695.504 182.064C695.237 181.928 694.827 181.859 694.273 181.859C693.583 181.859 693.079 181.931 692.76 182.074C692.441 182.217 692.236 182.406 692.145 182.641C692.06 182.869 692.018 183.122 692.018 183.402V183.861H690.25V183.393C690.25 182.37 690.592 181.625 691.275 181.156C691.959 180.688 692.978 180.453 694.332 180.453C695.699 180.453 696.653 180.772 697.193 181.41C697.74 182.048 698.014 182.901 698.014 183.969V188.383C698.014 188.93 698.082 189.281 698.219 189.438C698.362 189.594 698.655 189.672 699.098 189.672L698.883 191.078H698.512C697.822 191.078 697.324 190.945 697.018 190.678C696.712 190.404 696.48 190.023 696.324 189.535C696.174 189.77 695.966 190.017 695.699 190.277C695.439 190.538 695.097 190.759 694.674 190.941C694.257 191.124 693.73 191.215 693.092 191.215ZM693.316 189.848C693.688 189.848 694.075 189.77 694.479 189.613C694.882 189.451 695.24 189.239 695.553 188.979C695.872 188.712 696.08 188.419 696.178 188.1V185.375C696.035 185.518 695.784 185.707 695.426 185.941C695.074 186.169 694.57 186.378 693.912 186.566C693.111 186.794 692.522 187.029 692.145 187.27C691.773 187.51 691.588 187.862 691.588 188.324C691.588 188.845 691.721 189.229 691.988 189.477C692.262 189.724 692.704 189.848 693.316 189.848ZM705.65 191.215C704.622 191.215 703.798 191.052 703.18 190.727C702.568 190.395 702.125 189.958 701.852 189.418C701.578 188.871 701.441 188.279 701.441 187.641V183.695C701.441 182.719 701.812 181.934 702.555 181.342C703.303 180.749 704.319 180.453 705.602 180.453C706.428 180.453 707.148 180.551 707.76 180.746C708.372 180.935 708.844 181.28 709.176 181.781C709.514 182.283 709.684 182.999 709.684 183.93L707.936 184.096C707.936 183.464 707.864 182.989 707.721 182.67C707.577 182.351 707.34 182.136 707.008 182.025C706.676 181.915 706.223 181.859 705.65 181.859C704.863 181.859 704.27 182.003 703.873 182.289C703.476 182.569 703.277 183.054 703.277 183.744V187.797C703.277 188.539 703.486 189.06 703.902 189.359C704.326 189.659 704.908 189.809 705.65 189.809C706.256 189.809 706.715 189.766 707.027 189.682C707.346 189.591 707.571 189.415 707.701 189.154C707.831 188.887 707.919 188.494 707.965 187.973H709.664C709.599 188.767 709.43 189.402 709.156 189.877C708.883 190.352 708.463 190.694 707.896 190.902C707.337 191.111 706.588 191.215 705.65 191.215ZM712.613 176.303H714.449V185.883L719.4 180.648H721.412L717.203 185.199L721.832 191H719.713L716.002 186.195L714.449 187.738V191H712.613V176.303ZM728.434 187.729V183.822C728.434 182.781 728.779 181.96 729.469 181.361C730.159 180.756 731.256 180.453 732.76 180.453C733.085 180.453 733.469 180.489 733.912 180.561C734.355 180.632 734.736 180.727 735.055 180.844V176.303H736.891V191H735.641L735.338 190.316C735.038 190.551 734.628 190.759 734.107 190.941C733.593 191.124 733.069 191.215 732.535 191.215C731.546 191.215 730.748 191.062 730.143 190.756C729.544 190.45 729.107 190.036 728.834 189.516C728.567 188.988 728.434 188.393 728.434 187.729ZM735.055 189.154V182.289C734.781 182.159 734.439 182.055 734.029 181.977C733.626 181.898 733.209 181.859 732.779 181.859C732.057 181.859 731.458 181.993 730.982 182.26C730.507 182.527 730.27 182.979 730.27 183.617V187.865C730.27 188.51 730.497 188.988 730.953 189.301C731.415 189.613 731.982 189.77 732.652 189.77C733.173 189.77 733.652 189.698 734.088 189.555C734.524 189.411 734.846 189.278 735.055 189.154ZM740.152 187.348V183.744C740.152 182.768 740.488 181.977 741.158 181.371C741.829 180.759 742.906 180.453 744.391 180.453C745.81 180.453 746.855 180.733 747.525 181.293C748.196 181.846 748.531 182.615 748.531 183.598V186.059H741.988V187.514C741.988 188.354 742.154 188.946 742.486 189.291C742.825 189.636 743.482 189.809 744.459 189.809C745.038 189.809 745.494 189.789 745.826 189.75C746.165 189.704 746.412 189.574 746.568 189.359C746.731 189.138 746.839 188.767 746.891 188.246H748.512C748.427 189.06 748.248 189.682 747.975 190.111C747.708 190.535 747.294 190.824 746.734 190.98C746.174 191.137 745.416 191.215 744.459 191.215C742.916 191.215 741.812 190.893 741.148 190.248C740.484 189.604 740.152 188.637 740.152 187.348ZM746.754 184.818V183.402C746.754 182.777 746.536 182.364 746.1 182.162C745.67 181.96 745.1 181.859 744.391 181.859C743.661 181.859 743.079 181.986 742.643 182.24C742.206 182.494 741.988 182.94 741.988 183.578V184.818H746.754ZM750.445 180.648H752.291L755.406 189.047L758.18 180.648H759.977L756.314 191H754.459L750.445 180.648ZM762.457 187.504V176.303H764.293V187.523C764.293 188.083 764.345 188.51 764.449 188.803C764.553 189.089 764.742 189.285 765.016 189.389C765.289 189.486 765.683 189.535 766.197 189.535H766.52L766.305 191.078H765.777C765.022 191.078 764.397 190.99 763.902 190.814C763.414 190.639 763.049 190.294 762.809 189.779C762.574 189.265 762.457 188.507 762.457 187.504ZM773.131 191.215C772.096 191.215 771.262 191.075 770.631 190.795C770.006 190.508 769.55 190.118 769.264 189.623C768.984 189.128 768.844 188.562 768.844 187.924V183.754C768.844 183.116 768.984 182.549 769.264 182.055C769.55 181.553 770.006 181.163 770.631 180.883C771.262 180.596 772.096 180.453 773.131 180.453C774.16 180.453 774.986 180.596 775.611 180.883C776.243 181.163 776.702 181.553 776.988 182.055C777.275 182.549 777.418 183.116 777.418 183.754V187.924C777.418 188.562 777.275 189.128 776.988 189.623C776.702 190.118 776.243 190.508 775.611 190.795C774.986 191.075 774.16 191.215 773.131 191.215ZM773.131 189.809C773.847 189.809 774.433 189.682 774.889 189.428C775.351 189.167 775.582 188.718 775.582 188.08V183.598C775.582 182.96 775.351 182.51 774.889 182.25C774.433 181.99 773.847 181.859 773.131 181.859C772.402 181.859 771.809 181.99 771.354 182.25C770.904 182.51 770.68 182.96 770.68 183.598V188.08C770.68 188.718 770.904 189.167 771.354 189.428C771.809 189.682 772.402 189.809 773.131 189.809ZM780.68 194.984V180.648H782.125L782.34 181.43C782.613 181.182 783.007 180.958 783.521 180.756C784.042 180.554 784.599 180.453 785.191 180.453C786.513 180.453 787.496 180.775 788.141 181.42C788.792 182.064 789.117 182.885 789.117 183.881V187.641C789.117 188.682 788.759 189.538 788.043 190.209C787.333 190.88 786.305 191.215 784.957 191.215C784.378 191.215 783.886 191.153 783.482 191.029C783.085 190.912 782.763 190.792 782.516 190.668V194.984H780.68ZM784.84 189.809C785.562 189.809 786.148 189.639 786.598 189.301C787.053 188.956 787.281 188.467 787.281 187.836V183.734C787.281 183.116 787.053 182.65 786.598 182.338C786.148 182.019 785.585 181.859 784.908 181.859C784.479 181.859 784.091 181.934 783.746 182.084C783.408 182.227 783.131 182.387 782.916 182.563C782.708 182.738 782.574 182.869 782.516 182.953V189.252C782.75 189.382 783.062 189.509 783.453 189.633C783.844 189.75 784.306 189.809 784.84 189.809ZM792.008 187.348V183.744C792.008 182.768 792.343 181.977 793.014 181.371C793.684 180.759 794.762 180.453 796.246 180.453C797.665 180.453 798.71 180.733 799.381 181.293C800.051 181.846 800.387 182.615 800.387 183.598V186.059H793.844V187.514C793.844 188.354 794.01 188.946 794.342 189.291C794.68 189.636 795.338 189.809 796.314 189.809C796.894 189.809 797.35 189.789 797.682 189.75C798.02 189.704 798.268 189.574 798.424 189.359C798.587 189.138 798.694 188.767 798.746 188.246H800.367C800.283 189.06 800.104 189.682 799.83 190.111C799.563 190.535 799.15 190.824 798.59 190.98C798.03 191.137 797.271 191.215 796.314 191.215C794.771 191.215 793.668 190.893 793.004 190.248C792.34 189.604 792.008 188.637 792.008 187.348ZM798.609 184.818V183.402C798.609 182.777 798.391 182.364 797.955 182.162C797.525 181.96 796.956 181.859 796.246 181.859C795.517 181.859 794.934 181.986 794.498 182.24C794.062 182.494 793.844 182.94 793.844 183.578V184.818H798.609ZM803.492 180.648H805.328V182.113C805.478 181.723 805.748 181.41 806.139 181.176C806.536 180.935 806.985 180.762 807.486 180.658C807.988 180.554 808.466 180.502 808.922 180.502L808.863 182.074C808.277 182.074 807.714 182.156 807.174 182.318C806.633 182.475 806.191 182.68 805.846 182.934C805.501 183.188 805.328 183.461 805.328 183.754V191H803.492V180.648Z" fill="white"/>
<g clip-path="url(#clip0_1_85)">
<path d="M319.752 157.236C317.812 156.775 315.802 156.338 313.732 155.926C314.072 154.967 314.384 154.021 314.662 153.091C319.219 137.817 316.239 125.513 306.065 121.462C296.31 117.577 280.356 121.628 264.243 131.31C262.693 132.241 261.14 133.227 259.587 134.26C258.552 133.577 257.519 132.916 256.488 132.284C239.601 121.931 222.675 117.568 212.511 121.631C202.765 125.527 199.879 137.094 203.98 151.569C204.376 152.967 204.839 154.394 205.363 155.846C202.967 156.316 200.655 156.816 198.442 157.349C178.644 162.115 166 169.585 166 177.333C166 185.335 179.573 193.361 200.194 198.228C201.822 198.612 203.51 198.975 205.251 199.32C204.686 200.89 204.194 202.428 203.782 203.929C199.871 218.152 202.925 229.446 212.645 233.318C222.685 237.315 239.535 233.206 255.943 223.303C257.24 222.52 258.541 221.69 259.845 220.82C261.535 221.943 263.222 223.007 264.9 224.004C280.793 233.448 296.489 237.261 306.201 233.379C316.231 229.37 319.49 217.237 315.258 202.476C314.935 201.349 314.559 200.197 314.137 199.025C315.32 198.783 316.482 198.534 317.614 198.275C339.052 193.37 353 185.442 353 177.333C353 169.556 339.948 162.036 319.752 157.236ZM315.102 193.039C314.079 193.273 313.03 193.499 311.961 193.718C309.594 188.544 306.4 183.043 302.492 177.359C306.222 171.811 309.292 166.38 311.593 161.241C313.505 161.623 315.362 162.026 317.151 162.451C334.456 166.565 345.011 172.646 345.011 177.333C345.011 182.324 333.612 188.804 315.102 193.039ZM307.421 203.548C309.293 210.075 309.56 215.976 308.321 220.589C307.207 224.735 304.967 227.498 302.198 228.605C296.304 230.961 283.702 227.899 270.11 219.823C268.552 218.897 266.983 217.909 265.408 216.862C270.677 212.883 275.943 208.257 281.083 203.12C290.123 202.566 298.664 201.66 306.409 200.424C306.791 201.487 307.13 202.529 307.421 203.548ZM229.753 228.198C223.995 229.602 219.409 229.643 216.637 228.539C210.738 226.19 208.286 217.122 211.631 204.958C212.014 203.565 212.47 202.134 212.996 200.671C220.656 201.841 229.134 202.682 238.196 203.19C243.37 208.217 248.789 212.838 254.249 216.884C253.056 217.679 251.868 218.436 250.686 219.15C243.431 223.529 236.16 226.636 229.753 228.198ZM202.778 193.008C193.66 190.856 186.13 188.059 180.968 185.007C176.33 182.265 173.988 179.542 173.988 177.333C173.988 172.631 184.14 166.634 201.072 162.557C203.126 162.063 205.277 161.597 207.508 161.159C209.848 166.415 212.918 171.91 216.622 177.467C212.87 183.106 209.757 188.689 207.394 194.006C205.803 193.69 204.261 193.358 202.778 193.008ZM211.82 150.509C208.306 138.108 210.64 128.752 216.513 126.405C222.769 123.904 236.603 127.47 251.184 136.409C252.116 136.981 253.051 137.579 253.99 138.197C248.556 142.226 243.188 146.812 238.059 151.809C229.265 152.372 220.846 153.276 213.106 154.487C212.619 153.136 212.188 151.808 211.82 150.509ZM292.484 164.262C290.633 162.056 288.734 159.901 286.797 157.805C292.763 158.326 298.48 159.017 303.848 159.863C302.237 163.43 300.228 167.159 297.863 170.982C296.167 168.758 294.373 166.516 292.484 164.262ZM259.589 142.139C263.274 144.896 266.964 147.973 270.593 151.312C266.936 151.193 263.233 151.131 259.5 151.131C255.802 151.131 252.127 151.192 248.492 151.309C252.125 148.001 255.847 144.928 259.589 142.139ZM226.484 164.301C224.636 166.514 222.875 168.744 221.205 170.978C218.879 167.168 216.889 163.422 215.263 159.805C220.599 158.98 226.288 158.306 232.217 157.795C230.253 159.91 228.338 162.081 226.484 164.301ZM232.387 197.263C226.262 196.791 220.487 196.152 215.153 195.35C216.805 191.669 218.839 187.843 221.214 183.951C222.888 186.183 224.656 188.414 226.516 190.632C228.41 192.892 230.373 195.105 232.387 197.263ZM259.81 212.915C256.024 210.094 252.247 206.973 248.559 203.617C252.14 203.714 255.79 203.764 259.5 203.764C263.312 203.764 267.079 203.704 270.788 203.59C267.147 207.007 263.47 210.132 259.81 212.915ZM297.939 183.753C300.439 187.686 302.546 191.492 304.219 195.111C298.797 195.965 292.943 196.653 286.775 197.164C288.716 195.04 290.632 192.849 292.515 190.594C294.42 188.313 296.229 186.029 297.939 183.753ZM285.596 187.838C282.673 191.338 279.671 194.679 276.625 197.833C271.076 198.107 265.343 198.248 259.5 198.248C253.681 198.248 248.02 198.123 242.569 197.879C239.4 194.684 236.333 191.333 233.429 187.869C230.532 184.414 227.867 180.929 225.451 177.465C227.866 173.992 230.525 170.504 233.405 167.056L233.405 167.056C236.293 163.598 239.332 160.264 242.472 157.089C248.033 156.799 253.736 156.647 259.5 156.647C265.289 156.647 271 156.8 276.559 157.093C279.652 160.244 282.67 163.568 285.569 167.026C288.502 170.524 291.195 173.988 293.631 177.387C291.202 180.843 288.515 184.343 285.596 187.838ZM302.075 126.241C308.337 128.734 310.772 138.791 306.838 151.977C306.587 152.819 306.304 153.676 305.998 154.544C298.239 153.308 289.815 152.389 280.994 151.817C275.856 146.765 270.531 142.171 265.187 138.195C266.623 137.24 268.058 136.33 269.487 135.471C283.293 127.175 296.196 123.9 302.075 126.241ZM259.5 165.802C268.722 165.802 276.198 170.964 276.198 177.333C276.198 183.7 268.722 188.863 259.5 188.863C250.278 188.863 242.802 183.7 242.802 177.333C242.802 170.964 250.278 165.802 259.5 165.802Z" fill="#00D8FF"/>
</g>
<path d="M50.531 313.282H54.692C56.588 313.282 57.965 313.47 58.821 313.846C59.678 314.221 60.106 314.818 60.106 315.636C60.106 316.192 59.918 316.647 59.543 317.003C59.168 317.359 58.669 317.573 58.047 317.646V317.709C58.895 317.84 59.506 318.086 59.881 318.447C60.256 318.807 60.444 319.286 60.444 319.884C60.444 320.732 60.004 321.393 59.122 321.868C58.241 322.343 57.044 322.58 55.532 322.58H50.531V313.282ZM53.366 316.965H55.012C55.78 316.965 56.337 316.882 56.681 316.717C57.026 316.552 57.198 316.279 57.198 315.897C57.198 315.541 57.011 315.286 56.636 315.131C56.261 314.976 55.668 314.898 54.857 314.898H53.366V316.965ZM53.366 318.529V320.952H55.214C55.994 320.952 56.57 320.849 56.943 320.641C57.316 320.433 57.501 320.115 57.501 319.687C57.501 318.916 56.708 318.529 55.123 318.529H53.366ZM75.252 317.919C75.252 319.458 74.703 320.641 73.606 321.468C72.509 322.294 70.936 322.708 68.887 322.708C66.838 322.708 65.265 322.294 64.168 321.468C63.07 320.641 62.522 319.454 62.522 317.906C62.522 316.359 63.072 315.177 64.173 314.361C65.274 313.545 66.851 313.136 68.906 313.136C70.961 313.136 72.532 313.548 73.621 314.37C74.708 315.192 75.252 316.376 75.252 317.919ZM65.494 317.919C65.494 318.958 65.777 319.74 66.345 320.265C66.912 320.791 67.759 321.054 68.887 321.054C71.149 321.054 72.28 320.009 72.28 317.919C72.28 315.825 71.155 314.777 68.905 314.777C67.777 314.777 66.926 315.041 66.353 315.569C65.78 316.098 65.494 316.88 65.494 317.919ZM90.161 317.919C90.161 319.458 89.612 320.641 88.515 321.468C87.418 322.294 85.845 322.708 83.796 322.708C81.747 322.708 80.174 322.294 79.077 321.468C77.979 320.641 77.431 319.454 77.431 317.906C77.431 316.359 77.981 315.177 79.082 314.361C80.183 313.545 81.76 313.136 83.815 313.136C85.87 313.136 87.441 313.548 88.53 314.37C89.616 315.192 90.161 316.376 90.161 317.919ZM80.402 317.919C80.402 318.958 80.685 319.74 81.253 320.265C81.82 320.791 82.667 321.054 83.795 321.054C86.057 321.054 87.188 320.009 87.188 317.919C87.188 315.825 86.063 314.777 83.813 314.777C82.685 314.777 81.834 315.041 81.261 315.569C80.688 316.098 80.402 316.88 80.402 317.919ZM98.09 322.58H95.255V314.923H91.624V313.282H101.721V314.923H98.09V322.58ZM111.671 319.998C111.671 320.838 111.237 321.5 110.368 321.983C109.499 322.466 108.29 322.708 106.742 322.708C105.315 322.708 104.053 322.521 102.956 322.148V320.317C103.858 320.596 104.622 320.794 105.247 320.909C105.872 321.023 106.443 321.08 106.962 321.08C107.584 321.08 108.061 320.998 108.393 320.833C108.726 320.667 108.892 320.422 108.892 320.095C108.892 319.913 108.819 319.751 108.673 319.608C108.527 319.467 108.312 319.33 108.028 319.198C107.744 319.067 107.167 318.857 106.295 318.569C105.478 318.302 104.865 318.045 104.457 317.799C104.048 317.553 103.722 317.267 103.478 316.941C103.234 316.614 103.112 316.233 103.112 315.797C103.112 314.974 103.513 314.328 104.315 313.857C105.117 313.386 106.225 313.151 107.64 313.151C108.335 313.151 108.998 313.208 109.629 313.323C110.26 313.437 110.92 313.598 111.609 313.806L110.694 315.338C109.981 315.135 109.391 314.993 108.924 314.912C108.457 314.832 107.999 314.791 107.548 314.791C107.011 314.791 106.6 314.878 106.313 315.052C106.026 315.226 105.883 315.453 105.883 315.733C105.883 315.907 105.941 316.058 106.057 316.187C106.173 316.317 106.357 316.442 106.61 316.563C106.863 316.684 107.462 316.901 108.407 317.215C109.657 317.631 110.514 318.047 110.977 318.465C111.44 318.882 111.671 319.392 111.671 319.998ZM119.254 322.58H116.419V314.923H112.788V313.282H122.885V314.923H119.254V322.58ZM127.778 319.013V322.58H124.943V313.282H128.839C130.656 313.282 132 313.513 132.872 313.972C133.744 314.432 134.18 315.131 134.18 316.068C134.18 316.615 133.964 317.101 133.531 317.527C133.098 317.954 132.485 318.287 131.693 318.529C133.705 320.619 135.016 321.969 135.626 322.579H132.48L129.288 319.012H127.778V319.013ZM127.778 317.41H128.693C129.589 317.41 130.251 317.306 130.678 317.098C131.105 316.89 131.318 316.564 131.318 316.119C131.318 315.678 131.1 315.364 130.664 315.177C130.228 314.991 129.553 314.898 128.638 314.898H127.778V317.41ZM145.494 322.58L144.524 320.367H139.649L138.679 322.58H135.624L140.343 313.245H143.809L148.547 322.58H145.494ZM143.847 318.714C142.951 316.708 142.446 315.574 142.333 315.311C142.22 315.049 142.14 314.841 142.091 314.688C141.89 315.231 141.314 316.573 140.362 318.714H143.847ZM159.469 316.183C159.469 317.183 159.019 317.949 158.12 318.478C157.221 319.008 155.942 319.273 154.283 319.273H153.067V322.58H150.232V313.282H154.503C156.125 313.282 157.358 313.525 158.203 314.01C159.047 314.496 159.469 315.22 159.469 316.183ZM153.067 317.658H154C154.872 317.658 155.524 317.538 155.957 317.299C156.39 317.059 156.606 316.71 156.606 316.253C156.606 315.79 156.424 315.449 156.062 315.229C155.699 315.008 155.13 314.898 154.356 314.898H153.066L153.067 317.658ZM114.951 274.465C112.968 274.011 110.113 273.937 106.386 273.937H93V287.844H107.424C109.926 287.844 111.683 287.671 112.695 287.54C114.478 287.319 115.969 286.893 117.167 286.375C118.365 285.857 119.35 285.075 120.122 284.085C120.893 283.095 121.28 281.938 121.28 280.642C121.28 279.124 120.721 277.875 119.603 276.756C118.486 275.635 116.935 274.919 114.951 274.465ZM112.895 268.477C114.865 268.07 116.35 267.333 117.347 266.389C118.346 265.446 118.845 264.232 118.845 262.806C118.845 261.455 118.379 260.25 117.447 259.222C116.515 258.194 115.184 257.497 113.455 257.117C111.723 256.739 108.755 256.555 104.549 256.555H93V269.07H105.507C108.942 269.07 111.404 268.793 112.895 268.477ZM158 246.213C158 240.788 151.675 236.391 143.873 236.391H66.127C58.325 236.391 52 240.788 52 246.213V300.272C52 305.697 58.325 310.094 66.127 310.094H143.873C151.675 310.094 158 305.697 158 300.272V246.213ZM127.57 285.946C126.413 287.584 124.981 288.847 123.278 289.736C121.574 290.624 119.437 291.436 116.868 291.89C114.299 292.344 111.151 292.711 107.424 292.711H85V251.687H107.065C111.538 251.687 115.124 252.119 117.826 252.942C120.529 253.766 122.644 255.042 124.177 256.754C125.707 258.467 126.473 260.263 126.473 262.132C126.473 263.872 125.793 265.512 124.437 267.049C123.079 268.586 121.029 269.827 118.287 270.77C121.827 271.492 124.55 272.725 126.453 274.465C128.356 276.205 129.308 278.26 129.308 280.629C129.307 282.536 128.729 284.308 127.57 285.946Z" fill="#5B4282"/>
<path d="M1309.99 89.549C1346.14 89.549 1375.45 72.8217 1375.45 52.1875C1375.45 31.5533 1346.14 14.826 1309.99 14.826C1273.84 14.826 1244.53 31.5533 1244.53 52.1875C1244.53 72.8217 1273.84 89.549 1309.99 89.549Z" fill="#8892BF"/>
<path d="M1302.69 36.1754H1310.55L1308.32 42.9117H1315.38C1319.25 42.9589 1322.14 43.4526 1324.04 44.393C1325.97 45.3332 1326.54 47.1207 1325.74 49.7539L1321.93 61.4982H1313.96L1317.6 50.2828C1317.98 49.107 1317.87 48.2725 1317.26 47.7788C1316.66 47.2851 1315.35 47.0382 1313.33 47.0382L1307.02 47.003L1302.35 61.4982H1294.49L1302.69 36.1754Z" fill="white"/>
<path fill-rule="evenodd" clip-rule="evenodd" d="M1266.7 42.9119H1281.95C1286.43 42.9351 1289.67 43.7349 1291.68 45.31C1293.7 46.8853 1294.36 49.0365 1293.68 51.7642C1293.41 53.0107 1292.82 54.233 1291.91 55.4323C1291.04 56.6313 1289.83 57.7127 1288.27 58.6769C1286.37 59.8994 1284.34 60.6752 1282.18 61.0048C1280.02 61.3341 1277.78 61.4985 1275.46 61.4985H1268.63L1266.47 68.1995H1258.56L1266.7 42.9119ZM1269.94 57.5131L1273.34 46.9678H1274.49C1274.91 46.9678 1275.35 46.9558 1275.8 46.9326C1278.84 46.9091 1281.36 47.0855 1283.37 47.4615C1285.42 47.8375 1286.11 49.2602 1285.42 51.729C1284.59 54.6683 1282.96 56.3845 1280.53 56.8782C1278.1 57.3487 1275.06 57.5718 1271.42 57.5483H1270.62C1270.4 57.5483 1270.17 57.5363 1269.94 57.5131Z" fill="white"/>
<path fill-rule="evenodd" clip-rule="evenodd" d="M1349.43 42.9119H1334.18L1326.04 68.1995H1333.95L1336.11 61.4985H1342.95C1345.26 61.4985 1347.5 61.3341 1349.66 61.0048C1351.83 60.6752 1353.85 59.8994 1355.75 58.6769C1357.31 57.7127 1358.52 56.6313 1359.4 55.4323C1360.31 54.233 1360.9 53.0107 1361.16 51.7642C1361.84 49.0365 1361.18 46.8853 1359.17 45.31C1357.16 43.7349 1353.91 42.9351 1349.43 42.9119ZM1340.83 46.9678L1337.42 57.5131C1337.65 57.5363 1337.88 57.5483 1338.11 57.5483H1338.9C1342.55 57.5718 1345.58 57.3487 1348.01 56.8782C1350.44 56.3845 1352.07 54.6683 1352.91 51.729C1353.59 49.2602 1352.91 47.8375 1350.86 47.4615C1348.85 47.0855 1346.32 46.9091 1343.29 46.9326C1342.83 46.9558 1342.4 46.9678 1341.98 46.9678H1340.83Z" fill="white"/>
<g clip-path="url(#clip1_1_85)">
<path d="M1282.88 133.584C1282.96 133.758 1283 133.938 1283 134.119V162.188C1283 162.922 1282.35 163.599 1281.3 163.964L1242.35 177.528V204.413C1242.35 205.145 1241.71 205.82 1240.66 206.189L1159.36 234.499C1159.18 234.563 1158.97 234.604 1158.77 234.647C1158.69 234.663 1158.62 234.691 1158.54 234.704C1157.97 234.794 1157.38 234.794 1156.81 234.704C1156.71 234.688 1156.63 234.658 1156.54 234.637C1156.35 234.596 1156.16 234.56 1155.98 234.499L1074.7 206.189C1073.65 205.824 1073 205.147 1073 204.413V120.204C1073 120.02 1073.04 119.841 1073.12 119.667C1073.14 119.608 1073.2 119.554 1073.24 119.495C1073.3 119.388 1073.36 119.278 1073.45 119.178C1073.52 119.112 1073.61 119.058 1073.69 118.996C1073.78 118.915 1073.87 118.83 1073.99 118.759C1074.08 118.7 1074.21 118.656 1074.32 118.605C1074.44 118.544 1074.55 118.477 1074.69 118.429H1074.7L1115.34 104.273C1116.39 103.909 1117.68 103.909 1118.72 104.273L1159.37 118.429H1159.37C1159.51 118.48 1159.62 118.544 1159.75 118.603C1159.86 118.654 1159.98 118.7 1160.08 118.756C1160.19 118.83 1160.28 118.915 1160.38 118.996C1160.45 119.058 1160.55 119.112 1160.61 119.178C1160.71 119.28 1160.76 119.388 1160.83 119.495C1160.86 119.554 1160.92 119.608 1160.95 119.669C1161.03 119.844 1161.07 120.023 1161.07 120.204V172.8L1194.93 161.004V134.116C1194.93 133.937 1194.98 133.755 1195.05 133.584C1195.08 133.523 1195.14 133.469 1195.17 133.41C1195.24 133.303 1195.3 133.193 1195.39 133.093C1195.45 133.026 1195.55 132.973 1195.62 132.911C1195.72 132.829 1195.81 132.745 1195.92 132.673C1196.02 132.614 1196.14 132.571 1196.25 132.52C1196.38 132.458 1196.49 132.392 1196.63 132.343H1196.63L1237.28 118.188C1238.32 117.823 1239.61 117.823 1240.66 118.188L1281.3 132.343C1281.45 132.394 1281.56 132.458 1281.68 132.517C1281.79 132.568 1281.91 132.614 1282.01 132.671C1282.13 132.745 1282.21 132.829 1282.31 132.911C1282.39 132.973 1282.48 133.026 1282.54 133.093C1282.64 133.193 1282.7 133.303 1282.76 133.41C1282.8 133.469 1282.86 133.523 1282.88 133.584ZM1276.22 161.004V137.662L1262 142.615L1242.35 149.458V172.8L1276.23 161.004H1276.22ZM1235.58 203.229V179.871L1216.25 186.549L1161.06 205.603V229.18L1235.58 203.229ZM1079.78 123.747V203.229L1154.29 229.178V205.606L1115.36 192.279L1115.35 192.274L1115.33 192.269C1115.2 192.223 1115.09 192.156 1114.97 192.1C1114.86 192.049 1114.74 192.008 1114.65 191.952L1114.64 191.944C1114.53 191.88 1114.45 191.801 1114.36 191.729C1114.27 191.66 1114.17 191.601 1114.1 191.53L1114.1 191.522C1114.02 191.445 1113.98 191.353 1113.92 191.266C1113.87 191.189 1113.8 191.118 1113.76 191.036V191.033C1113.72 190.936 1113.71 190.834 1113.69 190.734C1113.68 190.657 1113.64 190.581 1113.64 190.504V190.499V135.544L1094 128.698L1079.78 123.75V123.747ZM1117.04 108.413L1083.17 120.204L1117.03 131.995L1150.89 120.201L1117.03 108.413H1117.04ZM1134.65 182L1154.29 175.159V123.747L1140.07 128.7L1120.42 135.544V186.955L1134.65 182ZM1238.97 122.327L1205.11 134.119L1238.97 145.91L1272.82 134.116L1238.97 122.327ZM1235.58 149.458L1215.93 142.615L1201.71 137.662V161.004L1221.35 167.845L1235.58 172.8V149.458ZM1157.67 202.06L1207.33 184.909L1232.16 176.338L1198.33 164.555L1159.37 178.122L1123.87 190.486L1157.67 202.06Z" fill="#FF2D20"/>
</g>
<g clip-path="url(#clip2_1_85)">
<path d="M1309.45 235.025C1276.53 235.025 1278.58 244.948 1278.58 244.948L1278.62 255.228H1310.04V258.315H1266.14C1266.14 258.315 1245.07 256.654 1245.07 279.742C1245.07 302.83 1263.46 302.012 1263.46 302.012H1274.44V291.298C1274.44 291.298 1273.84 278.518 1292.53 278.518H1323.69C1323.69 278.518 1341.2 278.714 1341.2 266.758V246.989C1341.2 246.989 1343.86 235.025 1309.45 235.025ZM1292.13 241.938C1295.25 241.938 1297.78 243.694 1297.78 245.866C1297.78 248.039 1295.25 249.795 1292.13 249.795C1289 249.795 1286.47 248.039 1286.47 245.866C1286.47 243.694 1289 241.938 1292.13 241.938Z" fill="url(#paint0_linear_1_85)"/>
<path d="M1310.38 324.692C1343.31 324.692 1341.25 314.769 1341.25 314.769L1341.21 304.488H1309.8V301.402H1353.69C1353.69 301.402 1374.76 303.062 1374.76 279.974C1374.76 256.886 1356.37 257.705 1356.37 257.705H1345.4V268.419C1345.4 268.419 1345.99 281.199 1327.3 281.199H1296.14C1296.14 281.199 1278.64 281.002 1278.64 292.958V312.728C1278.64 312.728 1275.98 324.692 1310.38 324.692ZM1327.71 317.779C1324.58 317.779 1322.06 316.023 1322.06 313.85C1322.06 311.678 1324.58 309.922 1327.71 309.922C1330.83 309.922 1333.36 311.678 1333.36 313.85C1333.36 316.023 1330.83 317.779 1327.71 317.779Z" fill="url(#paint1_linear_1_85)"/>
</g>
<defs>
<linearGradient id="paint0_linear_1_85" x1="4435.65" y1="2291.66" x2="15205.7" y2="17573.1" gradientUnits="userSpaceOnUse">
<stop stop-color="#387EB8"/>
<stop offset="1" stop-color="#366994"/>
</linearGradient>
<linearGradient id="paint1_linear_1_85" x1="5987.76" y1="3773.14" x2="17743.6" y2="19700.3" gradientUnits="userSpaceOnUse">
<stop stop-color="#FFE052"/>
<stop offset="1" stop-color="#FFC331"/>
</linearGradient>
<clipPath id="clip0_1_85">
<rect width="187" height="115" fill="white" transform="translate(166 120)"/>
</clipPath>
<clipPath id="clip1_1_85">
<rect width="210" height="131" fill="white" transform="translate(1073 104)"/>
</clipPath>
<clipPath id="clip2_1_85">
<rect width="130" height="90" fill="white" transform="translate(1245 235)"/>
</clipPath>
</defs>
</svg>
