<svg width="464" height="177" viewBox="0 0 464 177" fill="none" xmlns="http://www.w3.org/2000/svg">
<rect width="463.754" height="177" fill="#011629"/>
<path d="M17.4039 45.2069L13.5428 7.98259H55.9684L52.1021 45.201L34.7298 49.3412L17.4039 45.2069Z" fill="#E44F26"/>
<path d="M34.7556 46.1773L48.7943 42.8317L52.097 11.0269H34.7556V46.1773Z" fill="#F1662A"/>
<path d="M34.7556 24.8318H27.7276L27.2431 20.1568H34.7556V15.5911H34.7367H21.4386L21.5657 16.8171L22.8699 29.3975H34.7556V24.8318Z" fill="#EBEBEB"/>
<path d="M34.7556 36.6885L34.7315 36.6944L28.8171 35.3221L28.439 31.6811H25.5643H23.1071L23.8511 38.848L34.7315 41.4447L34.7556 41.4388V36.6885Z" fill="#EBEBEB"/>
<path d="M34.7367 24.8318V29.3975H41.2766L40.6615 35.3192L34.7367 36.6929V41.4432L45.6257 38.848L45.7048 38.0769L46.9523 26.0578L47.0829 24.8318H45.6515H34.7367Z" fill="white"/>
<path d="M34.7367 15.5911V18.4271V20.1465V20.1568H47.5485H47.5657L47.6723 19.1317L47.9145 16.8171L48.0417 15.5911H34.7367Z" fill="white"/>
<path d="M134.655 65.2046L140.351 47.9077H144.968L150.733 65.2046H147.042L146.081 61.9116H139.284L138.288 65.2046H134.655ZM140.105 59.2163H145.284L142.741 50.5092L140.105 59.2163ZM153.429 52.6186H156.616V53.7319C157.101 53.3178 157.636 52.9819 158.222 52.7241C158.808 52.4663 159.558 52.3374 160.472 52.3374C161.417 52.3374 162.183 52.5132 162.769 52.8647C163.355 53.2085 163.784 53.6694 164.058 54.2475C164.331 54.8257 164.468 55.4702 164.468 56.1811V65.2046H161.28V56.3569C161.28 55.9116 161.163 55.5717 160.929 55.3374C160.702 55.103 160.417 54.9428 160.073 54.8569C159.737 54.771 159.401 54.728 159.065 54.728C158.683 54.728 158.304 54.7983 157.929 54.9389C157.554 55.0796 157.241 55.2866 156.991 55.56C156.741 55.8335 156.616 56.1772 156.616 56.5913V65.2046H153.429V52.6186ZM167.515 64.4897L168.159 62.3217C168.831 62.6108 169.534 62.8413 170.269 63.0132C171.011 63.1772 171.69 63.2592 172.308 63.2592C172.886 63.2592 173.315 63.1225 173.597 62.8491C173.878 62.5678 174.019 62.185 174.019 61.7007C174.019 61.3335 173.937 61.0483 173.773 60.8452C173.616 60.6342 173.343 60.4663 172.952 60.3413L170.187 59.4741C169.194 59.1616 168.511 58.7007 168.136 58.0913C167.769 57.4819 167.585 56.7553 167.585 55.9116C167.585 54.7085 168.007 53.8139 168.851 53.228C169.702 52.6421 170.788 52.3491 172.108 52.3491C173.187 52.3491 174.101 52.4624 174.851 52.6889C175.601 52.9155 176.202 53.1577 176.655 53.4155L175.905 55.396C175.663 55.2632 175.343 55.1342 174.944 55.0092C174.546 54.8842 174.12 54.7827 173.667 54.7046C173.222 54.6186 172.8 54.5757 172.401 54.5757C171.73 54.5757 171.269 54.6928 171.019 54.9272C170.769 55.1616 170.644 55.4858 170.644 55.8999C170.644 56.1655 170.706 56.3999 170.831 56.603C170.956 56.7983 171.179 56.9467 171.499 57.0483L174.101 57.8686C175.163 58.2046 175.901 58.6733 176.315 59.2749C176.73 59.8764 176.937 60.6694 176.937 61.6538C176.937 62.7163 176.562 63.6186 175.812 64.3608C175.062 65.103 173.933 65.4741 172.425 65.4741C171.362 65.4741 170.44 65.3921 169.659 65.228C168.886 65.0717 168.171 64.8257 167.515 64.4897ZM179.796 47.4507H182.983V53.8374C183.257 53.3999 183.761 53.0444 184.495 52.771C185.237 52.4897 186.046 52.3491 186.921 52.3491C188.132 52.3491 189.081 52.6733 189.769 53.3217C190.464 53.9702 190.812 54.8257 190.812 55.8882V65.2046H187.624V56.3452C187.624 55.8999 187.515 55.5639 187.296 55.3374C187.077 55.103 186.804 54.9428 186.476 54.8569C186.148 54.771 185.815 54.728 185.48 54.728C185.097 54.728 184.714 54.7983 184.331 54.9389C183.948 55.0717 183.628 55.2749 183.37 55.5483C183.112 55.8139 182.983 56.1499 182.983 56.5561V65.2046H179.796V47.4507ZM198.276 65.4741C197.073 65.4741 196.12 65.1264 195.417 64.4311C194.722 63.7358 194.374 62.8569 194.374 61.7944V52.6186H197.562V61.2788C197.562 61.7163 197.671 62.0678 197.89 62.3335C198.108 62.5913 198.382 62.7788 198.71 62.896C199.038 63.0132 199.366 63.0717 199.694 63.0717C200.085 63.0717 200.472 63.0053 200.855 62.8725C201.237 62.7397 201.554 62.5288 201.804 62.2397C202.062 61.9507 202.19 61.5717 202.19 61.103V52.6186H205.378V65.2046H202.378L202.284 63.8217C202.034 64.3452 201.523 64.7514 200.749 65.0405C199.976 65.3296 199.151 65.4741 198.276 65.4741ZM209.187 61.0678V47.4507H212.374V61.021C212.374 61.7085 212.534 62.2085 212.855 62.521C213.183 62.8257 213.773 62.978 214.624 62.978H215.023L214.776 65.3452H213.44C212.042 65.3452 210.983 65.0288 210.265 64.396C209.546 63.7553 209.187 62.646 209.187 61.0678ZM223.835 65.2046V47.9077H227.667L232.554 56.3335L237.44 47.9077H241.343V65.2046H238.085V52.4194L233.761 60.1772H231.429L227.093 52.7124V65.2046H223.835ZM250.483 65.4741C248.499 65.4741 247.093 65.1069 246.265 64.3725C245.437 63.6382 245.023 62.646 245.023 61.396V56.4389C245.023 55.1577 245.499 54.1577 246.452 53.4389C247.413 52.7124 248.757 52.3491 250.483 52.3491C252.202 52.3491 253.542 52.7124 254.503 53.4389C255.464 54.1577 255.944 55.1577 255.944 56.4389V61.396C255.944 62.2241 255.773 62.9467 255.429 63.5639C255.085 64.1733 254.515 64.646 253.718 64.9819C252.929 65.31 251.851 65.4741 250.483 65.4741ZM250.483 63.2592C251.163 63.2592 251.71 63.1342 252.124 62.8842C252.546 62.6264 252.757 62.1772 252.757 61.5366V56.2983C252.757 55.6577 252.558 55.2124 252.159 54.9624C251.761 54.7046 251.202 54.5757 250.483 54.5757C249.796 54.5757 249.245 54.7046 248.831 54.9624C248.417 55.2124 248.21 55.6577 248.21 56.2983V61.5366C248.21 62.1772 248.405 62.6264 248.796 62.8842C249.187 63.1342 249.749 63.2592 250.483 63.2592ZM259.296 47.4389H262.483V58.1499L267.464 52.6186H271.097L266.362 58.0444L271.308 65.2046H267.827L263.89 59.3803L262.483 60.8217V65.2046H259.296V47.4389ZM273.358 47.4507H276.546V53.8374C276.819 53.3999 277.323 53.0444 278.058 52.771C278.8 52.4897 279.608 52.3491 280.483 52.3491C281.694 52.3491 282.644 52.6733 283.331 53.3217C284.026 53.9702 284.374 54.8257 284.374 55.8882V65.2046H281.187V56.3452C281.187 55.8999 281.077 55.5639 280.858 55.3374C280.64 55.103 280.366 54.9428 280.038 54.8569C279.71 54.771 279.378 54.728 279.042 54.728C278.659 54.728 278.276 54.7983 277.894 54.9389C277.511 55.0717 277.19 55.2749 276.933 55.5483C276.675 55.8139 276.546 56.1499 276.546 56.5561V65.2046H273.358V47.4507ZM291.112 65.4741C290.034 65.4741 289.155 65.1616 288.476 64.5366C287.804 63.9116 287.468 63.0796 287.468 62.0405C287.468 61.4467 287.589 60.9194 287.831 60.4585C288.073 59.9975 288.515 59.5717 289.155 59.1811C289.796 58.7827 290.714 58.396 291.909 58.021C292.886 57.7085 293.605 57.4194 294.065 57.1538C294.534 56.8882 294.769 56.5366 294.769 56.0991C294.769 55.5913 294.616 55.2124 294.312 54.9624C294.015 54.7046 293.507 54.5757 292.788 54.5757C291.991 54.5757 291.464 54.7319 291.206 55.0444C290.956 55.3569 290.831 55.7553 290.831 56.2397V56.7319H287.843V56.3569C287.843 55.1382 288.249 54.1655 289.062 53.4389C289.874 52.7124 291.14 52.3491 292.858 52.3491C294.116 52.3491 295.112 52.5249 295.847 52.8764C296.581 53.228 297.108 53.7241 297.429 54.3647C297.749 54.9975 297.909 55.7475 297.909 56.6147V61.5952C297.909 62.1655 297.98 62.5405 298.12 62.7202C298.269 62.8921 298.538 62.978 298.929 62.978L298.8 65.2983H298.132C297.257 65.2983 296.577 65.1772 296.093 64.935C295.608 64.6928 295.253 64.3178 295.026 63.81C294.69 64.2553 294.183 64.646 293.503 64.9819C292.831 65.31 292.034 65.4741 291.112 65.4741ZM292.179 63.353C292.569 63.353 293.026 63.2436 293.55 63.0249C294.073 62.8061 294.48 62.4702 294.769 62.0171V58.8296C294.558 59.0014 294.222 59.1928 293.761 59.4038C293.3 59.6069 292.804 59.8061 292.273 60.0014C291.577 60.2592 291.12 60.5444 290.901 60.8569C290.683 61.1694 290.573 61.5053 290.573 61.8647C290.573 62.3725 290.722 62.7475 291.019 62.9897C291.315 63.2319 291.702 63.353 292.179 63.353ZM301.835 61.0678V47.4507H305.023V61.021C305.023 61.7085 305.183 62.2085 305.503 62.521C305.831 62.8257 306.421 62.978 307.273 62.978H307.671L307.425 65.3452H306.089C304.69 65.3452 303.632 65.0288 302.913 64.396C302.194 63.7553 301.835 62.646 301.835 61.0678ZM309.663 61.2671V56.3569C309.663 55.0757 310.148 54.0874 311.116 53.3921C312.093 52.6967 313.398 52.3491 315.03 52.3491C316.968 52.3491 318.343 52.7202 319.155 53.4624C319.976 54.2046 320.386 55.2085 320.386 56.4741V59.521H312.851V61.5717C312.851 62.3139 313.042 62.7827 313.425 62.978C313.808 63.1655 314.378 63.2592 315.136 63.2592C316.042 63.2592 316.648 63.1342 316.952 62.8842C317.265 62.6264 317.421 62.1108 317.421 61.3374H320.374C320.374 62.8921 319.937 63.9702 319.062 64.5717C318.187 65.1733 316.858 65.4741 315.077 65.4741C314.054 65.4741 313.132 65.3491 312.312 65.0991C311.491 64.8413 310.843 64.4077 310.366 63.7983C309.898 63.1889 309.663 62.3452 309.663 61.2671ZM317.374 57.5757V56.0991C317.374 55.6303 317.273 55.2905 317.069 55.0796C316.874 54.8608 316.605 54.7241 316.261 54.6694C315.925 54.6069 315.542 54.5757 315.112 54.5757C314.472 54.5757 313.933 54.6733 313.495 54.8686C313.065 55.0561 312.851 55.4858 312.851 56.1577V57.5757H317.374Z" fill="white"/>
<path d="M151.107 107.5L155.318 96.2031H156.7L160.919 107.5H159.318L158.56 105.297H153.505L152.739 107.5H151.107ZM153.911 104.141H158.161L156.052 98.0078L153.911 104.141ZM167.833 100.328H166.45V99.2188H167.833V97.9609C167.833 97.1849 168.044 96.6224 168.466 96.2734C168.893 95.9193 169.531 95.7422 170.38 95.7422H171.31L171.403 96.7813H170.497C170.049 96.7813 169.737 96.8802 169.56 97.0781C169.388 97.276 169.302 97.5234 169.302 97.8203V99.2188H171.31V100.328H169.302V107.5H167.833V100.328ZM175.989 107.672C175.312 107.672 174.763 107.56 174.341 107.336C173.924 107.112 173.62 106.815 173.427 106.445C173.234 106.076 173.138 105.672 173.138 105.234V99.2188H174.607V105.242C174.607 105.654 174.758 105.974 175.06 106.203C175.362 106.432 175.768 106.547 176.278 106.547C176.997 106.547 177.531 106.391 177.88 106.078C178.229 105.766 178.403 105.435 178.403 105.086V99.2188H179.872V107.5H178.56L178.403 106.461C178.195 106.831 177.89 107.125 177.489 107.344C177.094 107.563 176.594 107.672 175.989 107.672ZM182.81 104.703V95.7422H184.278V104.719C184.278 105.167 184.32 105.508 184.403 105.742C184.487 105.971 184.638 106.128 184.857 106.211C185.075 106.289 185.39 106.328 185.802 106.328H186.06L185.888 107.563H185.466C184.862 107.563 184.362 107.492 183.966 107.352C183.575 107.211 183.284 106.935 183.091 106.523C182.903 106.112 182.81 105.505 182.81 104.703ZM188.247 104.703V95.7422H189.716V104.719C189.716 105.167 189.758 105.508 189.841 105.742C189.924 105.971 190.075 106.128 190.294 106.211C190.513 106.289 190.828 106.328 191.239 106.328H191.497L191.325 107.563H190.903C190.299 107.563 189.799 107.492 189.403 107.352C189.013 107.211 188.721 106.935 188.528 106.523C188.341 106.112 188.247 105.505 188.247 104.703ZM197.31 107L197.669 105.922C197.851 106.021 198.166 106.151 198.614 106.313C199.062 106.469 199.568 106.547 200.13 106.547C200.781 106.547 201.221 106.427 201.45 106.188C201.679 105.948 201.794 105.654 201.794 105.305C201.794 104.982 201.75 104.727 201.661 104.539C201.578 104.352 201.341 104.185 200.95 104.039L198.982 103.32C198.383 103.102 197.963 102.844 197.724 102.547C197.484 102.25 197.364 101.844 197.364 101.328C197.364 100.63 197.557 100.078 197.943 99.6719C198.328 99.2656 199.031 99.0625 200.052 99.0625C200.635 99.0625 201.169 99.1094 201.653 99.2031C202.143 99.2917 202.539 99.3958 202.841 99.5156L202.505 100.641C202.349 100.573 202.143 100.505 201.888 100.438C201.633 100.37 201.367 100.313 201.091 100.266C200.815 100.214 200.56 100.188 200.325 100.188C199.653 100.188 199.219 100.273 199.021 100.445C198.828 100.612 198.732 100.883 198.732 101.258C198.732 101.513 198.778 101.703 198.872 101.828C198.971 101.948 199.161 102.063 199.443 102.172L201.388 102.93C201.851 103.107 202.2 103.297 202.435 103.5C202.674 103.698 202.836 103.938 202.919 104.219C203.002 104.5 203.044 104.857 203.044 105.289C203.044 105.721 202.953 106.12 202.771 106.484C202.594 106.844 202.304 107.133 201.903 107.352C201.508 107.565 200.982 107.672 200.325 107.672C199.554 107.672 198.906 107.586 198.38 107.414C197.854 107.242 197.497 107.104 197.31 107ZM205.958 105.133V100.328H204.575V99.2188H206.013L206.193 96.6563H207.427V99.2188H209.505V100.328H207.427V105.039C207.427 105.586 207.588 105.938 207.911 106.094C208.234 106.25 208.745 106.328 209.443 106.328H209.607L209.45 107.563H209.232C208.101 107.563 207.273 107.385 206.747 107.031C206.221 106.677 205.958 106.044 205.958 105.133ZM214.083 107.672C213.474 107.672 212.976 107.568 212.591 107.359C212.211 107.146 211.929 106.867 211.747 106.523C211.57 106.174 211.482 105.802 211.482 105.406C211.482 104.99 211.562 104.641 211.724 104.359C211.89 104.073 212.2 103.815 212.653 103.586C213.112 103.352 213.781 103.107 214.661 102.852C215.12 102.716 215.487 102.596 215.763 102.492C216.039 102.388 216.239 102.255 216.364 102.094C216.489 101.932 216.552 101.701 216.552 101.398C216.552 101.174 216.515 100.971 216.443 100.789C216.375 100.607 216.232 100.461 216.013 100.352C215.799 100.242 215.471 100.188 215.028 100.188C214.476 100.188 214.073 100.245 213.818 100.359C213.562 100.474 213.398 100.625 213.325 100.813C213.258 100.995 213.224 101.198 213.224 101.422V101.789H211.81V101.414C211.81 100.596 212.083 100 212.63 99.625C213.177 99.25 213.992 99.0625 215.075 99.0625C216.169 99.0625 216.932 99.3177 217.364 99.8281C217.802 100.339 218.021 101.021 218.021 101.875V105.406C218.021 105.844 218.075 106.125 218.185 106.25C218.299 106.375 218.534 106.438 218.888 106.438L218.716 107.563H218.419C217.867 107.563 217.469 107.456 217.224 107.242C216.979 107.023 216.794 106.719 216.669 106.328C216.549 106.516 216.383 106.714 216.169 106.922C215.961 107.13 215.687 107.307 215.349 107.453C215.015 107.599 214.594 107.672 214.083 107.672ZM214.263 106.578C214.56 106.578 214.87 106.516 215.193 106.391C215.515 106.26 215.802 106.091 216.052 105.883C216.307 105.669 216.474 105.435 216.552 105.18V103C216.437 103.115 216.237 103.266 215.95 103.453C215.669 103.635 215.265 103.802 214.739 103.953C214.099 104.135 213.627 104.323 213.325 104.516C213.028 104.708 212.88 104.99 212.88 105.359C212.88 105.776 212.987 106.083 213.2 106.281C213.419 106.479 213.773 106.578 214.263 106.578ZM224.13 107.672C223.307 107.672 222.648 107.542 222.153 107.281C221.664 107.016 221.31 106.667 221.091 106.234C220.872 105.797 220.763 105.323 220.763 104.813V101.656C220.763 100.875 221.06 100.247 221.653 99.7734C222.252 99.2995 223.065 99.0625 224.091 99.0625C224.752 99.0625 225.328 99.1406 225.818 99.2969C226.307 99.4479 226.685 99.724 226.95 100.125C227.221 100.526 227.357 101.099 227.357 101.844L225.958 101.977C225.958 101.471 225.901 101.091 225.786 100.836C225.672 100.581 225.482 100.409 225.216 100.32C224.95 100.232 224.588 100.188 224.13 100.188C223.5 100.188 223.026 100.302 222.708 100.531C222.39 100.755 222.232 101.143 222.232 101.695V104.938C222.232 105.531 222.398 105.948 222.732 106.188C223.07 106.427 223.536 106.547 224.13 106.547C224.614 106.547 224.982 106.513 225.232 106.445C225.487 106.372 225.666 106.232 225.771 106.023C225.875 105.81 225.945 105.495 225.982 105.078H227.341C227.289 105.714 227.153 106.221 226.935 106.602C226.716 106.982 226.38 107.255 225.927 107.422C225.479 107.589 224.88 107.672 224.13 107.672ZM229.7 95.7422H231.169V103.406L235.13 99.2188H236.739L233.372 102.859L237.075 107.5H235.38L232.411 103.656L231.169 104.891V107.5H229.7V95.7422ZM242.357 104.883V101.758C242.357 100.924 242.633 100.268 243.185 99.7891C243.737 99.3047 244.614 99.0625 245.818 99.0625C246.078 99.0625 246.385 99.0912 246.739 99.1484C247.094 99.2057 247.398 99.2813 247.653 99.375V95.7422H249.122V107.5H248.122L247.88 106.953C247.64 107.141 247.312 107.307 246.896 107.453C246.484 107.599 246.065 107.672 245.638 107.672C244.846 107.672 244.208 107.549 243.724 107.305C243.245 107.06 242.896 106.729 242.677 106.313C242.463 105.891 242.357 105.414 242.357 104.883ZM247.653 106.023V100.531C247.435 100.427 247.161 100.344 246.833 100.281C246.51 100.219 246.177 100.188 245.833 100.188C245.255 100.188 244.776 100.294 244.396 100.508C244.015 100.721 243.825 101.083 243.825 101.594V104.992C243.825 105.508 244.008 105.891 244.372 106.141C244.742 106.391 245.195 106.516 245.732 106.516C246.148 106.516 246.531 106.458 246.88 106.344C247.229 106.229 247.487 106.122 247.653 106.023ZM251.732 104.578V101.695C251.732 100.914 252 100.281 252.536 99.7969C253.073 99.3073 253.935 99.0625 255.122 99.0625C256.258 99.0625 257.094 99.2865 257.63 99.7344C258.166 100.177 258.435 100.792 258.435 101.578V103.547H253.2V104.711C253.2 105.383 253.333 105.857 253.599 106.133C253.87 106.409 254.396 106.547 255.177 106.547C255.64 106.547 256.005 106.531 256.271 106.5C256.541 106.464 256.739 106.359 256.864 106.188C256.995 106.01 257.081 105.714 257.122 105.297H258.419C258.351 105.948 258.208 106.445 257.989 106.789C257.776 107.128 257.445 107.359 256.997 107.484C256.549 107.609 255.943 107.672 255.177 107.672C253.943 107.672 253.06 107.414 252.528 106.898C251.997 106.383 251.732 105.609 251.732 104.578ZM257.013 102.555V101.422C257.013 100.922 256.838 100.591 256.489 100.43C256.146 100.268 255.69 100.188 255.122 100.188C254.539 100.188 254.073 100.289 253.724 100.492C253.375 100.695 253.2 101.052 253.2 101.563V102.555H257.013ZM259.966 99.2188H261.443L263.935 105.938L266.153 99.2188H267.591L264.661 107.5H263.177L259.966 99.2188ZM269.575 104.703V95.7422H271.044V104.719C271.044 105.167 271.086 105.508 271.169 105.742C271.252 105.971 271.403 106.128 271.622 106.211C271.841 106.289 272.156 106.328 272.568 106.328H272.825L272.653 107.563H272.232C271.627 107.563 271.127 107.492 270.732 107.352C270.341 107.211 270.049 106.935 269.857 106.523C269.669 106.112 269.575 105.505 269.575 104.703ZM278.114 107.672C277.286 107.672 276.62 107.56 276.114 107.336C275.614 107.107 275.25 106.794 275.021 106.398C274.797 106.003 274.685 105.549 274.685 105.039V101.703C274.685 101.193 274.797 100.74 275.021 100.344C275.25 99.9427 275.614 99.6302 276.114 99.4063C276.62 99.1771 277.286 99.0625 278.114 99.0625C278.937 99.0625 279.599 99.1771 280.099 99.4063C280.604 99.6302 280.971 99.9427 281.2 100.344C281.429 100.74 281.544 101.193 281.544 101.703V105.039C281.544 105.549 281.429 106.003 281.2 106.398C280.971 106.794 280.604 107.107 280.099 107.336C279.599 107.56 278.937 107.672 278.114 107.672ZM278.114 106.547C278.687 106.547 279.156 106.445 279.521 106.242C279.89 106.034 280.075 105.674 280.075 105.164V101.578C280.075 101.068 279.89 100.708 279.521 100.5C279.156 100.292 278.687 100.188 278.114 100.188C277.531 100.188 277.057 100.292 276.693 100.5C276.333 100.708 276.153 101.068 276.153 101.578V105.164C276.153 105.674 276.333 106.034 276.693 106.242C277.057 106.445 277.531 106.547 278.114 106.547ZM284.153 110.688V99.2188H285.31L285.482 99.8438C285.7 99.6458 286.015 99.4662 286.427 99.3047C286.844 99.1432 287.289 99.0625 287.763 99.0625C288.82 99.0625 289.607 99.3203 290.122 99.8359C290.643 100.352 290.903 101.008 290.903 101.805V104.813C290.903 105.646 290.617 106.331 290.044 106.867C289.476 107.404 288.653 107.672 287.575 107.672C287.112 107.672 286.719 107.622 286.396 107.523C286.078 107.43 285.82 107.333 285.622 107.234V110.688H284.153ZM287.482 106.547C288.06 106.547 288.528 106.411 288.888 106.141C289.252 105.865 289.435 105.474 289.435 104.969V101.688C289.435 101.193 289.252 100.82 288.888 100.57C288.528 100.315 288.078 100.188 287.536 100.188C287.193 100.188 286.883 100.247 286.607 100.367C286.336 100.482 286.114 100.609 285.943 100.75C285.776 100.891 285.669 100.995 285.622 101.063V106.102C285.81 106.206 286.06 106.307 286.372 106.406C286.685 106.5 287.054 106.547 287.482 106.547ZM293.216 104.578V101.695C293.216 100.914 293.484 100.281 294.021 99.7969C294.557 99.3073 295.419 99.0625 296.607 99.0625C297.742 99.0625 298.578 99.2865 299.114 99.7344C299.651 100.177 299.919 100.792 299.919 101.578V103.547H294.685V104.711C294.685 105.383 294.818 105.857 295.083 106.133C295.354 106.409 295.88 106.547 296.661 106.547C297.125 106.547 297.489 106.531 297.755 106.5C298.026 106.464 298.224 106.359 298.349 106.188C298.479 106.01 298.565 105.714 298.607 105.297H299.903C299.836 105.948 299.693 106.445 299.474 106.789C299.26 107.128 298.929 107.359 298.482 107.484C298.034 107.609 297.427 107.672 296.661 107.672C295.427 107.672 294.544 107.414 294.013 106.898C293.482 106.383 293.216 105.609 293.216 104.578ZM298.497 102.555V101.422C298.497 100.922 298.323 100.591 297.974 100.43C297.63 100.268 297.174 100.188 296.607 100.188C296.023 100.188 295.557 100.289 295.208 100.492C294.859 100.695 294.685 101.052 294.685 101.563V102.555H298.497ZM302.403 99.2188H303.872V100.391C303.992 100.078 304.208 99.8281 304.521 99.6406C304.838 99.4479 305.198 99.3099 305.599 99.2266C306 99.1432 306.383 99.1016 306.747 99.1016L306.7 100.359C306.232 100.359 305.781 100.424 305.349 100.555C304.916 100.68 304.562 100.844 304.286 101.047C304.01 101.25 303.872 101.469 303.872 101.703V107.5H302.403V99.2188Z" fill="white"/>
<g clip-path="url(#clip0_1_85)">
<path d="M104.277 79.6393C103.642 79.4377 102.984 79.247 102.307 79.0666C102.418 78.6474 102.52 78.2337 102.611 77.827C104.103 71.1487 103.127 65.7686 99.7971 63.9972C96.6039 62.2987 91.3815 64.0697 86.1072 68.3034C85.6 68.7105 85.0914 69.1415 84.583 69.5933C84.2443 69.2944 83.9061 69.0056 83.5688 68.7293C78.0411 64.2023 72.5005 62.2946 69.1736 64.0711C65.9833 65.7745 65.0386 70.8323 66.3813 77.1614C66.5109 77.7727 66.6625 78.397 66.8339 79.0317C66.0497 79.237 65.2927 79.4559 64.5683 79.6888C58.0878 81.7728 53.949 85.0389 53.949 88.4268C53.949 91.9258 58.392 95.4353 65.142 97.5633C65.6747 97.7313 66.2274 97.8901 66.797 98.0408C66.6121 98.7273 66.4513 99.4 66.3163 100.056C65.0361 106.275 66.0359 111.214 69.2176 112.906C72.504 114.654 78.0195 112.858 83.3903 108.527C83.8148 108.185 84.2408 107.822 84.6676 107.442C85.2207 107.933 85.773 108.398 86.3224 108.834C91.5246 112.963 96.6626 114.631 99.8414 112.933C103.125 111.18 104.192 105.875 102.806 99.4209C102.7 98.928 102.577 98.4244 102.439 97.9119C102.826 97.8062 103.207 97.6972 103.577 97.5839C110.595 95.4393 115.16 91.9725 115.16 88.4268C115.16 85.0267 110.888 81.7385 104.277 79.6393ZM102.755 95.2944C102.42 95.3966 102.077 95.4954 101.727 95.5912C100.952 93.3291 99.9067 90.9237 98.6273 88.4385C99.8482 86.0125 100.853 83.6379 101.606 81.3905C102.232 81.5576 102.84 81.7339 103.426 81.9199C109.09 83.7185 112.545 86.3777 112.545 88.4268C112.545 90.6094 108.814 93.4427 102.755 95.2944ZM100.241 99.8893C100.854 102.743 100.941 105.324 100.535 107.341C100.171 109.153 99.4376 110.362 98.5311 110.846C96.602 111.876 92.4767 110.537 88.0278 107.006C87.5177 106.601 87.004 106.169 86.4886 105.711C88.2134 103.971 89.9372 101.949 91.6196 99.7023C94.5787 99.4601 97.3744 99.0642 99.9097 98.5236C100.035 98.9882 100.145 99.4438 100.241 99.8893ZM74.8173 110.668C72.9326 111.282 71.4316 111.299 70.5242 110.817C68.5934 109.79 67.7907 105.825 68.8856 100.506C69.011 99.8969 69.1603 99.2712 69.3323 98.6316C71.8398 99.1431 74.615 99.5111 77.5812 99.7329C79.2749 101.931 81.0485 103.952 82.8358 105.721C82.4453 106.068 82.0563 106.399 81.6696 106.711C79.2946 108.626 76.9147 109.985 74.8173 110.668ZM65.9877 95.2811C63.003 94.3401 60.5381 93.1172 58.8485 91.7827C57.3303 90.5834 56.5638 89.3929 56.5638 88.4268C56.5638 86.3709 59.8869 83.7486 65.4291 81.9663C66.1016 81.7501 66.8055 81.5463 67.5361 81.3548C68.302 83.653 69.3068 86.0558 70.5194 88.4855C69.2911 90.9513 68.2721 93.3923 67.4986 95.7174C66.9778 95.5793 66.4732 95.434 65.9877 95.2811ZM68.9475 76.6982C67.7971 71.2756 68.5611 67.185 70.4836 66.1585C72.5315 65.065 77.0598 66.6241 81.8324 70.5329C82.1375 70.7827 82.4438 71.0442 82.7509 71.3148C80.9725 73.0762 79.2151 75.0815 77.5364 77.2667C74.6576 77.5128 71.9019 77.9082 69.3683 78.4376C69.209 77.8466 69.0679 77.2659 68.9475 76.6982ZM95.3513 82.7118C94.7456 81.7469 94.1238 80.8047 93.4899 79.8883C95.4429 80.116 97.3141 80.4183 99.0714 80.7882C98.5438 82.3477 97.8863 83.9783 97.1122 85.6499C96.557 84.6775 95.9697 83.6972 95.3513 82.7118ZM84.5839 73.0385C85.79 74.2438 86.9979 75.5894 88.186 77.0494C86.9888 76.9973 85.7767 76.9701 84.5547 76.9701C83.3442 76.9701 82.1411 76.9967 80.9513 77.0479C82.1406 75.6015 83.3589 74.2576 84.5839 73.0385ZM73.7475 82.7285C73.1425 83.6962 72.5661 84.6712 72.0196 85.648C71.2581 83.9823 70.6067 82.3443 70.0745 80.7627C71.821 80.4022 73.6833 80.1074 75.6239 79.884C74.9811 80.8089 74.3542 81.7582 73.7475 82.7285ZM75.6798 97.1416C73.6748 96.9352 71.7845 96.6557 70.0385 96.3051C70.5791 94.6953 71.2449 93.0223 72.0225 91.3207C72.5705 92.2968 73.1491 93.2722 73.7579 94.242C74.3779 95.23 75.0204 96.1978 75.6798 97.1416ZM84.6562 103.985C83.4169 102.752 82.1807 101.387 80.9733 99.9198C82.1454 99.9622 83.3403 99.9839 84.5547 99.9839C85.8023 99.9839 87.0357 99.958 88.2497 99.9081C87.0577 101.402 85.8542 102.769 84.6562 103.985ZM97.1372 91.234C97.9553 92.954 98.645 94.6182 99.1926 96.2006C97.4179 96.5741 95.5017 96.8748 93.4827 97.0983C94.1181 96.1696 94.7454 95.2112 95.3618 94.2254C95.9853 93.2281 96.5774 92.2293 97.1372 91.234ZM93.0967 93.0205C92.1398 94.5508 91.1575 96.0116 90.1602 97.3905C88.3438 97.5103 86.4673 97.572 84.5547 97.572C82.6498 97.572 80.7969 97.5174 79.0127 97.4106C77.9752 96.0136 76.9715 94.5484 76.0208 93.0337C75.0725 91.523 74.2 89.9996 73.4092 88.4847C74.1998 86.9663 75.0702 85.4411 76.013 83.9332L76.0128 83.9335C76.9581 82.4215 77.953 80.9635 78.9809 79.5752C80.8013 79.4483 82.668 79.3821 84.5546 79.3821C86.4496 79.3821 88.3189 79.4488 90.1388 79.5768C91.151 80.9549 92.1391 82.4082 93.0881 83.9204C94.0479 85.4496 94.9295 86.9645 95.7269 88.4504C94.9319 89.9618 94.0522 91.492 93.0967 93.0205ZM98.491 66.0867C100.541 67.177 101.338 71.5742 100.05 77.3402C99.9678 77.7081 99.8753 78.0828 99.7749 78.4626C97.2354 77.9221 94.4777 77.52 91.5905 77.2701C89.9085 75.0609 88.1656 73.0525 86.4161 71.3137C86.8864 70.8963 87.3562 70.4983 87.8239 70.1228C92.3429 66.4954 96.5666 65.0632 98.491 66.0867ZM84.5547 83.3852C87.5734 83.3852 90.0207 85.6423 90.0207 88.4268C90.0207 91.2111 87.5734 93.4684 84.5547 93.4684C81.536 93.4684 79.0887 91.2111 79.0887 88.4268C79.0887 85.6423 81.536 83.3852 84.5547 83.3852Z" fill="#00D8FF"/>
</g>
<g clip-path="url(#clip1_1_85)">
<path d="M16.5773 160.088H17.9264C18.5411 160.088 18.9875 160.172 19.265 160.342C19.5429 160.512 19.6817 160.781 19.6817 161.151C19.6817 161.402 19.6207 161.608 19.4991 161.769C19.3775 161.93 19.2158 162.027 19.0141 162.06V162.088C19.289 162.148 19.4871 162.259 19.6087 162.422C19.7303 162.584 19.7912 162.801 19.7912 163.071C19.7912 163.455 19.6486 163.754 19.3626 163.968C19.077 164.183 18.6889 164.29 18.1987 164.29H16.5773V160.088ZM17.4965 161.752H18.0301C18.2791 161.752 18.4597 161.715 18.5712 161.64C18.6831 161.565 18.7388 161.442 18.7388 161.269C18.7388 161.108 18.6782 160.993 18.5566 160.923C18.4351 160.853 18.2428 160.818 17.9799 160.818H17.4965V161.752ZM17.4965 162.459V163.554H18.0956C18.3485 163.554 18.5352 163.508 18.6562 163.414C18.7771 163.32 18.8371 163.176 18.8371 162.982C18.8371 162.634 18.58 162.459 18.0661 162.459H17.4965ZM24.5922 162.183C24.5922 162.879 24.4142 163.414 24.0585 163.787C23.7029 164.161 23.1929 164.348 22.5286 164.348C21.8643 164.348 21.3543 164.161 20.9986 163.787C20.6426 163.414 20.465 162.877 20.465 162.177C20.465 161.478 20.6433 160.944 21.0002 160.575C21.3572 160.206 21.8685 160.022 22.5347 160.022C23.201 160.022 23.7103 160.208 24.0634 160.579C24.4158 160.951 24.5922 161.486 24.5922 162.183ZM21.4285 162.183C21.4285 162.653 21.5203 163.006 21.7044 163.244C21.8882 163.481 22.1629 163.6 22.5286 163.6C23.2619 163.6 23.6286 163.128 23.6286 162.183C23.6286 161.237 23.2639 160.763 22.5344 160.763C22.1687 160.763 21.8928 160.882 21.707 161.121C21.5212 161.36 21.4285 161.714 21.4285 162.183ZM29.4259 162.183C29.4259 162.879 29.2479 163.414 28.8922 163.787C28.5366 164.161 28.0266 164.348 27.3623 164.348C26.6979 164.348 26.188 164.161 25.8323 163.787C25.4763 163.414 25.2986 162.877 25.2986 162.177C25.2986 161.478 25.477 160.944 25.8339 160.575C26.1909 160.206 26.7022 160.022 27.3684 160.022C28.0347 160.022 28.544 160.208 28.8971 160.579C29.2492 160.951 29.4259 161.486 29.4259 162.183ZM26.2619 162.183C26.2619 162.653 26.3536 163.006 26.5378 163.244C26.7216 163.481 26.9962 163.6 27.3619 163.6C28.0953 163.6 28.462 163.128 28.462 162.183C28.462 161.237 28.0972 160.763 27.3678 160.763C27.0021 160.763 26.7261 160.882 26.5404 161.121C26.3546 161.36 26.2619 161.714 26.2619 162.183ZM31.9966 164.29H31.0774V160.829H29.9002V160.088H33.1738V160.829H31.9966V164.29ZM36.3997 163.123C36.3997 163.503 36.259 163.802 35.9772 164.02C35.6955 164.239 35.3035 164.348 34.8016 164.348C34.339 164.348 33.9298 164.263 33.5742 164.095V163.267C33.8666 163.393 34.1143 163.483 34.3169 163.535C34.5196 163.586 34.7047 163.612 34.873 163.612C35.0746 163.612 35.2293 163.575 35.3369 163.5C35.4449 163.425 35.4987 163.315 35.4987 163.167C35.4987 163.084 35.475 163.011 35.4277 162.947C35.3804 162.883 35.3107 162.821 35.2186 162.761C35.1265 162.702 34.9394 162.607 34.6567 162.477C34.3918 162.356 34.1931 162.24 34.0608 162.129C33.9282 162.018 33.8225 161.889 33.7434 161.741C33.6643 161.594 33.6247 161.421 33.6247 161.224C33.6247 160.852 33.7548 160.56 34.0148 160.347C34.2748 160.134 34.634 160.028 35.0928 160.028C35.3181 160.028 35.5331 160.054 35.7376 160.106C35.9422 160.158 36.1562 160.23 36.3796 160.324L36.0829 161.017C35.8518 160.925 35.6605 160.861 35.5091 160.824C35.3577 160.788 35.2092 160.77 35.063 160.77C34.8889 160.77 34.7556 160.809 34.6626 160.887C34.5695 160.966 34.5231 161.068 34.5231 161.195C34.5231 161.274 34.5419 161.342 34.5796 161.401C34.6172 161.459 34.6768 161.516 34.7588 161.57C34.8409 161.625 35.0351 161.723 35.3415 161.865C35.7467 162.053 36.0246 162.241 36.1747 162.43C36.3248 162.618 36.3997 162.849 36.3997 163.123ZM38.8582 164.29H37.939V160.829H36.7618V160.088H40.0354V160.829H38.8582V164.29ZM41.6218 162.678V164.29H40.7026V160.088H41.9658C42.5549 160.088 42.9906 160.192 43.2733 160.399C43.556 160.607 43.6974 160.923 43.6974 161.347C43.6974 161.594 43.6274 161.814 43.487 162.006C43.3466 162.199 43.1478 162.35 42.8911 162.459C43.5434 163.403 43.9684 164.014 44.1662 164.29H43.1462L42.1113 162.677H41.6218V162.678ZM41.6218 161.953H41.9184C42.2089 161.953 42.4236 161.906 42.562 161.812C42.7004 161.718 42.7695 161.571 42.7695 161.369C42.7695 161.17 42.6988 161.029 42.5575 160.944C42.4161 160.86 42.1973 160.818 41.9006 160.818H41.6218V161.953ZM47.3655 164.29L47.051 163.29H45.4705L45.156 164.29H44.1656L45.6955 160.071H46.8192L48.3554 164.29H47.3655ZM46.8316 162.542C46.5411 161.636 46.3773 161.123 46.3407 161.005C46.3041 160.886 46.2781 160.792 46.2622 160.723C46.1971 160.968 46.0103 161.575 45.7017 162.542H46.8316ZM51.8964 161.398C51.8964 161.851 51.7505 162.197 51.459 162.436C51.1676 162.676 50.7529 162.795 50.215 162.795H49.8208V164.29H48.9017V160.088H50.2864C50.8122 160.088 51.212 160.197 51.486 160.417C51.7596 160.636 51.8964 160.963 51.8964 161.398ZM49.8208 162.065H50.1233C50.406 162.065 50.6174 162.011 50.7578 161.903C50.8982 161.794 50.9682 161.637 50.9682 161.43C50.9682 161.221 50.9092 161.067 50.7918 160.967C50.6741 160.868 50.4896 160.818 50.2387 160.818H49.8205L49.8208 162.065ZM37.4631 142.543C36.8202 142.337 35.8946 142.304 34.6862 142.304H30.3463V148.589H35.0228C35.8339 148.589 36.4036 148.511 36.7317 148.452C37.3098 148.352 37.7932 148.16 38.1816 147.925C38.57 147.692 38.8893 147.338 39.1396 146.891C39.3896 146.443 39.515 145.92 39.515 145.335C39.515 144.648 39.3338 144.084 38.9713 143.578C38.6092 143.071 38.1063 142.747 37.4631 142.543ZM36.7965 139.836C37.4352 139.652 37.9167 139.319 38.2399 138.892C38.5638 138.466 38.7256 137.917 38.7256 137.272C38.7256 136.662 38.5745 136.117 38.2723 135.653C37.9702 135.188 37.5386 134.873 36.9781 134.701C36.4165 134.53 35.4543 134.447 34.0906 134.447H30.3463V140.104H34.4012C35.5149 140.104 36.3131 139.979 36.7965 139.836ZM51.4201 129.773C51.4201 127.321 49.3695 125.333 46.84 125.333H21.6337C19.1042 125.333 17.0536 127.321 17.0536 129.773V154.207C17.0536 156.659 19.1042 158.646 21.6337 158.646H46.84C49.3695 158.646 51.4201 156.659 51.4201 154.207V129.773ZM41.5543 147.732C41.1792 148.472 40.715 149.043 40.1628 149.445C39.6104 149.846 38.9175 150.213 38.0846 150.418C37.2517 150.623 36.2311 150.789 35.0228 150.789H27.7526V132.247H34.9064C36.3566 132.247 37.5192 132.442 38.3952 132.814C39.2716 133.187 39.9573 133.764 40.4543 134.537C40.9503 135.311 41.1987 136.123 41.1987 136.968C41.1987 137.755 40.9782 138.496 40.5386 139.19C40.0983 139.885 39.4337 140.446 38.5447 140.872C39.6924 141.199 40.5752 141.756 41.1922 142.542C41.8092 143.329 42.1178 144.258 42.1178 145.329C42.1175 146.19 41.9301 146.991 41.5543 147.732Z" fill="#5B4282"/>
</g>
<path d="M426.923 47.4556C438.705 47.4556 448.257 38.5911 448.257 27.6562C448.257 16.7213 438.705 7.85687 426.923 7.85687C415.141 7.85687 405.59 16.7213 405.59 27.6562C405.59 38.5911 415.141 47.4556 426.923 47.4556Z" fill="#8892BF"/>
<path d="M424.545 19.1708H427.105L426.381 22.7406H428.682C429.943 22.7656 430.883 23.0273 431.502 23.5257C432.132 24.0239 432.318 24.9712 432.058 26.3666L430.815 32.5904H428.218L429.405 26.6469C429.529 26.0238 429.492 25.5815 429.294 25.3199C429.096 25.0583 428.67 24.9275 428.014 24.9275L425.955 24.9088L424.434 32.5904H421.874L424.545 19.1708Z" fill="white"/>
<path fill-rule="evenodd" clip-rule="evenodd" d="M412.814 22.7408H417.786C419.245 22.7531 420.303 23.1769 420.958 24.0116C421.614 24.8464 421.83 25.9864 421.608 27.4319C421.521 28.0925 421.329 28.7402 421.032 29.3758C420.748 30.0112 420.352 30.5843 419.845 31.0952C419.227 31.7431 418.565 32.1542 417.86 32.3289C417.155 32.5034 416.426 32.5905 415.671 32.5905H413.445L412.74 36.1417H410.162L412.814 22.7408ZM413.872 30.4785L414.981 24.8901H415.356C415.492 24.8901 415.634 24.8838 415.783 24.8714C416.772 24.859 417.594 24.9525 418.25 25.1518C418.918 25.351 419.14 26.1049 418.918 27.4133C418.646 28.9709 418.114 29.8804 417.322 30.142C416.531 30.3914 415.541 30.5096 414.354 30.4972H414.094C414.02 30.4972 413.946 30.4908 413.872 30.4785Z" fill="white"/>
<path fill-rule="evenodd" clip-rule="evenodd" d="M439.779 22.7408H434.807L432.154 36.1417H434.733L435.438 32.5905H437.664C438.418 32.5905 439.148 32.5034 439.853 32.3289C440.558 32.1542 441.22 31.7431 441.838 31.0952C442.345 30.5843 442.741 30.0112 443.025 29.3758C443.322 28.7402 443.514 28.0925 443.6 27.4319C443.823 25.9864 443.607 24.8464 442.951 24.0116C442.296 23.1769 441.238 22.7531 439.779 22.7408ZM436.974 24.8901L435.865 30.4785C435.939 30.4908 436.013 30.4972 436.087 30.4972H436.347C437.534 30.5096 438.524 30.3914 439.315 30.142C440.106 29.8804 440.639 28.9709 440.911 27.4133C441.133 26.1049 440.911 25.351 440.243 25.1518C439.587 24.9525 438.765 24.859 437.775 24.8714C437.627 24.8838 437.485 24.8901 437.349 24.8901H436.974Z" fill="white"/>
<g clip-path="url(#clip2_1_85)">
<path d="M418.066 68.4852C418.092 68.5628 418.105 68.6428 418.105 68.7232V81.2217C418.105 81.5482 417.893 81.8498 417.55 82.0122L404.851 88.0519V100.023C404.851 100.349 404.641 100.649 404.299 100.813L377.791 113.419C377.73 113.447 377.664 113.466 377.597 113.485C377.573 113.492 377.549 113.504 377.523 113.51C377.338 113.55 377.143 113.55 376.958 113.51C376.927 113.503 376.9 113.49 376.871 113.481C376.81 113.462 376.747 113.446 376.689 113.419L350.185 100.813C349.843 100.651 349.631 100.349 349.631 100.023V62.5276C349.631 62.4455 349.645 62.3658 349.67 62.2883C349.678 62.2621 349.697 62.2382 349.708 62.212C349.729 62.1642 349.748 62.1152 349.779 62.0708C349.799 62.0411 349.83 62.0172 349.854 61.9899C349.886 61.9534 349.915 61.9158 349.952 61.884C349.984 61.8578 350.025 61.8384 350.061 61.8156C350.101 61.7883 350.137 61.7586 350.183 61.737H350.184L363.436 55.4342C363.778 55.2719 364.198 55.2719 364.54 55.4342L377.792 61.737H377.795C377.839 61.7598 377.876 61.7883 377.916 61.8145C377.952 61.8372 377.992 61.8578 378.024 61.8828C378.062 61.9158 378.09 61.9534 378.123 61.9899C378.146 62.0172 378.178 62.0411 378.197 62.0708C378.229 62.1163 378.247 62.1642 378.269 62.212C378.28 62.2382 378.299 62.2621 378.308 62.2895C378.333 62.3671 378.346 62.4471 378.346 62.5276V85.9468L389.389 80.6943V68.7221C389.389 68.6424 389.403 68.5615 389.428 68.4852C389.438 68.4578 389.456 68.4339 389.467 68.4077C389.489 68.3599 389.508 68.3109 389.538 68.2665C389.559 68.2368 389.589 68.2129 389.613 68.1856C389.646 68.1491 389.674 68.1115 389.712 68.0796C389.744 68.0534 389.784 68.0341 389.82 68.0113C389.861 67.984 389.897 67.9543 389.941 67.9327H389.942L403.196 61.6299C403.538 61.4674 403.958 61.4674 404.299 61.6299L417.552 67.9327C417.599 67.9555 417.635 67.984 417.676 68.0102C417.71 68.0329 417.75 68.0534 417.782 68.0785C417.821 68.1115 417.848 68.1491 417.881 68.1856C417.906 68.2129 417.937 68.2368 417.956 68.2665C417.988 68.3109 418.005 68.3599 418.028 68.4077C418.04 68.4339 418.058 68.4578 418.066 68.4852ZM415.896 80.6943V70.3009L411.258 72.5063L404.851 75.5534V85.9468L415.897 80.6943H415.896ZM402.643 99.4955V89.0953L396.341 92.0684L378.345 100.553V111.051L402.643 99.4955ZM351.84 64.1052V99.4955L376.136 111.05V100.554L363.443 94.6201L363.439 94.6178L363.434 94.6155C363.391 94.595 363.355 94.5654 363.315 94.5403C363.281 94.5175 363.241 94.4993 363.21 94.4742L363.207 94.4708C363.172 94.4424 363.147 94.407 363.116 94.3751C363.089 94.3444 363.056 94.3182 363.034 94.2863L363.032 94.2829C363.007 94.2487 362.992 94.2077 362.974 94.169C362.956 94.1348 362.933 94.1029 362.922 94.0664V94.0653C362.908 94.022 362.905 93.9764 362.9 93.932C362.894 93.8978 362.883 93.8637 362.883 93.8295V93.8272V69.3577L356.478 66.3094L351.84 64.1064V64.1052ZM363.989 57.2773L352.948 62.5276L363.987 67.7778L375.027 62.5264L363.987 57.2773H363.989ZM369.732 90.0431L376.137 86.997V64.1052L371.499 66.3106L365.093 69.3577V92.2495L369.732 90.0431ZM403.748 63.473L392.707 68.7232L403.748 73.9735L414.787 68.7221L403.748 63.473ZM402.643 75.5534L396.236 72.5063L391.599 70.3009V80.6943L398.004 83.7403L402.643 85.9468V75.5534ZM377.239 98.9749L393.433 91.3382L401.528 87.5222L390.495 82.2754L377.793 88.3162L366.216 93.8215L377.239 98.9749Z" fill="#FF2D20"/>
</g>
<g clip-path="url(#clip3_1_85)">
<path d="M426.743 124.716C415.971 124.716 416.643 129.151 416.643 129.151L416.655 133.746H426.935V135.126H412.572C412.572 135.126 405.679 134.384 405.679 144.703C405.679 155.023 411.696 154.657 411.696 154.657H415.286V149.868C415.286 149.868 415.093 144.156 421.207 144.156H431.403C431.403 144.156 437.131 144.244 437.131 138.9V130.063C437.131 130.063 438.001 124.716 426.743 124.716ZM421.075 127.806C422.098 127.806 422.924 128.591 422.924 129.562C422.924 130.533 422.098 131.318 421.075 131.318C420.052 131.318 419.225 130.533 419.225 129.562C419.225 128.591 420.052 127.806 421.075 127.806Z" fill="url(#paint0_linear_1_85)"/>
<path d="M427.049 164.794C437.822 164.794 437.149 160.359 437.149 160.359L437.137 155.764H426.857V154.384H441.22C441.22 154.384 448.113 155.126 448.113 144.807C448.113 134.487 442.097 134.853 442.097 134.853H438.506V139.642C438.506 139.642 438.7 145.354 432.585 145.354H422.39C422.39 145.354 416.661 145.266 416.661 150.61V159.447C416.661 159.447 415.791 164.794 427.049 164.794ZM432.718 161.704C431.695 161.704 430.868 160.919 430.868 159.948C430.868 158.977 431.695 158.192 432.718 158.192C433.74 158.192 434.567 158.977 434.567 159.948C434.567 160.919 433.74 161.704 432.718 161.704Z" fill="url(#paint1_linear_1_85)"/>
</g>
<defs>
<linearGradient id="paint0_linear_1_85" x1="1449.65" y1="1043.97" x2="6557.51" y2="6349.49" gradientUnits="userSpaceOnUse">
<stop stop-color="#387EB8"/>
<stop offset="1" stop-color="#366994"/>
</linearGradient>
<linearGradient id="paint1_linear_1_85" x1="1957.51" y1="1706.15" x2="7455.97" y2="7159.56" gradientUnits="userSpaceOnUse">
<stop stop-color="#FFE052"/>
<stop offset="1" stop-color="#FFC331"/>
</linearGradient>
<clipPath id="clip0_1_85">
<rect width="61.2114" height="50.2841" fill="white" transform="translate(53.949 63.358)"/>
</clipPath>
<clipPath id="clip1_1_85">
<rect width="41.4992" height="40.2273" fill="white" transform="translate(13.4872 124.705)"/>
</clipPath>
<clipPath id="clip2_1_85">
<rect width="68.4737" height="58.3295" fill="white" transform="translate(349.631 55.3125)"/>
</clipPath>
<clipPath id="clip3_1_85">
<rect width="42.5367" height="40.2273" fill="white" transform="translate(405.655 124.705)"/>
</clipPath>
</defs>
</svg>
