<svg width="785" height="260" viewBox="0 0 785 260" fill="none" xmlns="http://www.w3.org/2000/svg">
<rect width="785" height="260" fill="#011629"/>
<path d="M29.4598 66.4056L22.9241 11.7258H94.7381L88.1937 66.3969L58.7875 72.4787L29.4598 66.4056Z" fill="#E44F26"/>
<path d="M58.8311 67.8311L82.5946 62.9166L88.1849 16.1977H58.8311V67.8311Z" fill="#F1662A"/>
<path d="M58.8311 36.4761H46.9348L46.1146 29.6089H58.8311V22.9022H58.7991H36.2892L36.5045 24.7031L38.7121 43.1828H58.8311V36.4761Z" fill="#EBEBEB"/>
<path d="M58.8311 53.8926L58.7904 53.9013L48.7789 51.8856L48.139 46.5372H43.2728H39.1135L40.3729 57.0648L58.7904 60.8792L58.8311 60.8705V53.8926Z" fill="#EBEBEB"/>
<path d="M58.7991 36.4761V43.1828H69.8693L68.828 51.8813L58.7991 53.8991V60.877L77.2311 57.0648L77.3649 55.9322L79.4765 38.277L79.6976 36.4761H77.2747H58.7991Z" fill="white"/>
<path d="M58.7991 22.9022V27.0681V29.5937V29.6089H80.4858H80.5149L80.6952 28.1031L81.1054 24.7031L81.3206 22.9022H58.7991Z" fill="white"/>
<path d="M269.237 91.1818L276.831 68.1193H282.987L290.675 91.1818H285.753L284.472 86.7912H275.409L274.081 91.1818H269.237ZM276.503 83.1974H283.409L280.019 71.5881L276.503 83.1974ZM294.269 74.4006H298.519V75.8849C299.165 75.3329 299.878 74.8849 300.659 74.5412C301.441 74.1974 302.441 74.0256 303.659 74.0256C304.92 74.0256 305.941 74.2599 306.722 74.7287C307.503 75.187 308.076 75.8016 308.441 76.5724C308.805 77.3433 308.987 78.2027 308.987 79.1506V91.1818H304.737V79.3849C304.737 78.7912 304.581 78.3381 304.269 78.0256C303.967 77.7131 303.586 77.4995 303.128 77.3849C302.68 77.2704 302.232 77.2131 301.784 77.2131C301.274 77.2131 300.769 77.3068 300.269 77.4943C299.769 77.6818 299.352 77.9579 299.019 78.3224C298.685 78.687 298.519 79.1454 298.519 79.6974V91.1818H294.269V74.4006ZM313.05 90.2287L313.909 87.3381C314.805 87.7235 315.743 88.0308 316.722 88.2599C317.711 88.4787 318.618 88.5881 319.441 88.5881C320.211 88.5881 320.784 88.4058 321.159 88.0412C321.534 87.6662 321.722 87.1558 321.722 86.5099C321.722 86.0204 321.612 85.6402 321.394 85.3693C321.185 85.0881 320.821 84.8641 320.3 84.6974L316.612 83.5412C315.29 83.1245 314.378 82.5099 313.878 81.6974C313.388 80.8849 313.144 79.9162 313.144 78.7912C313.144 77.187 313.706 75.9943 314.831 75.2131C315.967 74.4318 317.415 74.0412 319.175 74.0412C320.612 74.0412 321.831 74.1922 322.831 74.4943C323.831 74.7964 324.633 75.1193 325.237 75.4631L324.237 78.1037C323.915 77.9266 323.487 77.7547 322.956 77.5881C322.425 77.4214 321.857 77.286 321.253 77.1818C320.659 77.0672 320.097 77.0099 319.566 77.0099C318.67 77.0099 318.055 77.1662 317.722 77.4787C317.388 77.7912 317.222 78.2235 317.222 78.7756C317.222 79.1297 317.305 79.4422 317.472 79.7131C317.638 79.9735 317.935 80.1714 318.362 80.3068L321.831 81.4006C323.248 81.8485 324.232 82.4735 324.784 83.2756C325.336 84.0777 325.612 85.1349 325.612 86.4474C325.612 87.8641 325.112 89.0672 324.112 90.0568C323.112 91.0464 321.607 91.5412 319.597 91.5412C318.18 91.5412 316.951 91.4318 315.909 91.2131C314.878 91.0047 313.925 90.6766 313.05 90.2287ZM329.425 67.5099H333.675V76.0256C334.04 75.4422 334.711 74.9683 335.691 74.6037C336.68 74.2287 337.758 74.0412 338.925 74.0412C340.54 74.0412 341.805 74.4735 342.722 75.3381C343.649 76.2027 344.112 77.3433 344.112 78.7599V91.1818H339.862V79.3693C339.862 78.7756 339.717 78.3277 339.425 78.0256C339.133 77.7131 338.769 77.4995 338.331 77.3849C337.894 77.2704 337.451 77.2131 337.003 77.2131C336.493 77.2131 335.982 77.3068 335.472 77.4943C334.961 77.6714 334.534 77.9422 334.191 78.3068C333.847 78.661 333.675 79.1089 333.675 79.6506V91.1818H329.425V67.5099ZM354.066 91.5412C352.461 91.5412 351.191 91.0777 350.253 90.1506C349.326 89.2235 348.862 88.0516 348.862 86.6349V74.4006H353.112V85.9474C353.112 86.5308 353.258 86.9995 353.55 87.3537C353.842 87.6974 354.206 87.9474 354.644 88.1037C355.081 88.2599 355.519 88.3381 355.956 88.3381C356.477 88.3381 356.993 88.2495 357.503 88.0724C358.013 87.8954 358.435 87.6141 358.769 87.2287C359.112 86.8433 359.284 86.3381 359.284 85.7131V74.4006H363.534V91.1818H359.534L359.409 89.3381C359.076 90.036 358.394 90.5777 357.362 90.9631C356.331 91.3485 355.232 91.5412 354.066 91.5412ZM368.612 85.6662V67.5099H372.862V85.6037C372.862 86.5204 373.076 87.187 373.503 87.6037C373.941 88.0099 374.727 88.2131 375.862 88.2131H376.394L376.066 91.3693H374.284C372.42 91.3693 371.008 90.9474 370.05 90.1037C369.092 89.2495 368.612 87.7704 368.612 85.6662ZM388.144 91.1818V68.1193H393.253L399.769 79.3537L406.284 68.1193H411.487V91.1818H407.144V74.1349L401.378 84.4787H398.269L392.487 74.5256V91.1818H388.144ZM423.675 91.5412C421.029 91.5412 419.154 91.0516 418.05 90.0724C416.946 89.0933 416.394 87.7704 416.394 86.1037V79.4943C416.394 77.786 417.029 76.4527 418.3 75.4943C419.581 74.5256 421.373 74.0412 423.675 74.0412C425.967 74.0412 427.753 74.5256 429.034 75.4943C430.316 76.4527 430.956 77.786 430.956 79.4943V86.1037C430.956 87.2079 430.727 88.1714 430.269 88.9943C429.81 89.8068 429.05 90.437 427.987 90.8849C426.935 91.3224 425.498 91.5412 423.675 91.5412ZM423.675 88.5881C424.581 88.5881 425.31 88.4214 425.862 88.0881C426.425 87.7443 426.706 87.1454 426.706 86.2912V79.3068C426.706 78.4527 426.441 77.8589 425.909 77.5256C425.378 77.1818 424.633 77.0099 423.675 77.0099C422.758 77.0099 422.024 77.1818 421.472 77.5256C420.92 77.8589 420.644 78.4527 420.644 79.3068V86.2912C420.644 87.1454 420.904 87.7443 421.425 88.0881C421.946 88.4214 422.696 88.5881 423.675 88.5881ZM435.425 67.4943H439.675V81.7756L446.316 74.4006H451.159L444.847 81.6349L451.441 91.1818H446.8L441.55 83.4162L439.675 85.3381V91.1818H435.425V67.4943ZM454.175 67.5099H458.425V76.0256C458.79 75.4422 459.461 74.9683 460.441 74.6037C461.43 74.2287 462.508 74.0412 463.675 74.0412C465.29 74.0412 466.555 74.4735 467.472 75.3381C468.399 76.2027 468.862 77.3433 468.862 78.7599V91.1818H464.612V79.3693C464.612 78.7756 464.467 78.3277 464.175 78.0256C463.883 77.7131 463.519 77.4995 463.081 77.3849C462.644 77.2704 462.201 77.2131 461.753 77.2131C461.243 77.2131 460.732 77.3068 460.222 77.4943C459.711 77.6714 459.284 77.9422 458.941 78.3068C458.597 78.661 458.425 79.1089 458.425 79.6506V91.1818H454.175V67.5099ZM477.847 91.5412C476.409 91.5412 475.237 91.1245 474.331 90.2912C473.435 89.4579 472.987 88.3485 472.987 86.9631C472.987 86.1714 473.149 85.4683 473.472 84.8537C473.795 84.2391 474.383 83.6714 475.237 83.1506C476.092 82.6193 477.316 82.1037 478.909 81.6037C480.211 81.187 481.17 80.8016 481.784 80.4474C482.409 80.0933 482.722 79.6245 482.722 79.0412C482.722 78.3641 482.519 77.8589 482.112 77.5256C481.717 77.1818 481.04 77.0099 480.081 77.0099C479.019 77.0099 478.316 77.2183 477.972 77.6349C477.638 78.0516 477.472 78.5829 477.472 79.2287V79.8849H473.487V79.3849C473.487 77.7599 474.029 76.4631 475.112 75.4943C476.196 74.5256 477.883 74.0412 480.175 74.0412C481.852 74.0412 483.18 74.2756 484.159 74.7443C485.138 75.2131 485.842 75.8745 486.269 76.7287C486.696 77.5724 486.909 78.5724 486.909 79.7287V86.3693C486.909 87.1297 487.003 87.6297 487.191 87.8693C487.388 88.0985 487.748 88.2131 488.269 88.2131L488.097 91.3068H487.206C486.04 91.3068 485.133 91.1454 484.487 90.8224C483.842 90.4995 483.368 89.9995 483.066 89.3224C482.618 89.9162 481.941 90.437 481.034 90.8849C480.138 91.3224 479.076 91.5412 477.847 91.5412ZM479.269 88.7131C479.79 88.7131 480.399 88.5672 481.097 88.2756C481.795 87.9839 482.336 87.536 482.722 86.9318V82.6818C482.441 82.911 481.993 83.1662 481.378 83.4474C480.763 83.7183 480.102 83.9839 479.394 84.2443C478.467 84.5881 477.857 84.9683 477.566 85.3849C477.274 85.8016 477.128 86.2495 477.128 86.7287C477.128 87.4058 477.326 87.9058 477.722 88.2287C478.118 88.5516 478.633 88.7131 479.269 88.7131ZM492.144 85.6662V67.5099H496.394V85.6037C496.394 86.5204 496.607 87.187 497.034 87.6037C497.472 88.0099 498.258 88.2131 499.394 88.2131H499.925L499.597 91.3693H497.816C495.951 91.3693 494.54 90.9474 493.581 90.1037C492.623 89.2495 492.144 87.7704 492.144 85.6662ZM502.581 85.9318V79.3849C502.581 77.6766 503.227 76.3589 504.519 75.4318C505.821 74.5047 507.56 74.0412 509.737 74.0412C512.321 74.0412 514.154 74.536 515.237 75.5256C516.331 76.5152 516.878 77.8537 516.878 79.5412V83.6037H506.831V86.3381C506.831 87.3277 507.086 87.9527 507.597 88.2131C508.107 88.4631 508.868 88.5881 509.878 88.5881C511.086 88.5881 511.894 88.4214 512.3 88.0881C512.717 87.7443 512.925 87.0568 512.925 86.0256H516.862C516.862 88.0985 516.279 89.536 515.112 90.3381C513.946 91.1402 512.175 91.5412 509.8 91.5412C508.435 91.5412 507.206 91.3745 506.112 91.0412C505.019 90.6974 504.154 90.1193 503.519 89.3068C502.894 88.4943 502.581 87.3693 502.581 85.9318ZM512.862 81.0099V79.0412C512.862 78.4162 512.727 77.9631 512.456 77.6818C512.196 77.3902 511.836 77.2079 511.378 77.1349C510.93 77.0516 510.42 77.0099 509.847 77.0099C508.993 77.0099 508.274 77.1402 507.691 77.4006C507.118 77.6506 506.831 78.2235 506.831 79.1193V81.0099H512.862Z" fill="white"/>
<path d="M295.371 154L300.635 139.879H302.363L307.637 154H305.635L304.688 151.246H298.369L297.412 154H295.371ZM298.877 149.801H304.189L301.553 142.135L298.877 149.801ZM316.279 145.035H314.551V143.648H316.279V142.076C316.279 141.106 316.543 140.403 317.07 139.967C317.604 139.524 318.402 139.303 319.463 139.303H320.625L320.742 140.602H319.609C319.049 140.602 318.659 140.725 318.438 140.973C318.223 141.22 318.115 141.529 318.115 141.9V143.648H320.625V145.035H318.115V154H316.279V145.035ZM326.475 154.215C325.628 154.215 324.941 154.075 324.414 153.795C323.893 153.515 323.512 153.144 323.271 152.682C323.031 152.219 322.91 151.715 322.91 151.168V143.648H324.746V151.178C324.746 151.692 324.935 152.092 325.312 152.379C325.69 152.665 326.198 152.809 326.836 152.809C327.734 152.809 328.402 152.613 328.838 152.223C329.274 151.832 329.492 151.419 329.492 150.982V143.648H331.328V154H329.688L329.492 152.701C329.232 153.163 328.851 153.531 328.35 153.805C327.855 154.078 327.23 154.215 326.475 154.215ZM335 150.504V139.303H336.836V150.523C336.836 151.083 336.888 151.51 336.992 151.803C337.096 152.089 337.285 152.285 337.559 152.389C337.832 152.486 338.226 152.535 338.74 152.535H339.062L338.848 154.078H338.32C337.565 154.078 336.94 153.99 336.445 153.814C335.957 153.639 335.592 153.294 335.352 152.779C335.117 152.265 335 151.507 335 150.504ZM341.797 150.504V139.303H343.633V150.523C343.633 151.083 343.685 151.51 343.789 151.803C343.893 152.089 344.082 152.285 344.355 152.389C344.629 152.486 345.023 152.535 345.537 152.535H345.859L345.645 154.078H345.117C344.362 154.078 343.737 153.99 343.242 153.814C342.754 153.639 342.389 153.294 342.148 152.779C341.914 152.265 341.797 151.507 341.797 150.504ZM353.125 153.375L353.574 152.027C353.802 152.151 354.196 152.314 354.756 152.516C355.316 152.711 355.947 152.809 356.65 152.809C357.464 152.809 358.014 152.659 358.301 152.359C358.587 152.06 358.73 151.692 358.73 151.256C358.73 150.852 358.675 150.533 358.564 150.299C358.46 150.064 358.164 149.856 357.676 149.674L355.215 148.775C354.466 148.502 353.942 148.18 353.643 147.809C353.343 147.438 353.193 146.93 353.193 146.285C353.193 145.413 353.434 144.723 353.916 144.215C354.398 143.707 355.277 143.453 356.553 143.453C357.282 143.453 357.949 143.512 358.555 143.629C359.167 143.74 359.661 143.87 360.039 144.02L359.619 145.426C359.424 145.341 359.167 145.257 358.848 145.172C358.529 145.087 358.197 145.016 357.852 144.957C357.507 144.892 357.188 144.859 356.895 144.859C356.055 144.859 355.511 144.967 355.264 145.182C355.023 145.39 354.902 145.729 354.902 146.197C354.902 146.516 354.961 146.754 355.078 146.91C355.202 147.06 355.439 147.203 355.791 147.34L358.223 148.287C358.802 148.508 359.238 148.746 359.531 149C359.831 149.247 360.033 149.547 360.137 149.898C360.241 150.25 360.293 150.696 360.293 151.236C360.293 151.777 360.179 152.275 359.951 152.73C359.73 153.18 359.368 153.541 358.867 153.814C358.372 154.081 357.715 154.215 356.895 154.215C355.931 154.215 355.12 154.107 354.463 153.893C353.805 153.678 353.359 153.505 353.125 153.375ZM363.936 151.041V145.035H362.207V143.648H364.004L364.229 140.445H365.771V143.648H368.369V145.035H365.771V150.924C365.771 151.607 365.973 152.047 366.377 152.242C366.781 152.438 367.419 152.535 368.291 152.535H368.496L368.301 154.078H368.027C366.615 154.078 365.579 153.857 364.922 153.414C364.264 152.971 363.936 152.18 363.936 151.041ZM374.092 154.215C373.33 154.215 372.708 154.085 372.227 153.824C371.751 153.557 371.4 153.209 371.172 152.779C370.951 152.343 370.84 151.878 370.84 151.383C370.84 150.862 370.941 150.426 371.143 150.074C371.351 149.716 371.738 149.394 372.305 149.107C372.878 148.814 373.714 148.508 374.814 148.189C375.387 148.02 375.846 147.87 376.191 147.74C376.536 147.61 376.787 147.444 376.943 147.242C377.1 147.04 377.178 146.751 377.178 146.373C377.178 146.093 377.132 145.839 377.041 145.611C376.956 145.383 376.777 145.201 376.504 145.064C376.237 144.928 375.827 144.859 375.273 144.859C374.583 144.859 374.079 144.931 373.76 145.074C373.441 145.217 373.236 145.406 373.145 145.641C373.06 145.869 373.018 146.122 373.018 146.402V146.861H371.25V146.393C371.25 145.37 371.592 144.625 372.275 144.156C372.959 143.688 373.978 143.453 375.332 143.453C376.699 143.453 377.653 143.772 378.193 144.41C378.74 145.048 379.014 145.901 379.014 146.969V151.383C379.014 151.93 379.082 152.281 379.219 152.438C379.362 152.594 379.655 152.672 380.098 152.672L379.883 154.078H379.512C378.822 154.078 378.324 153.945 378.018 153.678C377.712 153.404 377.48 153.023 377.324 152.535C377.174 152.77 376.966 153.017 376.699 153.277C376.439 153.538 376.097 153.759 375.674 153.941C375.257 154.124 374.73 154.215 374.092 154.215ZM374.316 152.848C374.688 152.848 375.075 152.77 375.479 152.613C375.882 152.451 376.24 152.239 376.553 151.979C376.872 151.712 377.08 151.419 377.178 151.1V148.375C377.035 148.518 376.784 148.707 376.426 148.941C376.074 149.169 375.57 149.378 374.912 149.566C374.111 149.794 373.522 150.029 373.145 150.27C372.773 150.51 372.588 150.862 372.588 151.324C372.588 151.845 372.721 152.229 372.988 152.477C373.262 152.724 373.704 152.848 374.316 152.848ZM386.65 154.215C385.622 154.215 384.798 154.052 384.18 153.727C383.568 153.395 383.125 152.958 382.852 152.418C382.578 151.871 382.441 151.279 382.441 150.641V146.695C382.441 145.719 382.812 144.934 383.555 144.342C384.303 143.749 385.319 143.453 386.602 143.453C387.428 143.453 388.148 143.551 388.76 143.746C389.372 143.935 389.844 144.28 390.176 144.781C390.514 145.283 390.684 145.999 390.684 146.93L388.936 147.096C388.936 146.464 388.864 145.989 388.721 145.67C388.577 145.351 388.34 145.136 388.008 145.025C387.676 144.915 387.223 144.859 386.65 144.859C385.863 144.859 385.27 145.003 384.873 145.289C384.476 145.569 384.277 146.054 384.277 146.744V150.797C384.277 151.539 384.486 152.06 384.902 152.359C385.326 152.659 385.908 152.809 386.65 152.809C387.256 152.809 387.715 152.766 388.027 152.682C388.346 152.591 388.571 152.415 388.701 152.154C388.831 151.887 388.919 151.494 388.965 150.973H390.664C390.599 151.767 390.43 152.402 390.156 152.877C389.883 153.352 389.463 153.694 388.896 153.902C388.337 154.111 387.588 154.215 386.65 154.215ZM393.613 139.303H395.449V148.883L400.4 143.648H402.412L398.203 148.199L402.832 154H400.713L397.002 149.195L395.449 150.738V154H393.613V139.303ZM409.434 150.729V146.822C409.434 145.781 409.779 144.96 410.469 144.361C411.159 143.756 412.256 143.453 413.76 143.453C414.085 143.453 414.469 143.489 414.912 143.561C415.355 143.632 415.736 143.727 416.055 143.844V139.303H417.891V154H416.641L416.338 153.316C416.038 153.551 415.628 153.759 415.107 153.941C414.593 154.124 414.069 154.215 413.535 154.215C412.546 154.215 411.748 154.062 411.143 153.756C410.544 153.45 410.107 153.036 409.834 152.516C409.567 151.988 409.434 151.393 409.434 150.729ZM416.055 152.154V145.289C415.781 145.159 415.439 145.055 415.029 144.977C414.626 144.898 414.209 144.859 413.779 144.859C413.057 144.859 412.458 144.993 411.982 145.26C411.507 145.527 411.27 145.979 411.27 146.617V150.865C411.27 151.51 411.497 151.988 411.953 152.301C412.415 152.613 412.982 152.77 413.652 152.77C414.173 152.77 414.652 152.698 415.088 152.555C415.524 152.411 415.846 152.278 416.055 152.154ZM421.152 150.348V146.744C421.152 145.768 421.488 144.977 422.158 144.371C422.829 143.759 423.906 143.453 425.391 143.453C426.81 143.453 427.855 143.733 428.525 144.293C429.196 144.846 429.531 145.615 429.531 146.598V149.059H422.988V150.514C422.988 151.354 423.154 151.946 423.486 152.291C423.825 152.636 424.482 152.809 425.459 152.809C426.038 152.809 426.494 152.789 426.826 152.75C427.165 152.704 427.412 152.574 427.568 152.359C427.731 152.138 427.839 151.767 427.891 151.246H429.512C429.427 152.06 429.248 152.682 428.975 153.111C428.708 153.535 428.294 153.824 427.734 153.98C427.174 154.137 426.416 154.215 425.459 154.215C423.916 154.215 422.812 153.893 422.148 153.248C421.484 152.604 421.152 151.637 421.152 150.348ZM427.754 147.818V146.402C427.754 145.777 427.536 145.364 427.1 145.162C426.67 144.96 426.1 144.859 425.391 144.859C424.661 144.859 424.079 144.986 423.643 145.24C423.206 145.494 422.988 145.94 422.988 146.578V147.818H427.754ZM431.445 143.648H433.291L436.406 152.047L439.18 143.648H440.977L437.314 154H435.459L431.445 143.648ZM443.457 150.504V139.303H445.293V150.523C445.293 151.083 445.345 151.51 445.449 151.803C445.553 152.089 445.742 152.285 446.016 152.389C446.289 152.486 446.683 152.535 447.197 152.535H447.52L447.305 154.078H446.777C446.022 154.078 445.397 153.99 444.902 153.814C444.414 153.639 444.049 153.294 443.809 152.779C443.574 152.265 443.457 151.507 443.457 150.504ZM454.131 154.215C453.096 154.215 452.262 154.075 451.631 153.795C451.006 153.508 450.55 153.118 450.264 152.623C449.984 152.128 449.844 151.562 449.844 150.924V146.754C449.844 146.116 449.984 145.549 450.264 145.055C450.55 144.553 451.006 144.163 451.631 143.883C452.262 143.596 453.096 143.453 454.131 143.453C455.16 143.453 455.986 143.596 456.611 143.883C457.243 144.163 457.702 144.553 457.988 145.055C458.275 145.549 458.418 146.116 458.418 146.754V150.924C458.418 151.562 458.275 152.128 457.988 152.623C457.702 153.118 457.243 153.508 456.611 153.795C455.986 154.075 455.16 154.215 454.131 154.215ZM454.131 152.809C454.847 152.809 455.433 152.682 455.889 152.428C456.351 152.167 456.582 151.718 456.582 151.08V146.598C456.582 145.96 456.351 145.51 455.889 145.25C455.433 144.99 454.847 144.859 454.131 144.859C453.402 144.859 452.809 144.99 452.354 145.25C451.904 145.51 451.68 145.96 451.68 146.598V151.08C451.68 151.718 451.904 152.167 452.354 152.428C452.809 152.682 453.402 152.809 454.131 152.809ZM461.68 157.984V143.648H463.125L463.34 144.43C463.613 144.182 464.007 143.958 464.521 143.756C465.042 143.554 465.599 143.453 466.191 143.453C467.513 143.453 468.496 143.775 469.141 144.42C469.792 145.064 470.117 145.885 470.117 146.881V150.641C470.117 151.682 469.759 152.538 469.043 153.209C468.333 153.88 467.305 154.215 465.957 154.215C465.378 154.215 464.886 154.153 464.482 154.029C464.085 153.912 463.763 153.792 463.516 153.668V157.984H461.68ZM465.84 152.809C466.562 152.809 467.148 152.639 467.598 152.301C468.053 151.956 468.281 151.467 468.281 150.836V146.734C468.281 146.116 468.053 145.65 467.598 145.338C467.148 145.019 466.585 144.859 465.908 144.859C465.479 144.859 465.091 144.934 464.746 145.084C464.408 145.227 464.131 145.387 463.916 145.563C463.708 145.738 463.574 145.869 463.516 145.953V152.252C463.75 152.382 464.062 152.509 464.453 152.633C464.844 152.75 465.306 152.809 465.84 152.809ZM473.008 150.348V146.744C473.008 145.768 473.343 144.977 474.014 144.371C474.684 143.759 475.762 143.453 477.246 143.453C478.665 143.453 479.71 143.733 480.381 144.293C481.051 144.846 481.387 145.615 481.387 146.598V149.059H474.844V150.514C474.844 151.354 475.01 151.946 475.342 152.291C475.68 152.636 476.338 152.809 477.314 152.809C477.894 152.809 478.35 152.789 478.682 152.75C479.02 152.704 479.268 152.574 479.424 152.359C479.587 152.138 479.694 151.767 479.746 151.246H481.367C481.283 152.06 481.104 152.682 480.83 153.111C480.563 153.535 480.15 153.824 479.59 153.98C479.03 154.137 478.271 154.215 477.314 154.215C475.771 154.215 474.668 153.893 474.004 153.248C473.34 152.604 473.008 151.637 473.008 150.348ZM479.609 147.818V146.402C479.609 145.777 479.391 145.364 478.955 145.162C478.525 144.96 477.956 144.859 477.246 144.859C476.517 144.859 475.934 144.986 475.498 145.24C475.062 145.494 474.844 145.94 474.844 146.578V147.818H479.609ZM484.492 143.648H486.328V145.113C486.478 144.723 486.748 144.41 487.139 144.176C487.536 143.935 487.985 143.762 488.486 143.658C488.988 143.554 489.466 143.502 489.922 143.502L489.863 145.074C489.277 145.074 488.714 145.156 488.174 145.318C487.633 145.475 487.191 145.68 486.846 145.934C486.501 146.188 486.328 146.461 486.328 146.754V154H484.492V143.648Z" fill="white"/>
<g clip-path="url(#clip0_1_85)">
<path d="M176.511 116.984C175.436 116.688 174.322 116.408 173.175 116.143C173.364 115.527 173.537 114.92 173.69 114.322C176.215 104.512 174.564 96.6092 168.927 94.0072C163.522 91.5122 154.682 94.1136 145.754 100.333C144.896 100.931 144.035 101.564 143.174 102.227C142.601 101.788 142.028 101.364 141.458 100.958C132.101 94.3085 122.722 91.5062 117.091 94.1157C111.691 96.6179 110.091 104.047 112.364 113.344C112.584 114.242 112.84 115.159 113.13 116.092C111.803 116.393 110.521 116.715 109.295 117.057C98.3257 120.118 91.3199 124.916 91.3199 129.892C91.3199 135.032 98.8406 140.187 110.266 143.313C111.168 143.56 112.104 143.793 113.068 144.015C112.755 145.023 112.483 146.011 112.254 146.975C110.087 156.111 111.779 163.365 117.165 165.851C122.728 168.419 132.064 165.78 141.155 159.419C141.874 158.916 142.595 158.383 143.317 157.824C144.254 158.546 145.189 159.229 146.119 159.869C154.924 165.935 163.622 168.384 169.002 165.891C174.56 163.316 176.366 155.523 174.021 146.042C173.842 145.318 173.633 144.578 173.399 143.825C174.055 143.67 174.699 143.51 175.326 143.344C187.205 140.193 194.933 135.101 194.933 129.892C194.933 124.898 187.701 120.068 176.511 116.984ZM173.934 139.981C173.368 140.131 172.786 140.276 172.194 140.416C170.883 137.094 169.113 133.56 166.947 129.91C169.014 126.346 170.715 122.858 171.99 119.557C173.05 119.802 174.079 120.061 175.07 120.334C184.658 122.976 190.507 126.883 190.507 129.892C190.507 133.099 184.19 137.26 173.934 139.981ZM169.679 146.73C170.716 150.922 170.864 154.713 170.177 157.676C169.56 160.338 168.319 162.114 166.784 162.825C163.519 164.337 156.536 162.371 149.005 157.184C148.142 156.589 147.272 155.954 146.4 155.282C149.32 152.726 152.237 149.755 155.085 146.455C160.094 146.1 164.826 145.518 169.118 144.724C169.329 145.406 169.517 146.076 169.679 146.73ZM126.644 162.563C123.454 163.465 120.913 163.491 119.377 162.782C116.109 161.273 114.75 155.449 116.603 147.636C116.815 146.741 117.068 145.822 117.359 144.883C121.604 145.634 126.301 146.174 131.322 146.5C134.189 149.729 137.191 152.697 140.217 155.296C139.556 155.807 138.897 156.293 138.243 156.751C134.223 159.564 130.194 161.559 126.644 162.563ZM111.698 139.961C106.646 138.579 102.473 136.782 99.6134 134.822C97.0435 133.06 95.746 131.312 95.746 129.892C95.746 126.873 101.371 123.021 110.752 120.403C111.891 120.085 113.082 119.785 114.319 119.504C115.615 122.88 117.316 126.41 119.369 129.979C117.29 133.601 115.565 137.186 114.255 140.602C113.374 140.399 112.52 140.186 111.698 139.961ZM116.708 112.664C114.761 104.699 116.054 98.6898 119.308 97.182C122.775 95.5757 130.44 97.8659 138.518 103.608C139.035 103.975 139.553 104.359 140.073 104.756C137.063 107.344 134.088 110.289 131.247 113.499C126.374 113.861 121.709 114.441 117.42 115.219C117.151 114.351 116.912 113.498 116.708 112.664ZM161.402 121.498C160.377 120.08 159.324 118.696 158.251 117.35C161.557 117.685 164.724 118.129 167.699 118.672C166.806 120.963 165.693 123.358 164.383 125.813C163.443 124.385 162.449 122.945 161.402 121.498ZM143.176 107.288C145.217 109.059 147.262 111.035 149.273 113.18C147.247 113.103 145.195 113.063 143.126 113.063C141.077 113.063 139.041 113.102 137.027 113.178C139.04 111.053 141.102 109.079 143.176 107.288ZM124.833 121.522C123.809 122.944 122.833 124.376 121.908 125.811C120.619 123.364 119.516 120.958 118.616 118.634C121.572 118.105 124.724 117.672 128.009 117.344C126.921 118.702 125.86 120.097 124.833 121.522ZM128.104 142.694C124.71 142.391 121.51 141.98 118.555 141.465C119.47 139.1 120.597 136.643 121.913 134.143C122.841 135.577 123.82 137.01 124.851 138.435C125.9 139.886 126.988 141.307 128.104 142.694ZM143.298 152.746C141.2 150.935 139.108 148.931 137.064 146.775C139.048 146.837 141.071 146.869 143.126 146.869C145.238 146.869 147.326 146.831 149.381 146.758C147.363 148.952 145.326 150.96 143.298 152.746ZM164.425 134.016C165.81 136.543 166.977 138.987 167.904 141.312C164.9 141.86 161.656 142.302 158.239 142.63C159.315 141.266 160.376 139.858 161.42 138.41C162.475 136.945 163.477 135.478 164.425 134.016ZM157.586 136.64C155.966 138.888 154.303 141.034 152.615 143.059C149.54 143.235 146.364 143.326 143.126 143.326C139.902 143.326 136.766 143.246 133.745 143.089C131.989 141.037 130.29 138.885 128.681 136.66C127.076 134.441 125.599 132.203 124.26 129.977C125.599 127.747 127.072 125.507 128.668 123.292L128.667 123.292C130.268 121.071 131.952 118.929 133.692 116.89C136.773 116.704 139.933 116.606 143.126 116.606C146.334 116.606 149.498 116.704 152.579 116.893C154.292 118.917 155.965 121.052 157.571 123.273C159.196 125.519 160.688 127.745 162.038 129.927C160.692 132.147 159.203 134.395 157.586 136.64ZM166.716 97.0766C170.186 98.6781 171.535 105.137 169.355 113.607C169.216 114.147 169.06 114.698 168.89 115.256C164.591 114.462 159.923 113.871 155.036 113.504C152.189 110.259 149.239 107.309 146.277 104.755C147.073 104.141 147.868 103.557 148.66 103.005C156.31 97.6768 163.459 95.573 166.716 97.0766ZM143.126 122.487C148.236 122.487 152.379 125.802 152.379 129.892C152.379 133.982 148.236 137.298 143.126 137.298C138.017 137.298 133.874 133.982 133.874 129.892C133.874 125.802 138.017 122.487 143.126 122.487Z" fill="#00D8FF"/>
</g>
<path d="M28.0606 235.157H30.3441C31.3846 235.157 32.1403 235.282 32.6101 235.531C33.0804 235.78 33.3153 236.176 33.3153 236.72C33.3153 237.088 33.2121 237.391 33.0063 237.627C32.8005 237.864 32.5267 238.006 32.1853 238.054V238.096C32.6507 238.183 32.986 238.346 33.1918 238.586C33.3976 238.825 33.5008 239.143 33.5008 239.54C33.5008 240.103 33.2593 240.542 32.7753 240.857C32.2918 241.173 31.6349 241.33 30.8051 241.33H28.0606V235.157ZM29.6164 237.602H30.5197C30.9412 237.602 31.2469 237.547 31.4357 237.437C31.625 237.328 31.7194 237.146 31.7194 236.893C31.7194 236.656 31.6168 236.487 31.411 236.384C31.2052 236.281 30.8797 236.23 30.4347 236.23H29.6164V237.602ZM29.6164 238.64V240.249H30.6306C31.0586 240.249 31.3748 240.181 31.5795 240.042C31.7842 239.904 31.8857 239.693 31.8857 239.409C31.8857 238.897 31.4505 238.64 30.5806 238.64H29.6164ZM41.6274 238.235C41.6274 239.257 41.3261 240.042 40.7241 240.591C40.122 241.14 39.2588 241.415 38.1343 241.415C37.0098 241.415 36.1465 241.14 35.5445 240.591C34.9419 240.042 34.6412 239.254 34.6412 238.227C34.6412 237.199 34.943 236.415 35.5473 235.873C36.1515 235.331 37.0169 235.06 38.1447 235.06C39.2725 235.06 40.1347 235.333 40.7323 235.879C41.3288 236.425 41.6274 237.211 41.6274 238.235ZM36.2722 238.235C36.2722 238.925 36.4275 239.444 36.7392 239.793C37.0504 240.142 37.5152 240.317 38.1343 240.317C39.3757 240.317 39.9964 239.623 39.9964 238.235C39.9964 236.845 39.379 236.149 38.1442 236.149C37.5251 236.149 37.0581 236.324 36.7436 236.675C36.4292 237.026 36.2722 237.545 36.2722 238.235ZM49.8094 238.235C49.8094 239.257 49.5081 240.042 48.9061 240.591C48.3041 241.14 47.4408 241.415 46.3163 241.415C45.1918 241.415 44.3286 241.14 43.7265 240.591C43.124 240.042 42.8232 239.254 42.8232 238.227C42.8232 237.199 43.1251 236.415 43.7293 235.873C44.3335 235.331 45.199 235.06 46.3267 235.06C47.4545 235.06 48.3167 235.333 48.9143 235.879C49.5103 236.425 49.8094 237.211 49.8094 238.235ZM44.4537 238.235C44.4537 238.925 44.609 239.444 44.9207 239.793C45.2319 240.142 45.6967 240.317 46.3158 240.317C47.5571 240.317 48.1778 239.623 48.1778 238.235C48.1778 236.845 47.5604 236.149 46.3256 236.149C45.7066 236.149 45.2396 236.324 44.9251 236.675C44.6107 237.026 44.4537 237.545 44.4537 238.235ZM54.1608 241.33H52.605V236.246H50.6123V235.157H56.1535V236.246H54.1608V241.33ZM61.614 239.616C61.614 240.174 61.3759 240.613 60.899 240.933C60.4221 241.254 59.7586 241.415 58.909 241.415C58.1259 241.415 57.4333 241.291 56.8313 241.043V239.827C57.3263 240.013 57.7456 240.144 58.0886 240.22C58.4316 240.296 58.7449 240.334 59.0298 240.334C59.3711 240.334 59.6329 240.279 59.8151 240.17C59.9978 240.06 60.0889 239.897 60.0889 239.68C60.0889 239.559 60.0489 239.452 59.9687 239.357C59.8886 239.263 59.7706 239.172 59.6148 239.085C59.4589 238.997 59.1423 238.858 58.6637 238.667C58.2153 238.49 57.8789 238.319 57.655 238.156C57.4306 237.992 57.2517 237.803 57.1177 237.586C56.9838 237.369 56.9169 237.116 56.9169 236.826C56.9169 236.28 57.137 235.851 57.5771 235.538C58.0172 235.226 58.6253 235.07 59.4018 235.07C59.7833 235.07 60.1471 235.107 60.4934 235.184C60.8397 235.26 61.2019 235.366 61.58 235.504L61.0779 236.522C60.6866 236.387 60.3628 236.293 60.1065 236.239C59.8502 236.185 59.5989 236.159 59.3514 236.159C59.0566 236.159 58.8311 236.216 58.6736 236.332C58.5161 236.447 58.4376 236.598 58.4376 236.784C58.4376 236.899 58.4694 237 58.5331 237.086C58.5968 237.172 58.6977 237.255 58.8366 237.335C58.9754 237.415 59.3042 237.559 59.8228 237.768C60.5088 238.044 60.9791 238.321 61.2332 238.598C61.4873 238.875 61.614 239.213 61.614 239.616ZM65.7756 241.33H64.2197V236.246H62.2271V235.157H67.7683V236.246H65.7756V241.33ZM70.4535 238.961V241.33H68.8977V235.157H71.0358C72.033 235.157 72.7706 235.31 73.2491 235.615C73.7277 235.92 73.9669 236.384 73.9669 237.006C73.9669 237.37 73.8484 237.692 73.6108 237.975C73.3731 238.258 73.0367 238.48 72.6021 238.64C73.7063 240.028 74.4257 240.924 74.7605 241.33H73.034L71.2822 238.961H70.4535V238.961ZM70.4535 237.897H70.9557C71.4474 237.897 71.8107 237.828 72.045 237.69C72.2794 237.552 72.3963 237.335 72.3963 237.04C72.3963 236.747 72.2766 236.539 72.0374 236.415C71.7981 236.291 71.4276 236.229 70.9255 236.229H70.4535V237.897ZM80.176 241.33L79.6437 239.861H76.9683L76.436 241.33H74.7594L77.3492 235.132H79.2513L81.8515 241.33H80.176ZM79.2722 238.763C78.7804 237.431 78.5033 236.678 78.4413 236.504C78.3793 236.329 78.3354 236.191 78.3085 236.09C78.1982 236.45 77.8821 237.341 77.3596 238.763H79.2722ZM87.8455 237.082C87.8455 237.747 87.5985 238.255 87.1051 238.606C86.6118 238.959 85.9099 239.134 84.9994 239.134H84.3321V241.33H82.7762V235.157H85.1201C86.0103 235.157 86.687 235.318 87.1507 235.64C87.6139 235.963 87.8455 236.443 87.8455 237.082ZM84.3321 238.062H84.8441C85.3226 238.062 85.6805 237.983 85.9181 237.823C86.1557 237.664 86.2743 237.433 86.2743 237.129C86.2743 236.822 86.1744 236.595 85.9757 236.449C85.7765 236.303 85.4642 236.229 85.0395 236.229H84.3315L84.3321 238.062ZM63.4141 209.384C62.3258 209.083 60.759 209.034 58.7137 209.034H51.3674V218.267H59.2833C60.6564 218.267 61.6206 218.152 62.176 218.065C63.1545 217.918 63.9728 217.636 64.6302 217.292C65.2877 216.948 65.8283 216.429 66.2519 215.771C66.6751 215.114 66.8874 214.346 66.8874 213.486C66.8874 212.478 66.5807 211.648 65.9671 210.905C65.3541 210.161 64.5029 209.685 63.4141 209.384ZM62.2858 205.409C63.3669 205.138 64.1819 204.649 64.729 204.022C65.2773 203.396 65.5511 202.59 65.5511 201.643C65.5511 200.746 65.2954 199.947 64.7839 199.264C64.2724 198.581 63.542 198.118 62.5931 197.866C61.6426 197.615 60.0137 197.493 57.7055 197.493H51.3674V205.803H58.2313C60.1164 205.803 61.4675 205.618 62.2858 205.409ZM87.0393 190.626C87.0393 187.025 83.5681 184.105 79.2864 184.105H36.6196C32.3379 184.105 28.8667 187.025 28.8667 190.626V226.519C28.8667 230.12 32.3379 233.04 36.6196 233.04H79.2864C83.5681 233.04 87.0393 230.12 87.0393 226.519V190.626ZM70.3394 217.007C69.7044 218.094 68.9185 218.933 67.9839 219.523C67.0488 220.113 65.876 220.652 64.4661 220.953C63.0563 221.255 61.3287 221.499 59.2833 221.499H46.9771V194.261H59.0863C61.5411 194.261 63.509 194.548 64.9919 195.094C66.4753 195.641 67.636 196.489 68.4773 197.625C69.317 198.762 69.7373 199.955 69.7373 201.196C69.7373 202.351 69.3642 203.44 68.62 204.461C67.8747 205.481 66.7497 206.305 65.2449 206.931C67.1876 207.41 68.682 208.229 69.7264 209.384C70.7707 210.54 71.2932 211.904 71.2932 213.477C71.2926 214.743 70.9754 215.92 70.3394 217.007Z" fill="#5B4282"/>
<path d="M722.657 69.7088C742.6 69.7088 758.767 56.6875 758.767 40.625C758.767 24.5624 742.6 11.5412 722.657 11.5412C702.713 11.5412 686.546 24.5624 686.546 40.625C686.546 56.6875 702.713 69.7088 722.657 69.7088Z" fill="#8892BF"/>
<path d="M718.631 28.1605H722.964L721.739 33.4043H725.633C727.769 33.4411 729.359 33.8254 730.406 34.5575C731.474 35.2893 731.788 36.6808 731.348 38.7306L729.245 47.8729H724.848L726.858 39.1423C727.067 38.227 727.004 37.5774 726.67 37.1931C726.335 36.8088 725.613 36.6166 724.503 36.6166L721.017 36.5892L718.442 47.8729H714.109L718.631 28.1605Z" fill="white"/>
<path fill-rule="evenodd" clip-rule="evenodd" d="M698.774 33.4045H707.19C709.66 33.4226 711.45 34.0452 712.559 35.2713C713.669 36.4976 714.035 38.1722 713.659 40.2955C713.512 41.2659 713.188 42.2173 712.685 43.1509C712.204 44.0843 711.534 44.9261 710.676 45.6766C709.629 46.6283 708.509 47.2322 707.315 47.4888C706.122 47.7451 704.887 47.8731 703.61 47.8731H699.842L698.649 53.0895H694.284L698.774 33.4045ZM700.564 44.7707L702.442 36.5618H703.076C703.307 36.5618 703.547 36.5524 703.798 36.5343C705.473 36.5161 706.865 36.6534 707.975 36.9461C709.105 37.2388 709.482 38.3463 709.105 40.2681C708.645 42.5561 707.744 43.8921 706.405 44.2765C705.065 44.6427 703.39 44.8164 701.381 44.7981H700.941C700.815 44.7981 700.69 44.7887 700.564 44.7707Z" fill="white"/>
<path fill-rule="evenodd" clip-rule="evenodd" d="M744.417 33.4045H736.002L731.511 53.0895H735.876L737.069 47.8731H740.838C742.114 47.8731 743.35 47.7451 744.543 47.4888C745.736 47.2322 746.856 46.6283 747.903 45.6766C748.761 44.9261 749.431 44.0843 749.913 43.1509C750.415 42.2173 750.74 41.2659 750.886 40.2955C751.263 38.1722 750.897 36.4976 749.787 35.2713C748.677 34.0452 746.888 33.4226 744.417 33.4045ZM739.669 36.5618L737.792 44.7707C737.917 44.7887 738.043 44.7981 738.169 44.7981H738.608C740.618 44.8164 742.293 44.6427 743.632 44.2765C744.972 43.8921 745.873 42.5561 746.333 40.2681C746.71 38.3463 746.333 37.2388 745.202 36.9461C744.093 36.6534 742.701 36.5161 741.026 36.5343C740.775 36.5524 740.534 36.5618 740.304 36.5618H739.669Z" fill="white"/>
<g clip-path="url(#clip1_1_85)">
<path d="M707.664 100.6C707.707 100.714 707.729 100.831 707.729 100.949V119.309C707.729 119.788 707.371 120.231 706.791 120.47L685.295 129.342V146.926C685.295 147.405 684.94 147.847 684.361 148.088L639.489 166.604C639.386 166.646 639.274 166.673 639.162 166.701C639.12 166.711 639.081 166.73 639.036 166.738C638.723 166.797 638.393 166.797 638.079 166.738C638.028 166.728 637.981 166.708 637.932 166.695C637.829 166.668 637.722 166.644 637.624 166.604L592.762 148.088C592.182 147.849 591.823 147.406 591.823 146.926V91.8484C591.823 91.7279 591.847 91.6108 591.889 91.497C591.903 91.4585 591.935 91.4234 591.954 91.3849C591.989 91.3146 592.022 91.2427 592.073 91.1774C592.108 91.1339 592.159 91.0988 592.201 91.0586C592.255 91.005 592.304 90.9498 592.367 90.903C592.421 90.8645 592.491 90.836 592.552 90.8026C592.619 90.7624 592.68 90.7189 592.757 90.6871H592.759L615.192 81.4288C615.77 81.1904 616.481 81.1904 617.059 81.4288L639.491 90.6871H639.496C639.571 90.7206 639.634 90.7624 639.702 90.8009C639.762 90.8344 639.83 90.8645 639.884 90.9013C639.949 90.9498 639.996 91.005 640.052 91.0586C640.091 91.0988 640.145 91.1339 640.178 91.1774C640.231 91.2443 640.262 91.3146 640.299 91.3849C640.318 91.4234 640.35 91.4585 640.364 91.4987C640.407 91.6127 640.429 91.7303 640.43 91.8484V126.249L659.123 118.534V100.948C659.123 100.831 659.146 100.712 659.188 100.6C659.204 100.56 659.235 100.524 659.253 100.486C659.291 100.416 659.323 100.344 659.375 100.278C659.41 100.235 659.461 100.2 659.501 100.16C659.557 100.106 659.604 100.051 659.669 100.004C659.723 99.9655 659.79 99.9371 659.851 99.9036C659.921 99.8634 659.982 99.8199 660.056 99.7881H660.059L682.493 90.5298C683.071 90.2911 683.783 90.2911 684.361 90.5298L706.793 99.7881C706.873 99.8216 706.933 99.8634 707.003 99.9019C707.062 99.9354 707.129 99.9655 707.183 100.002C707.248 100.051 707.295 100.106 707.351 100.16C707.393 100.2 707.445 100.235 707.477 100.278C707.531 100.344 707.561 100.416 707.599 100.486C707.62 100.524 707.65 100.56 707.664 100.6ZM703.99 118.534V103.267L696.14 106.506L685.295 110.982V126.249L703.992 118.534H703.99ZM681.557 146.152V130.874L670.89 135.242L640.427 147.704V163.125L681.557 146.152ZM595.563 94.1659V146.152L636.688 163.124V147.706L615.203 138.99L615.196 138.987L615.187 138.983C615.115 138.953 615.054 138.91 614.986 138.873C614.928 138.839 614.86 138.813 614.809 138.776L614.804 138.771C614.743 138.729 614.701 138.677 614.65 138.63C614.603 138.585 614.547 138.546 614.51 138.5L614.508 138.495C614.466 138.444 614.44 138.384 614.41 138.327C614.379 138.277 614.34 138.23 614.321 138.177V138.175C614.298 138.111 614.293 138.045 614.284 137.979C614.274 137.929 614.256 137.879 614.256 137.829V137.825V101.881L603.413 97.4037L595.563 94.1676V94.1659ZM616.128 84.1362L597.437 91.8484L616.123 99.5606L634.811 91.8467L616.123 84.1362H616.128ZM625.848 132.267L636.69 127.792V94.1659L628.84 97.4054L617.995 101.881V135.508L625.848 132.267ZM683.427 93.2372L664.739 100.949L683.427 108.662L702.113 100.948L683.427 93.2372ZM681.557 110.982L670.712 106.506L662.862 103.267V118.534L673.705 123.008L681.557 126.249V110.982ZM638.555 145.387L665.967 134.169L679.669 128.564L660.995 120.856L639.494 129.73L619.898 137.817L638.555 145.387Z" fill="#FF2D20"/>
</g>
<g clip-path="url(#clip2_1_85)">
<path d="M722.352 183.198C704.117 183.198 705.256 189.713 705.256 189.713L705.276 196.463H722.677V198.489H698.365C698.365 198.489 686.696 197.399 686.696 212.558C686.696 227.717 696.881 227.179 696.881 227.179H702.959V220.145C702.959 220.145 702.631 211.754 712.98 211.754H730.239C730.239 211.754 739.936 211.883 739.936 204.033V191.053C739.936 191.053 741.408 183.198 722.352 183.198ZM712.757 187.737C714.488 187.737 715.887 188.89 715.887 190.316C715.887 191.743 714.488 192.896 712.757 192.896C711.026 192.896 709.626 191.743 709.626 190.316C709.626 188.89 711.026 187.737 712.757 187.737Z" fill="url(#paint0_linear_1_85)"/>
<path d="M722.87 242.07C741.104 242.07 739.966 235.555 739.966 235.555L739.945 228.806H722.544V226.779H746.857C746.857 226.779 758.525 227.869 758.525 212.71C758.525 197.552 748.341 198.089 748.341 198.089H742.263V205.123C742.263 205.123 742.59 213.514 732.241 213.514H714.982C714.982 213.514 705.286 213.385 705.286 221.235V234.215C705.286 234.215 703.814 242.07 722.87 242.07ZM732.464 237.531C730.733 237.531 729.334 236.379 729.334 234.952C729.334 233.526 730.733 232.373 732.464 232.373C734.196 232.373 735.595 233.526 735.595 234.952C735.595 236.379 734.196 237.531 732.464 237.531Z" fill="url(#paint1_linear_1_85)"/>
</g>
<defs>
<linearGradient id="paint0_linear_1_85" x1="2453.84" y1="1533.51" x2="9842.61" y2="10377.4" gradientUnits="userSpaceOnUse">
<stop stop-color="#387EB8"/>
<stop offset="1" stop-color="#366994"/>
</linearGradient>
<linearGradient id="paint1_linear_1_85" x1="3313.49" y1="2506.21" x2="11319.1" y2="11655.8" gradientUnits="userSpaceOnUse">
<stop stop-color="#FFE052"/>
<stop offset="1" stop-color="#FFC331"/>
</linearGradient>
<clipPath id="clip0_1_85">
<rect width="103.613" height="73.8636" fill="white" transform="translate(91.3199 93.0682)"/>
</clipPath>
<clipPath id="clip1_1_85">
<rect width="115.906" height="85.6818" fill="white" transform="translate(591.823 81.25)"/>
</clipPath>
<clipPath id="clip2_1_85">
<rect width="72.0022" height="59.0909" fill="white" transform="translate(686.656 183.182)"/>
</clipPath>
</defs>
</svg>
