<svg width="447" height="176" viewBox="0 0 447 176" fill="none" xmlns="http://www.w3.org/2000/svg">
<rect width="447" height="176" fill="#011629"/>
<path d="M16.7752 44.9515L13.0536 7.9375H53.9464L50.2198 44.9456L33.4752 49.0625L16.7752 44.9515Z" fill="#E44F26"/>
<path d="M33.5 45.9164L47.0316 42.5897L50.2149 10.9646H33.5V45.9164Z" fill="#F1662A"/>
<path d="M33.5 24.6915H26.7259L26.2589 20.0429H33.5V15.503H33.4818H20.6641L20.7866 16.7221L22.0437 29.2314H33.5V24.6915Z" fill="#EBEBEB"/>
<path d="M33.5 36.4812L33.4768 36.4871L27.776 35.1226L27.4116 31.5021H24.6407H22.2723L22.9894 38.6285L33.4768 41.2106L33.5 41.2047V36.4812Z" fill="#EBEBEB"/>
<path d="M33.4818 24.6915V29.2314H39.7855L39.1925 35.1197L33.4818 36.4856V41.2091L43.9774 38.6285L44.0536 37.8618L45.2561 25.9106L45.3819 24.6915H44.0023H33.4818Z" fill="white"/>
<path d="M33.4818 15.503V18.323V20.0327V20.0429H45.8308H45.8473L45.95 19.0236L46.1836 16.7221L46.3061 15.503H33.4818Z" fill="white"/>
<path d="M129.82 65L135.516 47.7031H140.133L145.898 65H142.207L141.246 61.707H134.449L133.453 65H129.82ZM135.27 59.0117H140.449L137.906 50.3047L135.27 59.0117ZM148.594 52.4141H151.781V53.5273C152.266 53.1133 152.801 52.7773 153.387 52.5195C153.973 52.2617 154.723 52.1328 155.637 52.1328C156.582 52.1328 157.348 52.3086 157.934 52.6602C158.52 53.0039 158.949 53.4648 159.223 54.043C159.496 54.6211 159.633 55.2656 159.633 55.9766V65H156.445V56.1523C156.445 55.707 156.328 55.3672 156.094 55.1328C155.867 54.8984 155.582 54.7383 155.238 54.6523C154.902 54.5664 154.566 54.5234 154.23 54.5234C153.848 54.5234 153.469 54.5938 153.094 54.7344C152.719 54.875 152.406 55.082 152.156 55.3555C151.906 55.6289 151.781 55.9727 151.781 56.3867V65H148.594V52.4141ZM162.68 64.2852L163.324 62.1172C163.996 62.4062 164.699 62.6367 165.434 62.8086C166.176 62.9727 166.855 63.0547 167.473 63.0547C168.051 63.0547 168.48 62.918 168.762 62.6445C169.043 62.3633 169.184 61.9805 169.184 61.4961C169.184 61.1289 169.102 60.8438 168.938 60.6406C168.781 60.4297 168.508 60.2617 168.117 60.1367L165.352 59.2695C164.359 58.957 163.676 58.4961 163.301 57.8867C162.934 57.2773 162.75 56.5508 162.75 55.707C162.75 54.5039 163.172 53.6094 164.016 53.0234C164.867 52.4375 165.953 52.1445 167.273 52.1445C168.352 52.1445 169.266 52.2578 170.016 52.4844C170.766 52.7109 171.367 52.9531 171.82 53.2109L171.07 55.1914C170.828 55.0586 170.508 54.9297 170.109 54.8047C169.711 54.6797 169.285 54.5781 168.832 54.5C168.387 54.4141 167.965 54.3711 167.566 54.3711C166.895 54.3711 166.434 54.4883 166.184 54.7227C165.934 54.957 165.809 55.2812 165.809 55.6953C165.809 55.9609 165.871 56.1953 165.996 56.3984C166.121 56.5938 166.344 56.7422 166.664 56.8438L169.266 57.6641C170.328 58 171.066 58.4688 171.48 59.0703C171.895 59.6719 172.102 60.4648 172.102 61.4492C172.102 62.5117 171.727 63.4141 170.977 64.1562C170.227 64.8984 169.098 65.2695 167.59 65.2695C166.527 65.2695 165.605 65.1875 164.824 65.0234C164.051 64.8672 163.336 64.6211 162.68 64.2852ZM174.961 47.2461H178.148V53.6328C178.422 53.1953 178.926 52.8398 179.66 52.5664C180.402 52.2852 181.211 52.1445 182.086 52.1445C183.297 52.1445 184.246 52.4688 184.934 53.1172C185.629 53.7656 185.977 54.6211 185.977 55.6836V65H182.789V56.1406C182.789 55.6953 182.68 55.3594 182.461 55.1328C182.242 54.8984 181.969 54.7383 181.641 54.6523C181.312 54.5664 180.98 54.5234 180.645 54.5234C180.262 54.5234 179.879 54.5938 179.496 54.7344C179.113 54.8672 178.793 55.0703 178.535 55.3438C178.277 55.6094 178.148 55.9453 178.148 56.3516V65H174.961V47.2461ZM193.441 65.2695C192.238 65.2695 191.285 64.9219 190.582 64.2266C189.887 63.5312 189.539 62.6523 189.539 61.5898V52.4141H192.727V61.0742C192.727 61.5117 192.836 61.8633 193.055 62.1289C193.273 62.3867 193.547 62.5742 193.875 62.6914C194.203 62.8086 194.531 62.8672 194.859 62.8672C195.25 62.8672 195.637 62.8008 196.02 62.668C196.402 62.5352 196.719 62.3242 196.969 62.0352C197.227 61.7461 197.355 61.3672 197.355 60.8984V52.4141H200.543V65H197.543L197.449 63.6172C197.199 64.1406 196.688 64.5469 195.914 64.8359C195.141 65.125 194.316 65.2695 193.441 65.2695ZM204.352 60.8633V47.2461H207.539V60.8164C207.539 61.5039 207.699 62.0039 208.02 62.3164C208.348 62.6211 208.938 62.7734 209.789 62.7734H210.188L209.941 65.1406H208.605C207.207 65.1406 206.148 64.8242 205.43 64.1914C204.711 63.5508 204.352 62.4414 204.352 60.8633ZM219 65V47.7031H222.832L227.719 56.1289L232.605 47.7031H236.508V65H233.25V52.2148L228.926 59.9727H226.594L222.258 52.5078V65H219ZM245.648 65.2695C243.664 65.2695 242.258 64.9023 241.43 64.168C240.602 63.4336 240.188 62.4414 240.188 61.1914V56.2344C240.188 54.9531 240.664 53.9531 241.617 53.2344C242.578 52.5078 243.922 52.1445 245.648 52.1445C247.367 52.1445 248.707 52.5078 249.668 53.2344C250.629 53.9531 251.109 54.9531 251.109 56.2344V61.1914C251.109 62.0195 250.938 62.7422 250.594 63.3594C250.25 63.9688 249.68 64.4414 248.883 64.7773C248.094 65.1055 247.016 65.2695 245.648 65.2695ZM245.648 63.0547C246.328 63.0547 246.875 62.9297 247.289 62.6797C247.711 62.4219 247.922 61.9727 247.922 61.332V56.0938C247.922 55.4531 247.723 55.0078 247.324 54.7578C246.926 54.5 246.367 54.3711 245.648 54.3711C244.961 54.3711 244.41 54.5 243.996 54.7578C243.582 55.0078 243.375 55.4531 243.375 56.0938V61.332C243.375 61.9727 243.57 62.4219 243.961 62.6797C244.352 62.9297 244.914 63.0547 245.648 63.0547ZM254.461 47.2344H257.648V57.9453L262.629 52.4141H266.262L261.527 57.8398L266.473 65H262.992L259.055 59.1758L257.648 60.6172V65H254.461V47.2344ZM268.523 47.2461H271.711V53.6328C271.984 53.1953 272.488 52.8398 273.223 52.5664C273.965 52.2852 274.773 52.1445 275.648 52.1445C276.859 52.1445 277.809 52.4688 278.496 53.1172C279.191 53.7656 279.539 54.6211 279.539 55.6836V65H276.352V56.1406C276.352 55.6953 276.242 55.3594 276.023 55.1328C275.805 54.8984 275.531 54.7383 275.203 54.6523C274.875 54.5664 274.543 54.5234 274.207 54.5234C273.824 54.5234 273.441 54.5938 273.059 54.7344C272.676 54.8672 272.355 55.0703 272.098 55.3438C271.84 55.6094 271.711 55.9453 271.711 56.3516V65H268.523V47.2461ZM286.277 65.2695C285.199 65.2695 284.32 64.957 283.641 64.332C282.969 63.707 282.633 62.875 282.633 61.8359C282.633 61.2422 282.754 60.7148 282.996 60.2539C283.238 59.793 283.68 59.3672 284.32 58.9766C284.961 58.5781 285.879 58.1914 287.074 57.8164C288.051 57.5039 288.77 57.2148 289.23 56.9492C289.699 56.6836 289.934 56.332 289.934 55.8945C289.934 55.3867 289.781 55.0078 289.477 54.7578C289.18 54.5 288.672 54.3711 287.953 54.3711C287.156 54.3711 286.629 54.5273 286.371 54.8398C286.121 55.1523 285.996 55.5508 285.996 56.0352V56.5273H283.008V56.1523C283.008 54.9336 283.414 53.9609 284.227 53.2344C285.039 52.5078 286.305 52.1445 288.023 52.1445C289.281 52.1445 290.277 52.3203 291.012 52.6719C291.746 53.0234 292.273 53.5195 292.594 54.1602C292.914 54.793 293.074 55.543 293.074 56.4102V61.3906C293.074 61.9609 293.145 62.3359 293.285 62.5156C293.434 62.6875 293.703 62.7734 294.094 62.7734L293.965 65.0938H293.297C292.422 65.0938 291.742 64.9727 291.258 64.7305C290.773 64.4883 290.418 64.1133 290.191 63.6055C289.855 64.0508 289.348 64.4414 288.668 64.7773C287.996 65.1055 287.199 65.2695 286.277 65.2695ZM287.344 63.1484C287.734 63.1484 288.191 63.0391 288.715 62.8203C289.238 62.6016 289.645 62.2656 289.934 61.8125V58.625C289.723 58.7969 289.387 58.9883 288.926 59.1992C288.465 59.4023 287.969 59.6016 287.438 59.7969C286.742 60.0547 286.285 60.3398 286.066 60.6523C285.848 60.9648 285.738 61.3008 285.738 61.6602C285.738 62.168 285.887 62.543 286.184 62.7852C286.48 63.0273 286.867 63.1484 287.344 63.1484ZM297 60.8633V47.2461H300.188V60.8164C300.188 61.5039 300.348 62.0039 300.668 62.3164C300.996 62.6211 301.586 62.7734 302.438 62.7734H302.836L302.59 65.1406H301.254C299.855 65.1406 298.797 64.8242 298.078 64.1914C297.359 63.5508 297 62.4414 297 60.8633ZM304.828 61.0625V56.1523C304.828 54.8711 305.312 53.8828 306.281 53.1875C307.258 52.4922 308.562 52.1445 310.195 52.1445C312.133 52.1445 313.508 52.5156 314.32 53.2578C315.141 54 315.551 55.0039 315.551 56.2695V59.3164H308.016V61.3672C308.016 62.1094 308.207 62.5781 308.59 62.7734C308.973 62.9609 309.543 63.0547 310.301 63.0547C311.207 63.0547 311.812 62.9297 312.117 62.6797C312.43 62.4219 312.586 61.9062 312.586 61.1328H315.539C315.539 62.6875 315.102 63.7656 314.227 64.3672C313.352 64.9688 312.023 65.2695 310.242 65.2695C309.219 65.2695 308.297 65.1445 307.477 64.8945C306.656 64.6367 306.008 64.2031 305.531 63.5938C305.062 62.9844 304.828 62.1406 304.828 61.0625ZM312.539 57.3711V55.8945C312.539 55.4258 312.438 55.0859 312.234 54.875C312.039 54.6562 311.77 54.5195 311.426 54.4648C311.09 54.4023 310.707 54.3711 310.277 54.3711C309.637 54.3711 309.098 54.4688 308.66 54.6641C308.23 54.8516 308.016 55.2812 308.016 55.9531V57.3711H312.539Z" fill="white"/>
<path d="M145.672 107L149.883 95.7031H151.266L155.484 107H153.883L153.125 104.797H148.07L147.305 107H145.672ZM148.477 103.641H152.727L150.617 97.5078L148.477 103.641ZM162.398 99.8281H161.016V98.7188H162.398V97.4609C162.398 96.6849 162.609 96.1224 163.031 95.7734C163.458 95.4193 164.096 95.2422 164.945 95.2422H165.875L165.969 96.2812H165.062C164.615 96.2812 164.302 96.3802 164.125 96.5781C163.953 96.776 163.867 97.0234 163.867 97.3203V98.7188H165.875V99.8281H163.867V107H162.398V99.8281ZM170.555 107.172C169.878 107.172 169.328 107.06 168.906 106.836C168.49 106.612 168.185 106.315 167.992 105.945C167.799 105.576 167.703 105.172 167.703 104.734V98.7188H169.172V104.742C169.172 105.154 169.323 105.474 169.625 105.703C169.927 105.932 170.333 106.047 170.844 106.047C171.562 106.047 172.096 105.891 172.445 105.578C172.794 105.266 172.969 104.935 172.969 104.586V98.7188H174.438V107H173.125L172.969 105.961C172.76 106.331 172.456 106.625 172.055 106.844C171.659 107.062 171.159 107.172 170.555 107.172ZM177.375 104.203V95.2422H178.844V104.219C178.844 104.667 178.885 105.008 178.969 105.242C179.052 105.471 179.203 105.628 179.422 105.711C179.641 105.789 179.956 105.828 180.367 105.828H180.625L180.453 107.062H180.031C179.427 107.062 178.927 106.992 178.531 106.852C178.141 106.711 177.849 106.435 177.656 106.023C177.469 105.612 177.375 105.005 177.375 104.203ZM182.812 104.203V95.2422H184.281V104.219C184.281 104.667 184.323 105.008 184.406 105.242C184.49 105.471 184.641 105.628 184.859 105.711C185.078 105.789 185.393 105.828 185.805 105.828H186.062L185.891 107.062H185.469C184.865 107.062 184.365 106.992 183.969 106.852C183.578 106.711 183.286 106.435 183.094 106.023C182.906 105.612 182.812 105.005 182.812 104.203ZM191.875 106.5L192.234 105.422C192.417 105.521 192.732 105.651 193.18 105.812C193.628 105.969 194.133 106.047 194.695 106.047C195.346 106.047 195.786 105.927 196.016 105.688C196.245 105.448 196.359 105.154 196.359 104.805C196.359 104.482 196.315 104.227 196.227 104.039C196.143 103.852 195.906 103.685 195.516 103.539L193.547 102.82C192.948 102.602 192.529 102.344 192.289 102.047C192.049 101.75 191.93 101.344 191.93 100.828C191.93 100.13 192.122 99.5781 192.508 99.1719C192.893 98.7656 193.596 98.5625 194.617 98.5625C195.201 98.5625 195.734 98.6094 196.219 98.7031C196.708 98.7917 197.104 98.8958 197.406 99.0156L197.07 100.141C196.914 100.073 196.708 100.005 196.453 99.9375C196.198 99.8698 195.932 99.8125 195.656 99.7656C195.38 99.7135 195.125 99.6875 194.891 99.6875C194.219 99.6875 193.784 99.7734 193.586 99.9453C193.393 100.112 193.297 100.383 193.297 100.758C193.297 101.013 193.344 101.203 193.438 101.328C193.536 101.448 193.727 101.562 194.008 101.672L195.953 102.43C196.417 102.607 196.766 102.797 197 103C197.24 103.198 197.401 103.438 197.484 103.719C197.568 104 197.609 104.357 197.609 104.789C197.609 105.221 197.518 105.62 197.336 105.984C197.159 106.344 196.87 106.633 196.469 106.852C196.073 107.065 195.547 107.172 194.891 107.172C194.12 107.172 193.471 107.086 192.945 106.914C192.419 106.742 192.062 106.604 191.875 106.5ZM200.523 104.633V99.8281H199.141V98.7188H200.578L200.758 96.1562H201.992V98.7188H204.07V99.8281H201.992V104.539C201.992 105.086 202.154 105.438 202.477 105.594C202.799 105.75 203.31 105.828 204.008 105.828H204.172L204.016 107.062H203.797C202.667 107.062 201.839 106.885 201.312 106.531C200.786 106.177 200.523 105.544 200.523 104.633ZM208.648 107.172C208.039 107.172 207.542 107.068 207.156 106.859C206.776 106.646 206.495 106.367 206.312 106.023C206.135 105.674 206.047 105.302 206.047 104.906C206.047 104.49 206.128 104.141 206.289 103.859C206.456 103.573 206.766 103.315 207.219 103.086C207.677 102.852 208.346 102.607 209.227 102.352C209.685 102.216 210.052 102.096 210.328 101.992C210.604 101.888 210.805 101.755 210.93 101.594C211.055 101.432 211.117 101.201 211.117 100.898C211.117 100.674 211.081 100.471 211.008 100.289C210.94 100.107 210.797 99.9609 210.578 99.8516C210.365 99.7422 210.036 99.6875 209.594 99.6875C209.042 99.6875 208.638 99.7448 208.383 99.8594C208.128 99.974 207.964 100.125 207.891 100.312C207.823 100.495 207.789 100.698 207.789 100.922V101.289H206.375V100.914C206.375 100.096 206.648 99.5 207.195 99.125C207.742 98.75 208.557 98.5625 209.641 98.5625C210.734 98.5625 211.497 98.8177 211.93 99.3281C212.367 99.8385 212.586 100.521 212.586 101.375V104.906C212.586 105.344 212.641 105.625 212.75 105.75C212.865 105.875 213.099 105.938 213.453 105.938L213.281 107.062H212.984C212.432 107.062 212.034 106.956 211.789 106.742C211.544 106.523 211.359 106.219 211.234 105.828C211.115 106.016 210.948 106.214 210.734 106.422C210.526 106.63 210.253 106.807 209.914 106.953C209.581 107.099 209.159 107.172 208.648 107.172ZM208.828 106.078C209.125 106.078 209.435 106.016 209.758 105.891C210.081 105.76 210.367 105.591 210.617 105.383C210.872 105.169 211.039 104.935 211.117 104.68V102.5C211.003 102.615 210.802 102.766 210.516 102.953C210.234 103.135 209.831 103.302 209.305 103.453C208.664 103.635 208.193 103.823 207.891 104.016C207.594 104.208 207.445 104.49 207.445 104.859C207.445 105.276 207.552 105.583 207.766 105.781C207.984 105.979 208.339 106.078 208.828 106.078ZM218.695 107.172C217.872 107.172 217.214 107.042 216.719 106.781C216.229 106.516 215.875 106.167 215.656 105.734C215.438 105.297 215.328 104.823 215.328 104.312V101.156C215.328 100.375 215.625 99.7474 216.219 99.2734C216.818 98.7995 217.63 98.5625 218.656 98.5625C219.318 98.5625 219.893 98.6406 220.383 98.7969C220.872 98.9479 221.25 99.224 221.516 99.625C221.786 100.026 221.922 100.599 221.922 101.344L220.523 101.477C220.523 100.971 220.466 100.591 220.352 100.336C220.237 100.081 220.047 99.9089 219.781 99.8203C219.516 99.7318 219.154 99.6875 218.695 99.6875C218.065 99.6875 217.591 99.8021 217.273 100.031C216.956 100.255 216.797 100.643 216.797 101.195V104.438C216.797 105.031 216.964 105.448 217.297 105.688C217.635 105.927 218.102 106.047 218.695 106.047C219.18 106.047 219.547 106.013 219.797 105.945C220.052 105.872 220.232 105.732 220.336 105.523C220.44 105.31 220.51 104.995 220.547 104.578H221.906C221.854 105.214 221.719 105.721 221.5 106.102C221.281 106.482 220.945 106.755 220.492 106.922C220.044 107.089 219.445 107.172 218.695 107.172ZM224.266 95.2422H225.734V102.906L229.695 98.7188H231.305L227.938 102.359L231.641 107H229.945L226.977 103.156L225.734 104.391V107H224.266V95.2422ZM236.922 104.383V101.258C236.922 100.424 237.198 99.7682 237.75 99.2891C238.302 98.8047 239.18 98.5625 240.383 98.5625C240.643 98.5625 240.951 98.5911 241.305 98.6484C241.659 98.7057 241.964 98.7812 242.219 98.875V95.2422H243.688V107H242.688L242.445 106.453C242.206 106.641 241.878 106.807 241.461 106.953C241.049 107.099 240.63 107.172 240.203 107.172C239.411 107.172 238.773 107.049 238.289 106.805C237.81 106.56 237.461 106.229 237.242 105.812C237.029 105.391 236.922 104.914 236.922 104.383ZM242.219 105.523V100.031C242 99.9271 241.727 99.8438 241.398 99.7812C241.076 99.7188 240.742 99.6875 240.398 99.6875C239.82 99.6875 239.341 99.7943 238.961 100.008C238.581 100.221 238.391 100.583 238.391 101.094V104.492C238.391 105.008 238.573 105.391 238.938 105.641C239.307 105.891 239.76 106.016 240.297 106.016C240.714 106.016 241.096 105.958 241.445 105.844C241.794 105.729 242.052 105.622 242.219 105.523ZM246.297 104.078V101.195C246.297 100.414 246.565 99.7812 247.102 99.2969C247.638 98.8073 248.5 98.5625 249.688 98.5625C250.823 98.5625 251.659 98.7865 252.195 99.2344C252.732 99.6771 253 100.292 253 101.078V103.047H247.766V104.211C247.766 104.883 247.898 105.357 248.164 105.633C248.435 105.909 248.961 106.047 249.742 106.047C250.206 106.047 250.57 106.031 250.836 106C251.107 105.964 251.305 105.859 251.43 105.688C251.56 105.51 251.646 105.214 251.688 104.797H252.984C252.917 105.448 252.773 105.945 252.555 106.289C252.341 106.628 252.01 106.859 251.562 106.984C251.115 107.109 250.508 107.172 249.742 107.172C248.508 107.172 247.625 106.914 247.094 106.398C246.562 105.883 246.297 105.109 246.297 104.078ZM251.578 102.055V100.922C251.578 100.422 251.404 100.091 251.055 99.9297C250.711 99.7682 250.255 99.6875 249.688 99.6875C249.104 99.6875 248.638 99.7891 248.289 99.9922C247.94 100.195 247.766 100.552 247.766 101.062V102.055H251.578ZM254.531 98.7188H256.008L258.5 105.438L260.719 98.7188H262.156L259.227 107H257.742L254.531 98.7188ZM264.141 104.203V95.2422H265.609V104.219C265.609 104.667 265.651 105.008 265.734 105.242C265.818 105.471 265.969 105.628 266.188 105.711C266.406 105.789 266.721 105.828 267.133 105.828H267.391L267.219 107.062H266.797C266.193 107.062 265.693 106.992 265.297 106.852C264.906 106.711 264.615 106.435 264.422 106.023C264.234 105.612 264.141 105.005 264.141 104.203ZM272.68 107.172C271.852 107.172 271.185 107.06 270.68 106.836C270.18 106.607 269.815 106.294 269.586 105.898C269.362 105.503 269.25 105.049 269.25 104.539V101.203C269.25 100.693 269.362 100.24 269.586 99.8438C269.815 99.4427 270.18 99.1302 270.68 98.9062C271.185 98.6771 271.852 98.5625 272.68 98.5625C273.503 98.5625 274.164 98.6771 274.664 98.9062C275.169 99.1302 275.536 99.4427 275.766 99.8438C275.995 100.24 276.109 100.693 276.109 101.203V104.539C276.109 105.049 275.995 105.503 275.766 105.898C275.536 106.294 275.169 106.607 274.664 106.836C274.164 107.06 273.503 107.172 272.68 107.172ZM272.68 106.047C273.253 106.047 273.721 105.945 274.086 105.742C274.456 105.534 274.641 105.174 274.641 104.664V101.078C274.641 100.568 274.456 100.208 274.086 100C273.721 99.7917 273.253 99.6875 272.68 99.6875C272.096 99.6875 271.622 99.7917 271.258 100C270.898 100.208 270.719 100.568 270.719 101.078V104.664C270.719 105.174 270.898 105.534 271.258 105.742C271.622 105.945 272.096 106.047 272.68 106.047ZM278.719 110.188V98.7188H279.875L280.047 99.3438C280.266 99.1458 280.581 98.9661 280.992 98.8047C281.409 98.6432 281.854 98.5625 282.328 98.5625C283.385 98.5625 284.172 98.8203 284.688 99.3359C285.208 99.8516 285.469 100.508 285.469 101.305V104.312C285.469 105.146 285.182 105.831 284.609 106.367C284.042 106.904 283.219 107.172 282.141 107.172C281.677 107.172 281.284 107.122 280.961 107.023C280.643 106.93 280.385 106.833 280.188 106.734V110.188H278.719ZM282.047 106.047C282.625 106.047 283.094 105.911 283.453 105.641C283.818 105.365 284 104.974 284 104.469V101.188C284 100.693 283.818 100.32 283.453 100.07C283.094 99.8151 282.643 99.6875 282.102 99.6875C281.758 99.6875 281.448 99.7474 281.172 99.8672C280.901 99.9818 280.68 100.109 280.508 100.25C280.341 100.391 280.234 100.495 280.188 100.562V105.602C280.375 105.706 280.625 105.807 280.938 105.906C281.25 106 281.62 106.047 282.047 106.047ZM287.781 104.078V101.195C287.781 100.414 288.049 99.7812 288.586 99.2969C289.122 98.8073 289.984 98.5625 291.172 98.5625C292.307 98.5625 293.143 98.7865 293.68 99.2344C294.216 99.6771 294.484 100.292 294.484 101.078V103.047H289.25V104.211C289.25 104.883 289.383 105.357 289.648 105.633C289.919 105.909 290.445 106.047 291.227 106.047C291.69 106.047 292.055 106.031 292.32 106C292.591 105.964 292.789 105.859 292.914 105.688C293.044 105.51 293.13 105.214 293.172 104.797H294.469C294.401 105.448 294.258 105.945 294.039 106.289C293.826 106.628 293.495 106.859 293.047 106.984C292.599 107.109 291.992 107.172 291.227 107.172C289.992 107.172 289.109 106.914 288.578 106.398C288.047 105.883 287.781 105.109 287.781 104.078ZM293.062 102.055V100.922C293.062 100.422 292.888 100.091 292.539 99.9297C292.195 99.7682 291.74 99.6875 291.172 99.6875C290.589 99.6875 290.122 99.7891 289.773 99.9922C289.424 100.195 289.25 100.552 289.25 101.062V102.055H293.062ZM296.969 98.7188H298.438V99.8906C298.557 99.5781 298.773 99.3281 299.086 99.1406C299.404 98.9479 299.763 98.8099 300.164 98.7266C300.565 98.6432 300.948 98.6016 301.312 98.6016L301.266 99.8594C300.797 99.8594 300.346 99.9245 299.914 100.055C299.482 100.18 299.128 100.344 298.852 100.547C298.576 100.75 298.438 100.969 298.438 101.203V107H296.969V98.7188Z" fill="white"/>
<g clip-path="url(#clip0_1_85)">
<path d="M100.51 79.1894C99.8978 78.9889 99.2636 78.7993 98.6106 78.6199C98.7179 78.2031 98.8164 77.7917 98.904 77.3873C100.342 70.7467 99.4017 65.397 96.1918 63.6356C93.1139 61.9467 88.0802 63.7077 82.9964 67.9175C82.5076 68.3223 82.0173 68.7509 81.5273 69.2001C81.2008 68.9029 80.8748 68.6157 80.5497 68.341C75.2217 63.8396 69.8813 61.9426 66.6745 63.7091C63.5996 65.4029 62.689 70.4321 63.9831 76.7254C64.1081 77.3333 64.2542 77.9541 64.4194 78.5852C63.6635 78.7894 62.9339 79.007 62.2357 79.2386C55.9893 81.3108 52 84.5585 52 87.9272C52 91.4064 56.2825 94.8961 62.7886 97.0121C63.3021 97.1791 63.8348 97.337 64.3839 97.4869C64.2056 98.1695 64.0506 98.8384 63.9205 99.4909C62.6865 105.675 63.6502 110.585 66.717 112.269C69.8847 114.007 75.2009 112.22 80.3777 107.914C80.7868 107.574 81.1974 107.213 81.6088 106.835C82.142 107.323 82.6743 107.786 83.2038 108.219C88.2181 112.325 93.1705 113.983 96.2344 112.295C99.3989 110.552 100.427 105.277 99.0922 98.8592C98.9902 98.3691 98.8715 97.8683 98.7383 97.3587C99.1116 97.2537 99.4781 97.1453 99.8355 97.0325C106.599 94.9001 111 91.4529 111 87.9272C111 84.5463 106.882 81.2767 100.51 79.1894ZM99.0428 94.756C98.7202 94.8577 98.3892 94.9559 98.0519 95.0511C97.3052 92.8018 96.2974 90.41 95.0642 87.9389C96.241 85.5266 97.2098 83.1654 97.9356 80.9307C98.5392 81.0968 99.125 81.2721 99.6894 81.4571C105.149 83.2455 108.48 85.8897 108.48 87.9272C108.48 90.0975 104.883 92.9148 99.0428 94.756ZM96.6196 99.325C97.21 102.163 97.2944 104.729 96.9033 106.734C96.5519 108.537 95.8452 109.738 94.9714 110.22C93.1121 111.244 89.1358 109.913 84.8476 106.401C84.356 105.999 83.8608 105.569 83.3641 105.114C85.0265 103.384 86.6881 101.373 88.3097 99.139C91.1619 98.8982 93.8566 98.5045 96.3003 97.967C96.4206 98.4289 96.5275 98.882 96.6196 99.325ZM72.1144 110.043C70.2978 110.653 68.851 110.671 67.9764 110.191C66.1153 109.169 65.3416 105.227 66.397 99.9382C66.5179 99.3325 66.6617 98.7103 66.8276 98.0744C69.2445 98.5829 71.9194 98.9489 74.7785 99.1694C76.411 101.355 78.1205 103.364 79.8432 105.123C79.4668 105.469 79.0919 105.798 78.7191 106.108C76.43 108.012 74.1361 109.363 72.1144 110.043ZM63.6038 94.7428C60.7269 93.8071 58.351 92.5911 56.7225 91.2641C55.2592 90.0717 54.5204 88.8878 54.5204 87.9272C54.5204 85.8829 57.7233 83.2755 63.0653 81.5033C63.7135 81.2882 64.3921 81.0855 65.0962 80.8952C65.8345 83.1804 66.803 85.5696 67.9717 87.9856C66.7879 90.4374 65.8056 92.8647 65.0601 95.1766C64.5581 95.0393 64.0717 94.8948 63.6038 94.7428ZM66.4566 76.2649C65.3478 70.8729 66.0842 66.8054 67.9373 65.7847C69.9111 64.6974 74.2758 66.2477 78.8761 70.1344C79.1701 70.3828 79.4654 70.6429 79.7614 70.9119C78.0472 72.6633 76.3533 74.6573 74.7353 76.8302C71.9605 77.0749 69.3043 77.468 66.8622 77.9944C66.7087 77.4068 66.5727 76.8294 66.4566 76.2649ZM91.9066 82.2445C91.3228 81.285 90.7234 80.3482 90.1124 79.4369C91.9949 79.6634 93.7985 79.9639 95.4922 80.3318C94.9837 81.8825 94.3499 83.5038 93.6039 85.166C93.0687 84.1991 92.5027 83.2243 91.9066 82.2445ZM81.5281 72.6259C82.6907 73.8243 83.8549 75.1624 85.0001 76.6141C83.8461 76.5623 82.6779 76.5353 81.5 76.5353C80.3332 76.5353 79.1736 76.5617 78.0268 76.6126C79.1731 75.1743 80.3474 73.8381 81.5281 72.6259ZM71.0832 82.2611C70.5001 83.2233 69.9445 84.1928 69.4178 85.1642C68.6838 83.5078 68.0559 81.8791 67.5429 80.3064C69.2263 79.948 71.0214 79.6549 72.8919 79.4327C72.2723 80.3524 71.668 81.2963 71.0832 82.2611ZM72.9458 96.5927C71.0132 96.3876 69.1911 96.1096 67.5082 95.761C68.0293 94.1603 68.6711 92.4967 69.4206 90.8047C69.9487 91.7754 70.5065 92.7453 71.0932 93.7096C71.6909 94.692 72.3102 95.6543 72.9458 96.5927ZM81.5979 103.398C80.4033 102.171 79.2117 100.815 78.048 99.3553C79.1777 99.3974 80.3295 99.419 81.5 99.419C82.7026 99.419 83.8914 99.3933 85.0615 99.3437C83.9126 100.829 82.7526 102.188 81.5979 103.398ZM93.6279 90.7185C94.4165 92.4288 95.0813 94.0836 95.6091 95.6571C93.8985 96.0284 92.0515 96.3275 90.1055 96.5498C90.718 95.6262 91.3226 94.6733 91.9166 93.6931C92.5177 92.7014 93.0883 91.7082 93.6279 90.7185ZM89.7334 92.4949C88.8111 94.0166 87.8643 95.4691 86.903 96.8403C85.1523 96.9594 83.3435 97.0207 81.5 97.0207C79.6639 97.0207 77.878 96.9665 76.1582 96.8602C75.1582 95.4711 74.1908 94.0143 73.2744 92.508C72.3604 91.0059 71.5194 89.4911 70.7572 87.9848C71.5192 86.4749 72.3582 84.9584 73.2669 83.459L73.2667 83.4593C74.1779 81.9558 75.1368 80.5061 76.1275 79.1256C77.8822 78.9994 79.6815 78.9336 81.4999 78.9336C83.3265 78.9336 85.1282 78.9999 86.8823 79.1272C87.858 80.4976 88.8104 81.9426 89.7251 83.4463C90.6502 84.9668 91.5 86.4732 92.2686 87.9507C91.5023 89.4535 90.6544 90.9751 89.7334 92.4949ZM94.9328 65.7134C96.9085 66.7975 97.6768 71.1698 96.4355 76.9032C96.3563 77.2691 96.2672 77.6417 96.1703 78.0193C93.7226 77.4819 91.0645 77.082 88.2816 76.8336C86.6604 74.6368 84.9804 72.6397 83.2941 70.9108C83.7475 70.4958 84.2003 70.1 84.6511 69.7266C89.0069 66.1197 93.0779 64.6956 94.9328 65.7134ZM81.5 82.914C84.4097 82.914 86.7685 85.1585 86.7685 87.9272C86.7685 90.6958 84.4097 92.9403 81.5 92.9403C78.5903 92.9403 76.2315 90.6958 76.2315 87.9272C76.2315 85.1585 78.5903 82.914 81.5 82.914Z" fill="#00D8FF"/>
</g>
<path d="M15.9784 159.183H17.2788C17.8713 159.183 18.3016 159.267 18.5691 159.436C18.8369 159.605 18.9706 159.873 18.9706 160.241C18.9706 160.491 18.9119 160.695 18.7947 160.855C18.6775 161.015 18.5216 161.112 18.3272 161.144V161.172C18.5922 161.232 18.7831 161.342 18.9003 161.504C19.0175 161.666 19.0763 161.881 19.0763 162.15C19.0763 162.531 18.9388 162.828 18.6631 163.042C18.3878 163.255 18.0138 163.362 17.5413 163.362H15.9784V159.183ZM16.8644 160.838H17.3788C17.6188 160.838 17.7928 160.801 17.9003 160.727C18.0081 160.652 18.0619 160.53 18.0619 160.358C18.0619 160.198 18.0034 160.083 17.8863 160.014C17.7691 159.944 17.5838 159.909 17.3303 159.909H16.8644V160.838ZM16.8644 161.541V162.63H17.4419C17.6856 162.63 17.8656 162.584 17.9822 162.49C18.0988 162.397 18.1566 162.254 18.1566 162.062C18.1566 161.715 17.9088 161.541 17.4134 161.541H16.8644ZM23.7038 161.267C23.7038 161.958 23.5322 162.49 23.1894 162.862C22.8466 163.233 22.355 163.419 21.7147 163.419C21.0744 163.419 20.5828 163.233 20.24 162.862C19.8969 162.49 19.7256 161.957 19.7256 161.261C19.7256 160.566 19.8975 160.035 20.2416 159.668C20.5856 159.301 21.0784 159.117 21.7206 159.117C22.3628 159.117 22.8538 159.302 23.1941 159.672C23.5338 160.042 23.7038 160.573 23.7038 161.267ZM20.6544 161.267C20.6544 161.734 20.7428 162.085 20.9203 162.322C21.0975 162.558 21.3622 162.676 21.7147 162.676C22.4216 162.676 22.775 162.206 22.775 161.267C22.775 160.326 22.4234 159.855 21.7203 159.855C21.3678 159.855 21.1019 159.973 20.9228 160.211C20.7438 160.448 20.6544 160.8 20.6544 161.267ZM28.3628 161.267C28.3628 161.958 28.1913 162.49 27.8484 162.862C27.5056 163.233 27.0141 163.419 26.3738 163.419C25.7334 163.419 25.2419 163.233 24.8991 162.862C24.5559 162.49 24.3847 161.957 24.3847 161.261C24.3847 160.566 24.5566 160.035 24.9006 159.668C25.2447 159.301 25.7375 159.117 26.3797 159.117C27.0219 159.117 27.5128 159.302 27.8531 159.672C28.1925 160.042 28.3628 160.573 28.3628 161.267ZM25.3131 161.267C25.3131 161.734 25.4016 162.085 25.5791 162.322C25.7563 162.558 26.0209 162.676 26.3734 162.676C27.0803 162.676 27.4338 162.206 27.4338 161.267C27.4338 160.326 27.0822 159.855 26.3791 159.855C26.0266 159.855 25.7606 159.973 25.5816 160.211C25.4025 160.448 25.3131 160.8 25.3131 161.267ZM30.8406 163.362H29.9547V159.921H28.82V159.183H31.9753V159.921H30.8406V163.362ZM35.0847 162.202C35.0847 162.579 34.9491 162.876 34.6775 163.093C34.4059 163.311 34.0281 163.419 33.5444 163.419C33.0984 163.419 32.7041 163.335 32.3613 163.168V162.345C32.6431 162.47 32.8819 162.559 33.0772 162.611C33.2725 162.662 33.4509 162.688 33.6131 162.688C33.8075 162.688 33.9566 162.651 34.0603 162.577C34.1644 162.502 34.2163 162.392 34.2163 162.245C34.2163 162.163 34.1934 162.09 34.1478 162.026C34.1022 161.962 34.035 161.901 33.9463 161.842C33.8575 161.783 33.6772 161.688 33.4047 161.559C33.1494 161.439 32.9578 161.324 32.8303 161.213C32.7025 161.102 32.6006 160.974 32.5244 160.827C32.4481 160.681 32.41 160.509 32.41 160.313C32.41 159.943 32.5353 159.653 32.7859 159.441C33.0366 159.23 33.3828 159.124 33.825 159.124C34.0422 159.124 34.2494 159.15 34.4466 159.201C34.6438 159.253 34.85 159.325 35.0653 159.418L34.7794 160.107C34.5566 160.016 34.3722 159.952 34.2263 159.916C34.0803 159.879 33.9372 159.861 33.7963 159.861C33.6284 159.861 33.5 159.9 33.4103 159.978C33.3206 160.057 33.2759 160.158 33.2759 160.284C33.2759 160.362 33.2941 160.431 33.3303 160.489C33.3666 160.547 33.4241 160.603 33.5031 160.657C33.5822 160.712 33.7694 160.809 34.0647 160.951C34.4553 161.137 34.7231 161.325 34.8678 161.512C35.0125 161.7 35.0847 161.929 35.0847 162.202ZM37.4544 163.362H36.5684V159.921H35.4338V159.183H38.5891V159.921H37.4544V163.362ZM40.1181 161.758V163.362H39.2322V159.183H40.4497C41.0175 159.183 41.4375 159.287 41.71 159.493C41.9825 159.7 42.1188 160.014 42.1188 160.435C42.1188 160.681 42.0513 160.899 41.9159 161.091C41.7806 161.282 41.5891 161.432 41.3416 161.541C41.9703 162.48 42.38 163.087 42.5706 163.362H41.5875L40.59 161.758H40.1181V161.758ZM40.1181 161.038H40.4041C40.6841 161.038 40.8909 160.992 41.0244 160.898C41.1578 160.805 41.2244 160.658 41.2244 160.458C41.2244 160.26 41.1563 160.119 41.02 160.035C40.8838 159.951 40.6728 159.909 40.3869 159.909H40.1181V161.038ZM45.6544 163.362L45.3513 162.367H43.8278L43.5247 163.362H42.57L44.0447 159.166H45.1278L46.6084 163.362H45.6544ZM45.1397 161.624C44.8597 160.723 44.7019 160.213 44.6666 160.095C44.6313 159.977 44.6063 159.883 44.5909 159.815C44.5281 160.059 44.3481 160.662 44.0506 161.624H45.1397ZM50.0216 160.487C50.0216 160.936 49.8809 161.28 49.6 161.518C49.3191 161.757 48.9194 161.876 48.4009 161.876H48.0209V163.362H47.135V159.183H48.4697C48.9766 159.183 49.3619 159.292 49.6259 159.51C49.8897 159.729 50.0216 160.054 50.0216 160.487ZM48.0209 161.15H48.3125C48.585 161.15 48.7888 161.096 48.9241 160.988C49.0594 160.88 49.1269 160.724 49.1269 160.518C49.1269 160.31 49.07 160.157 48.9569 160.058C48.8434 159.959 48.6656 159.909 48.4238 159.909H48.0206L48.0209 161.15ZM36.1097 141.737C35.49 141.533 34.5978 141.5 33.4331 141.5H29.25V147.75H33.7575C34.5394 147.75 35.0884 147.672 35.4047 147.613C35.9619 147.514 36.4278 147.323 36.8022 147.09C37.1766 146.857 37.4844 146.506 37.7256 146.061C37.9666 145.616 38.0875 145.096 38.0875 144.513C38.0875 143.831 37.9128 143.27 37.5634 142.767C37.2144 142.263 36.7297 141.941 36.1097 141.737ZM35.4672 139.046C36.0828 138.863 36.5469 138.532 36.8584 138.107C37.1706 137.683 37.3266 137.138 37.3266 136.497C37.3266 135.89 37.1809 135.348 36.8897 134.886C36.5984 134.424 36.1825 134.111 35.6422 133.94C35.1009 133.77 34.1734 133.687 32.8591 133.687H29.25V139.312H33.1584C34.2319 139.312 35.0013 139.188 35.4672 139.046ZM49.5625 129.039C49.5625 126.601 47.5859 124.625 45.1478 124.625H20.8522C18.4141 124.625 16.4375 126.601 16.4375 129.039V153.336C16.4375 155.774 18.4141 157.75 20.8522 157.75H45.1478C47.5859 157.75 49.5625 155.774 49.5625 153.336V129.039ZM40.0531 146.897C39.6916 147.633 39.2441 148.201 38.7119 148.6C38.1794 148.999 37.5116 149.365 36.7088 149.568C35.9059 149.772 34.9222 149.937 33.7575 149.937H26.75V131.5H33.6453C35.0431 131.5 36.1638 131.694 37.0081 132.064C37.8528 132.434 38.5138 133.008 38.9928 133.777C39.4709 134.547 39.7103 135.354 39.7103 136.194C39.7103 136.976 39.4978 137.713 39.0741 138.404C38.6497 139.095 38.0091 139.652 37.1522 140.077C38.2584 140.401 39.1094 140.955 39.7041 141.737C40.2988 142.519 40.5963 143.442 40.5963 144.507C40.5959 145.364 40.4153 146.161 40.0531 146.897Z" fill="#5B4282"/>
<path d="M411.5 47.1875C422.856 47.1875 432.062 38.3731 432.062 27.5C432.062 16.6269 422.856 7.8125 411.5 7.8125C400.144 7.8125 390.938 16.6269 390.938 27.5C390.938 38.3731 400.144 47.1875 411.5 47.1875Z" fill="#8892BF"/>
<path d="M409.208 19.0625H411.675L410.978 22.6122H413.195C414.411 22.637 415.317 22.8972 415.913 23.3928C416.521 23.8882 416.7 24.8301 416.449 26.2176L415.251 32.4063H412.748L413.892 26.4964C414.011 25.8768 413.976 25.437 413.785 25.1769C413.594 24.9167 413.183 24.7866 412.551 24.7866L410.566 24.7681L409.1 32.4063H406.633L409.208 19.0625Z" fill="white"/>
<path fill-rule="evenodd" clip-rule="evenodd" d="M397.901 22.6123H402.693C404.099 22.6245 405.119 23.046 405.75 23.8759C406.382 24.7061 406.591 25.8396 406.376 27.277C406.293 27.9338 406.108 28.5779 405.822 29.2099C405.548 29.8417 405.166 30.4115 404.678 30.9196C404.081 31.5638 403.444 31.9726 402.764 32.1462C402.085 32.3198 401.381 32.4064 400.654 32.4064H398.509L397.829 35.9375H395.344L397.901 22.6123ZM398.92 30.3063L399.989 24.7495H400.35C400.482 24.7495 400.619 24.7432 400.762 24.7309C401.715 24.7186 402.508 24.8115 403.14 25.0097C403.783 25.2078 403.998 25.9575 403.783 27.2584C403.521 28.8072 403.009 29.7116 402.246 29.9718C401.483 30.2197 400.529 30.3372 399.385 30.3249H399.135C399.063 30.3249 398.991 30.3185 398.92 30.3063Z" fill="white"/>
<path fill-rule="evenodd" clip-rule="evenodd" d="M423.891 22.6123H419.099L416.542 35.9375H419.027L419.707 32.4064H421.853C422.58 32.4064 423.283 32.3198 423.963 32.1462C424.642 31.9726 425.28 31.5638 425.876 30.9196C426.365 30.4115 426.746 29.8417 427.02 29.2099C427.306 28.5779 427.491 27.9338 427.575 27.277C427.789 25.8396 427.581 24.7061 426.949 23.8759C426.317 23.046 425.298 22.6245 423.891 22.6123ZM421.188 24.7495L420.118 30.3063C420.19 30.3185 420.261 30.3249 420.333 30.3249H420.583C421.728 30.3372 422.681 30.2197 423.444 29.9718C424.207 29.7116 424.72 28.8072 424.982 27.2584C425.197 25.9575 424.982 25.2078 424.338 25.0097C423.706 24.8115 422.914 24.7186 421.96 24.7309C421.817 24.7432 421.68 24.7495 421.549 24.7495H421.188Z" fill="white"/>
<g clip-path="url(#clip1_1_85)">
<path d="M402.963 68.0982C402.987 68.1754 403 68.255 403 68.335V80.7628C403 81.0875 402.796 81.3874 402.466 81.5489L390.225 87.5544V99.4578C390.225 99.7818 390.023 100.081 389.693 100.244L364.142 112.778C364.084 112.807 364.02 112.825 363.956 112.844C363.932 112.851 363.91 112.863 363.884 112.869C363.706 112.909 363.518 112.909 363.339 112.869C363.31 112.862 363.284 112.848 363.256 112.839C363.197 112.821 363.136 112.805 363.08 112.778L337.534 100.244C337.204 100.082 337 99.7824 337 99.4578V62.1743C337 62.0927 337.013 62.0135 337.037 61.9364C337.045 61.9104 337.064 61.8866 337.074 61.8605C337.094 61.813 337.113 61.7643 337.142 61.7201C337.162 61.6906 337.191 61.6668 337.215 61.6397C337.246 61.6034 337.274 61.566 337.31 61.5343C337.34 61.5083 337.38 61.489 337.415 61.4664C337.453 61.4392 337.488 61.4097 337.532 61.3882H337.533L350.307 55.1211C350.636 54.9596 351.041 54.9596 351.37 55.1211L364.144 61.3882H364.146C364.189 61.4109 364.225 61.4392 364.263 61.4652C364.298 61.4879 364.336 61.5083 364.367 61.5332C364.404 61.566 364.431 61.6034 364.463 61.6397C364.485 61.6668 364.516 61.6906 364.534 61.7201C364.565 61.7654 364.582 61.813 364.603 61.8605C364.614 61.8866 364.633 61.9104 364.641 61.9376C364.665 62.0147 364.678 62.0943 364.678 62.1743V85.4612L375.322 80.2384V68.3338C375.322 68.2546 375.335 68.1741 375.359 68.0982C375.369 68.0711 375.386 68.0473 375.397 68.0212C375.418 67.9736 375.436 67.9249 375.466 67.8808C375.486 67.8513 375.515 67.8275 375.537 67.8003C375.569 67.7641 375.596 67.7267 375.633 67.695C375.664 67.669 375.702 67.6497 375.737 67.627C375.777 67.5999 375.811 67.5704 375.854 67.5489H375.855L388.63 61.2817C388.959 61.1201 389.364 61.1201 389.693 61.2817L402.467 67.5489C402.512 67.5715 402.547 67.5999 402.587 67.6259C402.62 67.6486 402.658 67.669 402.689 67.6939C402.726 67.7267 402.753 67.7641 402.785 67.8003C402.809 67.8275 402.838 67.8513 402.856 67.8808C402.887 67.9249 402.904 67.9736 402.926 68.0212C402.938 68.0473 402.955 68.0711 402.963 68.0982ZM400.871 80.2384V69.9037L396.401 72.0966L390.225 75.1266V85.4612L400.872 80.2384H400.871ZM388.097 98.9334V88.5919L382.023 91.5483L364.677 99.9845V110.423L388.097 98.9334ZM339.129 63.7431V98.9334L362.547 110.422V99.9856L350.313 94.0855L350.309 94.0832L350.304 94.0809C350.263 94.0606 350.228 94.0311 350.19 94.0062C350.156 93.9835 350.118 93.9654 350.089 93.9405L350.086 93.9371C350.051 93.9088 350.027 93.8737 349.998 93.8419C349.972 93.8114 349.94 93.7853 349.918 93.7536L349.917 93.7502C349.893 93.7162 349.879 93.6754 349.861 93.6369C349.844 93.603 349.821 93.5712 349.811 93.535V93.5339C349.798 93.4908 349.795 93.4455 349.79 93.4013C349.784 93.3674 349.774 93.3334 349.774 93.2994V93.2971V68.9659L343.599 65.9348L339.129 63.7442V63.7431ZM350.84 56.9537L340.197 62.1743L350.837 67.3948L361.479 62.1732L350.837 56.9537H350.84ZM356.374 89.5343L362.549 86.5055V63.7431L358.078 65.9359L351.903 68.9659V91.7284L356.374 89.5343ZM389.162 63.1144L378.52 68.335L389.162 73.5555L399.802 68.3338L389.162 63.1144ZM388.097 75.1266L381.922 72.0966L377.451 69.9037V80.2384L383.626 83.2672L388.097 85.4612V75.1266ZM363.611 98.4157L379.219 90.8222L387.022 87.0277L376.388 81.8105L364.145 87.8172L352.986 93.2915L363.611 98.4157Z" fill="#FF2D20"/>
</g>
<g clip-path="url(#clip2_1_85)">
<path d="M411.326 124.011C400.943 124.011 401.591 128.422 401.591 128.422L401.603 132.991H411.512V134.362H397.667C397.667 134.362 391.023 133.624 391.023 143.886C391.023 154.147 396.822 153.783 396.822 153.783H400.283V149.022C400.283 149.022 400.097 143.342 405.99 143.342H415.818C415.818 143.342 421.339 143.429 421.339 138.115V129.329C421.339 129.329 422.177 124.011 411.326 124.011ZM405.863 127.084C406.849 127.084 407.645 127.864 407.645 128.83C407.645 129.795 406.849 130.576 405.863 130.576C404.877 130.576 404.08 129.795 404.08 128.83C404.08 127.864 404.877 127.084 405.863 127.084Z" fill="url(#paint0_linear_1_85)"/>
<path d="M411.621 163.863C422.005 163.863 421.356 159.453 421.356 159.453L421.345 154.884H411.436V153.512H425.28C425.28 153.512 431.924 154.25 431.924 143.989C431.924 133.727 426.125 134.091 426.125 134.091H422.664V138.853C422.664 138.853 422.851 144.533 416.958 144.533H407.13C407.13 144.533 401.609 144.445 401.609 149.759V158.546C401.609 158.546 400.77 163.863 411.621 163.863ZM417.085 160.791C416.099 160.791 415.302 160.01 415.302 159.045C415.302 158.079 416.099 157.299 417.085 157.299C418.071 157.299 418.867 158.079 418.867 159.045C418.867 160.01 418.071 160.791 417.085 160.791Z" fill="url(#paint1_linear_1_85)"/>
</g>
<defs>
<linearGradient id="paint0_linear_1_85" x1="1397.28" y1="1038.07" x2="6479.82" y2="6155.49" gradientUnits="userSpaceOnUse">
<stop stop-color="#387EB8"/>
<stop offset="1" stop-color="#366994"/>
</linearGradient>
<linearGradient id="paint1_linear_1_85" x1="1886.79" y1="1696.51" x2="7350.14" y2="6949.01" gradientUnits="userSpaceOnUse">
<stop stop-color="#FFE052"/>
<stop offset="1" stop-color="#FFC331"/>
</linearGradient>
<clipPath id="clip0_1_85">
<rect width="59" height="50" fill="white" transform="translate(52 63)"/>
</clipPath>
<clipPath id="clip1_1_85">
<rect width="66" height="58" fill="white" transform="translate(337 55)"/>
</clipPath>
<clipPath id="clip2_1_85">
<rect width="41" height="40" fill="white" transform="translate(391 124)"/>
</clipPath>
</defs>
</svg>
